<svg xmlns="http://www.w3.org/2000/svg" xmlns:xlink="http://www.w3.org/1999/xlink" width="232" zoomAndPan="magnify" viewBox="0 0 174 170.249993" height="227" preserveAspectRatio="xMidYMid meet" version="1.0"><path fill="#fff7ad" d="M 49.929688 117.421875 C 56.820312 127.621094 68.570312 126.296875 71.335938 127.097656 C 78.496094 129.164062 78.226562 127.257812 63.339844 130.8125 C 58.929688 131.863281 52.371094 128.773438 50.964844 126.464844 C 48.488281 122.394531 45.820312 123 45.414062 124.355469 C 44.683594 126.804688 49.5 126.699219 50.980469 127.863281 C 56.261719 132.027344 60.441406 131.46875 59.449219 131.773438 C 51.75 134.152344 52.628906 134.066406 52.257812 134.03125 C 45.203125 133.355469 41.441406 125.371094 31.707031 125.625 C 30.359375 125.660156 25.300781 125.800781 25.789062 127.039062 C 26.695312 129.304688 32.5625 134.644531 39.777344 134.691406 C 44.316406 134.71875 46.496094 134.011719 49.769531 135.09375 C 41.386719 138.398438 36.710938 142.429688 27.113281 141.414062 C 18.824219 140.539062 9.839844 141.902344 1.507812 150.109375 C 0.496094 151.109375 1.71875 151.339844 6.246094 152.472656 C 25.433594 157.265625 31.808594 141.851562 46.027344 138.328125 C 42.359375 142.195312 42.003906 143.9375 41.65625 143.949219 C 40.972656 143.964844 40.507812 144.386719 40.058594 144.808594 C 36.855469 147.832031 43.269531 149.753906 42.648438 144.511719 C 42.527344 143.5 45.402344 139.820312 47.933594 137.761719 C 48.289062 137.472656 48.078125 137.46875 55.414062 135.003906 C 65.199219 131.71875 50.304688 137.035156 45.777344 147.574219 C 45.273438 148.75 42.925781 155.710938 44.730469 155.171875 C 54.761719 152.191406 56.902344 142.410156 57.464844 140.578125 C 60.023438 132.289062 61.042969 133.230469 69.898438 131.476562 C 76.210938 130.226562 71.488281 130.664062 67.765625 136.347656 C 66.65625 138.042969 65.578125 138.257812 63.863281 139.847656 C 63.078125 140.574219 63.367188 142.257812 64.578125 141.980469 C 68.847656 141 66.585938 125.53125 94.671875 129.789062 C 91.449219 132.621094 82.550781 131.453125 76.160156 135.492188 C 73.390625 137.238281 66.574219 144.847656 69.949219 144.296875 C 97.714844 139.765625 81.628906 125.523438 108.773438 132.460938 C 99.753906 135.203125 101.101562 136.253906 97.925781 137.148438 C 96.769531 137.476562 95.226562 137.144531 94.476562 138.566406 C 94.089844 139.300781 94.597656 139.984375 96.027344 139.667969 C 104.425781 137.792969 101.925781 126.890625 125.207031 138.203125 C 126.765625 138.957031 109.875 138.992188 103.257812 141.910156 C 102.285156 142.335938 93.699219 146.894531 93.886719 147.9375 C 94.0625 148.894531 101.535156 149.808594 102.503906 149.882812 C 115.542969 150.867188 120.109375 134.800781 130.859375 141.207031 C 141.019531 147.273438 135.484375 141.46875 122.152344 147.898438 C 117.71875 150.035156 123.164062 153.34375 124.007812 149.359375 C 124.257812 148.191406 124.171875 147.875 124.734375 147.667969 C 137.175781 143.054688 138.300781 145.589844 141.160156 147.734375 C 142.949219 149.078125 144.085938 150.710938 144.972656 149.265625 C 147.785156 144.695312 137.960938 145.328125 135.976562 135.429688 C 135.132812 131.210938 136.195312 128.285156 135.699219 123.230469 C 135.230469 118.464844 131.121094 111.917969 130.113281 113.511719 C 124.199219 122.828125 133.410156 135.015625 137.882812 141.628906 C 137.519531 141.605469 125.335938 136.011719 124.75 135.402344 C 116.769531 127.070312 118.617188 124.328125 118.78125 122.609375 C 118.921875 121.089844 117.597656 120 116.746094 120.84375 C 113.757812 123.792969 123.453125 135.046875 122.945312 134.855469 C 115.53125 132.132812 110.613281 133.078125 106.21875 121.828125 C 103.714844 115.433594 100.625 108.710938 92.839844 105.683594 C 91.71875 105.246094 91.898438 106.417969 92.058594 107.230469 C 94.839844 121.863281 99.210938 124.789062 109.59375 130.816406 C 107.761719 131.320312 115.449219 131.128906 93.207031 127.847656 C 87.34375 126.984375 82.589844 118 82.152344 117.511719 C 80.550781 115.710938 78.347656 116.730469 79.292969 118.25 C 80.421875 120.070312 82.132812 119.34375 84.726562 122.65625 C 90.667969 130.257812 94.660156 126.445312 83.136719 127.5625 C 66.898438 129.140625 65.945312 115.757812 54.925781 114.265625 C 46.882812 113.179688 48.296875 115.003906 49.929688 117.421875 Z M 46.980469 125.652344 C 44.589844 124.371094 47.753906 122.789062 49.863281 126.417969 C 48.859375 126.171875 47.863281 126.125 46.980469 125.652344 Z M 42.339844 131.769531 C 39.203125 130.957031 38.101562 131.386719 37.863281 127.730469 C 42.273438 129.398438 41.773438 129.988281 42.339844 131.769531 Z M 38.167969 130.695312 C 34.082031 129.730469 34.285156 129.984375 33.867188 126.648438 C 38.054688 127.691406 36.96875 126.660156 38.167969 130.695312 Z M 33.90625 129.488281 C 30.121094 128.113281 30.851562 128.9375 30.234375 126.574219 C 33.996094 126.417969 33.214844 126.195312 33.90625 129.488281 Z M 27.078125 127.625 C 27.140625 127.578125 28.394531 128.234375 28.460938 128.269531 C 27.859375 128.707031 28.164062 128.816406 27.078125 127.625 Z M 27.570312 126.832031 C 30.101562 126.535156 29.585938 126.179688 30.089844 128.089844 C 29.175781 127.632812 28.328125 127.210938 27.570312 126.832031 Z M 28.332031 129.03125 C 29.273438 128.339844 28.53125 128.324219 31.941406 129.660156 C 30.414062 130.941406 31.214844 130.976562 28.332031 129.03125 Z M 31.34375 130.964844 C 31.160156 130.882812 32.507812 129.839844 32.703125 129.898438 C 36.863281 131.140625 36.675781 130.566406 34.546875 132.304688 C 34.375 132.445312 34.40625 132.417969 31.34375 130.964844 Z M 35.0625 132.675781 C 35.058594 132.546875 34.871094 132.714844 36.707031 131.1875 C 36.8125 131.097656 36.726562 131.105469 40.117188 132.011719 C 38.261719 133.660156 38.992188 133.480469 35.0625 132.675781 Z M 39.441406 133.3125 C 41.15625 131.8125 40 131.953125 44.730469 133.183594 C 44.707031 133.335938 39.480469 133.464844 39.441406 133.3125 Z M 42.402344 130.171875 C 46.199219 132.917969 46.101562 132.742188 46.066406 132.871094 C 42.285156 131.722656 43.0625 132.496094 42.402344 130.171875 Z M 33.359375 142.679688 C 29.664062 144.140625 30.632812 144.230469 29.097656 142.867188 C 30.570312 142.800781 32.078125 142.738281 33.359375 142.679688 Z M 27.742188 142.691406 C 27.921875 142.710938 27.644531 142.542969 29.75 144.050781 C 29.578125 144.152344 24.3125 146.304688 24 146.070312 C 23.875 145.976562 19.578125 142.746094 19.441406 142.53125 C 22.96875 142.292969 23.027344 142.183594 27.742188 142.691406 Z M 18.851562 142.847656 C 24.53125 147.070312 24.230469 146.257812 21.167969 147.101562 C 19.074219 147.675781 19.027344 147.703125 18.734375 147.46875 C 13.8125 143.503906 14.289062 143.949219 14.199219 143.796875 C 14.78125 143.507812 18.261719 142.410156 18.851562 142.847656 Z M 18.175781 147.699219 C 18.328125 147.820312 18.742188 147.8125 14.328125 148.445312 C 13.976562 148.496094 14.257812 148.632812 9.988281 145.550781 C 14.351562 143.476562 12.550781 143.1875 18.175781 147.699219 Z M 13.234375 148.589844 C 7.945312 149.21875 9.253906 149.417969 6.683594 147.511719 C 10.257812 145.324219 8.804688 145.304688 13.234375 148.589844 Z M 3.625 149.855469 C 3.972656 149.429688 4.050781 149.414062 4.324219 149.710938 C 4.09375 149.761719 3.875 149.804688 3.625 149.855469 Z M 4.421875 149.140625 C 6.683594 147.519531 5.773438 147.503906 8.058594 149.183594 C 4.472656 149.699219 5.460938 149.667969 4.421875 149.140625 Z M 3.75 150.746094 C 3.761719 150.613281 3.515625 150.6875 6.046875 150.34375 C 5.546875 151.429688 6.054688 151.289062 3.75 150.746094 Z M 6.148438 151.363281 C 6.886719 149.878906 5.914062 150.367188 11.246094 149.746094 C 10.070312 152.605469 11.035156 152.175781 6.148438 151.363281 Z M 10.867188 152.09375 C 12.089844 149.085938 10.957031 149.808594 16.054688 149.179688 C 16.007812 149.050781 16.136719 149.066406 14.988281 151.925781 C 14.808594 152.371094 11.367188 152.148438 10.867188 152.09375 Z M 19.820312 151.078125 C 14.433594 152.933594 15.578125 151.792969 16.046875 150.617188 C 16.855469 148.585938 16.109375 149.15625 20.871094 148.074219 C 20.847656 148.203125 20.109375 150.980469 19.820312 151.078125 Z M 31.746094 144.015625 C 32.410156 143.757812 28.480469 146.867188 25.867188 148.402344 C 26.441406 145.566406 26.046875 146.304688 31.746094 144.015625 Z M 25.902344 146.40625 C 25.320312 148.28125 25.855469 149.171875 20.578125 150.828125 C 20.902344 149.8125 21.195312 148.886719 21.503906 147.960938 C 21.589844 147.699219 25.757812 146.386719 25.902344 146.40625 Z M 41.867188 144.851562 C 42.050781 145.542969 41.648438 146.839844 40.816406 147.085938 C 39.664062 147.417969 40.230469 144.859375 41.867188 144.851562 Z M 53.765625 140.511719 C 52.082031 143.351562 52.925781 142.808594 49.703125 143.105469 C 52.152344 140.355469 51.457031 140.796875 53.765625 140.511719 Z M 47.1875 146.671875 C 49.464844 143.121094 48.816406 143.726562 51.941406 143.429688 C 51.972656 143.453125 52.007812 143.476562 52.039062 143.496094 C 48.863281 146.730469 52.425781 146.175781 47.1875 146.671875 Z M 45.914062 150.109375 C 45.953125 149.789062 46.765625 147.710938 46.878906 147.414062 C 46.988281 147.132812 49.71875 146.921875 49.785156 147.050781 C 47.292969 150.441406 48.289062 149.816406 45.914062 150.109375 Z M 45.242188 152.808594 C 45.835938 150.25 45.285156 150.71875 47.214844 150.484375 C 45.101562 153.109375 45.367188 152.863281 45.242188 152.808594 Z M 45.117188 154.148438 C 45.039062 154.050781 44.894531 154.277344 46.550781 152.414062 C 46.835938 153.472656 47.035156 153.132812 45.117188 154.148438 Z M 49.648438 151.265625 C 49.449219 151.410156 47.378906 152.917969 47.230469 152.925781 C 46.894531 151.605469 46.558594 152.414062 49.207031 149.269531 C 49.734375 151.070312 49.792969 151.164062 49.648438 151.265625 Z M 52.140625 148.96875 C 52.039062 149.066406 50.382812 150.722656 50.222656 150.757812 C 49.355469 148.183594 49.09375 149.394531 51.320312 146.269531 C 51.5625 146.890625 52.332031 148.773438 52.140625 148.96875 Z M 52.667969 148.335938 C 52.238281 147.25 51.628906 145.777344 51.753906 145.558594 C 51.839844 145.417969 53.285156 142.9375 53.457031 142.820312 C 54.445312 145.328125 55.351562 144.816406 52.667969 148.335938 Z M 55.921875 141.394531 C 54.621094 145.402344 55.125 145.171875 53.789062 142.378906 C 53.703125 142.199219 53.6875 142.296875 55.203125 139.800781 C 55.992188 141.296875 55.980469 141.214844 55.921875 141.394531 Z M 56.160156 140.453125 C 55.390625 139.089844 55.179688 139.863281 57.210938 137.066406 C 57.339844 137.128906 57.304688 136.925781 56.160156 140.453125 Z M 56.042969 137.261719 C 54.210938 140.457031 53.847656 139.957031 52.59375 140.132812 C 52.5 139.980469 55.933594 137.15625 56.042969 137.261719 Z M 66.339844 139.023438 C 65.328125 141.921875 63.707031 141.671875 64.390625 140.566406 C 64.648438 140.148438 66.210938 138.890625 66.339844 139.023438 Z M 98.035156 137.914062 C 97.15625 138.582031 96.023438 139.386719 94.976562 139.042969 C 95.457031 138.136719 95.914062 138.175781 98.035156 137.914062 Z M 123.328125 148.316406 C 122.945312 149.582031 122.773438 151.070312 121.476562 150.472656 C 120.035156 149.8125 122.621094 148.40625 123.328125 148.316406 Z M 135.003906 124.03125 C 135.070312 129.859375 135.183594 128.652344 133.496094 130.496094 C 132.542969 126.3125 132.605469 126.285156 132.863281 126.039062 C 135.171875 123.792969 134.835938 123.988281 135.003906 124.03125 Z M 132.632812 125.558594 C 132.601562 125.546875 132.570312 125.539062 132.542969 125.527344 C 131.921875 120.605469 131.660156 121.949219 134.058594 119.320312 C 135.300781 123.808594 135.347656 122.765625 132.632812 125.558594 Z M 133.714844 118.585938 C 133.808594 118.796875 133.679688 118.863281 132.011719 120.84375 C 130.71875 115.25 132.199219 115 133.714844 118.585938 Z M 131.910156 115.621094 C 131.148438 116.441406 131.367188 116.609375 130.996094 114.660156 C 131.074219 114.605469 131.851562 115.554688 131.910156 115.621094 Z M 130.113281 114.9375 C 130.308594 114.957031 130.203125 114.566406 130.691406 118.445312 C 128.957031 117.8125 129.152344 118.542969 130.113281 114.9375 Z M 129.152344 122.507812 C 129.054688 121.175781 129.058594 119.851562 129.265625 118.488281 C 131.074219 119.144531 130.613281 118.125 131.175781 123.230469 C 131.1875 123.390625 129.175781 122.796875 129.152344 122.507812 Z M 129.242188 123.257812 C 131.300781 123.902344 131.25 123.851562 131.277344 124.023438 C 132.058594 128.796875 132.179688 127.722656 130.894531 127.523438 C 129.765625 127.347656 129.25 123.382812 129.242188 123.257812 Z M 130.53125 127.976562 C 132.132812 128.394531 132.03125 128.335938 132.09375 128.53125 C 133.683594 133.585938 133.519531 133.0625 133.527344 133.222656 C 132.40625 131.527344 131.316406 129.882812 130.53125 127.976562 Z M 134.792969 129.867188 C 134.792969 131.300781 134.792969 132.71875 134.792969 134.03125 C 133.394531 130.480469 133.511719 131.261719 134.792969 129.867188 Z M 135.796875 142.34375 C 136.414062 142.652344 144.777344 146.664062 143.917969 148.1875 C 139.875 144.640625 134.148438 141.503906 135.796875 142.34375 Z M 113.246094 142.628906 C 112.730469 142.832031 110.9375 141.25 111.023438 140.988281 C 120.558594 140.417969 120.5625 139.773438 113.246094 142.628906 Z M 110.042969 141.210938 C 110.34375 141.164062 110.195312 141.089844 112.316406 143.035156 C 106.929688 144.945312 108.539062 145.058594 105.007812 142.574219 C 105.679688 142.207031 107.855469 141.535156 110.042969 141.210938 Z M 99.246094 145.429688 C 104.847656 142.097656 104.3125 142.46875 107.273438 144.851562 C 100.558594 147.050781 101.660156 146.726562 99.246094 145.429688 Z M 97.265625 146.675781 C 98.863281 145.660156 98.574219 145.355469 100.402344 146.777344 C 95.371094 147.636719 95.5625 147.753906 97.265625 146.675781 Z M 117.605469 141.757812 C 107.976562 150.121094 109.609375 147.582031 110.28125 144.851562 C 110.34375 144.585938 117.367188 141.800781 117.605469 141.757812 Z M 109.699219 144.925781 C 109.128906 147.496094 109.695312 148.511719 104.742188 148.785156 C 105.796875 146.035156 105.023438 146.5 109.699219 144.925781 Z M 103.980469 148.828125 C 101.289062 148.832031 98.007812 148.214844 97.871094 148.066406 C 100.296875 147.78125 102.648438 147.289062 105.011719 146.582031 C 104.199219 148.925781 104.210938 148.824219 103.980469 148.828125 Z M 117.078125 121.808594 C 117.167969 120.875 117.921875 121.453125 117.9375 122.269531 C 118.023438 127.03125 116.953125 123.289062 117.078125 121.808594 Z M 107.992188 127.984375 C 106.039062 125.992188 106.179688 126.398438 106.414062 125.339844 C 108.003906 127.933594 108.085938 127.855469 107.992188 127.984375 Z M 103.898438 119.3125 C 107.3125 127.957031 106.195312 126.246094 103.152344 122.558594 C 102.90625 122.257812 103.765625 119.328125 103.898438 119.3125 Z M 103.449219 118.648438 C 103.410156 118.804688 102.699219 121.5625 102.566406 121.773438 C 99.472656 117.050781 99.855469 118.414062 101.15625 114.414062 C 101.367188 113.742188 103.53125 118.328125 103.449219 118.648438 Z M 100.484375 113.023438 C 101.289062 114.027344 100.058594 115.03125 99.773438 117.054688 C 99.660156 117.039062 97.476562 113.164062 97.535156 112.960938 C 98.355469 110.207031 97.949219 109.875 100.484375 113.023438 Z M 97.117188 112.46875 C 95.179688 109.464844 94.800781 109.316406 95.355469 108.4375 C 97.808594 110.730469 98.367188 109.054688 97.117188 112.46875 Z M 93.824219 107.480469 C 95.03125 108.273438 94.875 107.992188 94.664062 108.714844 C 93.691406 107.40625 93.765625 107.5625 93.824219 107.480469 Z M 93.292969 108.265625 C 93.421875 108.199219 93.210938 107.964844 94.976562 110.652344 C 93.445312 110.527344 93.84375 110.980469 93.292969 108.265625 Z M 95.242188 115.230469 C 94.964844 114.382812 93.960938 111.351562 93.925781 111.09375 C 95.011719 111.191406 95.25 111.175781 95.339844 111.339844 C 95.6875 111.953125 97.632812 115.390625 97.652344 115.558594 C 95.269531 115.390625 95.3125 115.441406 95.242188 115.230469 Z M 97.816406 120.324219 C 94.316406 114.90625 95.824219 116.050781 97.402344 116.054688 C 97.988281 116.054688 98.042969 115.945312 100.5 120.363281 C 97.960938 120.429688 97.910156 120.46875 97.816406 120.324219 Z M 101.1875 124.085938 C 96.886719 120.359375 98.34375 120.964844 100.675781 120.851562 C 100.878906 120.839844 100.742188 120.722656 103.105469 123.957031 C 101.292969 124.195312 101.339844 124.21875 101.1875 124.085938 Z M 101.839844 124.671875 C 104.070312 124.332031 102.886719 123.710938 107.460938 128.464844 C 105.488281 127.367188 103.660156 126.101562 101.839844 124.671875 Z M 75.152344 137.839844 C 75.148438 137.792969 75.148438 137.746094 75.144531 137.699219 C 78.636719 135.300781 77.34375 135.625 81.324219 137.191406 C 77.507812 139.546875 78.808594 139.332031 75.152344 137.839844 Z M 77.578125 139.429688 C 72.9375 141.804688 73.714844 141.585938 72.273438 140.804688 C 75.28125 137.480469 73.9375 137.816406 77.578125 139.429688 Z M 71.160156 142.394531 C 72.164062 141.042969 71.785156 141.171875 72.8125 141.679688 C 71.023438 142.535156 71.222656 142.480469 71.160156 142.394531 Z M 71.429688 143.15625 C 76.433594 140.984375 75.78125 140.933594 75.722656 142.378906 C 75.714844 142.660156 71.558594 143.195312 71.429688 143.15625 Z M 76.265625 142.398438 C 76.265625 141.953125 76.253906 141.550781 76.265625 141.144531 C 76.273438 140.902344 79.746094 139.054688 79.875 139.023438 C 80.175781 140.773438 81.074219 141.152344 76.265625 142.398438 Z M 83.628906 138.613281 C 80.484375 140.894531 80.816406 140.6875 80.683594 140.589844 C 80.25 138.097656 79.730469 139.070312 83.496094 136.695312 C 83.628906 136.613281 83.851562 138.453125 83.628906 138.613281 Z M 84.261719 138.035156 C 84.015625 135.761719 83.167969 136.824219 88.773438 133.625 C 88.921875 133.824219 84.417969 138.089844 84.261719 138.035156 Z M 79.070312 135.703125 C 78.46875 135.453125 78.046875 135.664062 83.640625 133.804688 C 83.882812 133.722656 83.828125 133.734375 85.472656 134.574219 C 81.210938 137.21875 82.457031 137.117188 79.070312 135.703125 Z M 88.832031 132.867188 C 85.554688 134.53125 86.46875 134.453125 84.761719 133.621094 C 84.777344 133.445312 88.816406 132.761719 88.832031 132.867188 Z M 80.425781 118.40625 C 78.914062 117.378906 80.863281 116.59375 82.605469 119.617188 C 82.492188 119.796875 80.550781 118.492188 80.425781 118.40625 Z M 49.816406 115.746094 C 49.949219 115.585938 52.480469 117.101562 52.449219 117.207031 C 50.664062 117.65625 51.234375 117.933594 49.816406 115.746094 Z M 53.550781 120.257812 C 50.6875 117.394531 51.132812 118.230469 52.53125 117.726562 C 53.257812 117.460938 53.375 117.71875 56.21875 119.484375 C 55.304688 119.75 54.464844 119.992188 53.550781 120.257812 Z M 54.101562 120.640625 C 57.492188 119.648438 55.960938 119.289062 60.203125 121.839844 C 57.777344 122.796875 57.507812 123.621094 54.101562 120.640625 Z M 61.984375 124.640625 C 61.734375 124.738281 58.320312 123.359375 58.144531 123.222656 C 60.550781 122.273438 60.707031 122.160156 60.921875 122.269531 C 64.804688 124.210938 64.449219 123.695312 61.984375 124.640625 Z M 64.824219 124.210938 C 68.328125 125.570312 67.941406 125.425781 68.105469 125.53125 C 58.960938 124.835938 64.695312 124.160156 64.824219 124.210938 Z M 69.160156 125.222656 C 66.359375 124.109375 66.835938 124.671875 66.734375 123.058594 C 69.308594 125.28125 69.234375 125.09375 69.160156 125.222656 Z M 66.28125 124.097656 C 62.542969 122.261719 63.25 123.277344 63.363281 119.980469 C 66.628906 122.472656 66.152344 122.636719 66.28125 124.097656 Z M 59.617188 117.042969 C 63.414062 119.910156 62.78125 118.738281 62.800781 122.277344 C 62.652344 122.351562 62.984375 122.550781 59.640625 120.503906 C 59.46875 120.402344 59.203125 116.734375 59.617188 117.042969 Z M 58.597656 116.410156 C 58.960938 116.609375 59 119.574219 58.996094 120.078125 C 58.863281 120.011719 55.4375 118.136719 55.421875 117.691406 C 55.332031 115.339844 54.527344 114.15625 58.597656 116.410156 Z M 54.742188 115.035156 C 54.933594 117.960938 55.019531 117.703125 54.636719 117.480469 C 52.371094 116.148438 52.203125 116.183594 52.203125 115.761719 C 52.195312 114.53125 51.578125 114.785156 54.742188 115.035156 Z M 51.609375 114.882812 C 51.707031 115.972656 51.957031 115.886719 50.320312 115.050781 C 50.320312 114.953125 50.191406 115 51.609375 114.882812 Z M 51.609375 114.882812 " fill-opacity="1" fill-rule="nonzero"/><path fill="#fff7ad" d="M 154.46875 1.015625 C 146.367188 9.117188 144.742188 18.003906 145.585938 26.554688 C 146.527344 36.152344 142.457031 40.832031 139.097656 49.164062 C 138.039062 45.882812 138.761719 43.707031 138.769531 39.171875 C 138.777344 31.953125 133.480469 26.046875 131.21875 25.128906 C 129.984375 24.625 129.808594 29.691406 129.761719 31.035156 C 129.4375 40.75 137.398438 44.617188 138.015625 51.644531 C 138.050781 52.042969 138.199219 50.960938 135.707031 58.820312 C 135.359375 59.894531 136.113281 55.800781 131.863281 50.320312 C 130.714844 48.84375 130.832031 44.023438 128.394531 44.730469 C 127.035156 45.125 126.414062 47.792969 130.460938 50.296875 C 132.742188 51.707031 135.808594 58.273438 134.71875 62.703125 C 130.996094 77.789062 132.917969 77.707031 130.945312 70.671875 C 130.167969 67.898438 131.574219 56.160156 121.425781 49.195312 C 119.019531 47.546875 117.203125 46.113281 118.234375 54.167969 C 119.644531 65.1875 133.019531 66.265625 131.324219 82.476562 C 130.121094 93.953125 133.957031 90.019531 126.40625 84.027344 C 123.160156 81.449219 123.824219 79.6875 122.039062 78.5625 C 120.554688 77.625 119.46875 79.78125 121.277344 81.414062 C 121.703125 81.800781 130.726562 86.773438 131.535156 92.550781 C 134.757812 115.570312 134.953125 106.9375 134.382812 108.953125 C 128.523438 98.6875 125.785156 94.183594 110.929688 91.246094 C 110.066406 91.074219 108.941406 90.878906 109.375 92.015625 C 112.3125 99.683594 118.746094 102.847656 125.421875 105.511719 C 142.101562 112.171875 131.910156 119.570312 149.210938 143.90625 C 150.851562 146.203125 153.929688 144.308594 152.871094 142.914062 C 148.574219 137.257812 147.699219 137.652344 149.042969 130.851562 C 151.1875 120.003906 152.785156 125.300781 154.484375 122.484375 C 156.054688 119.871094 149.519531 114.824219 147.742188 135.589844 C 143.277344 129.667969 141.296875 123.277344 146.230469 117.703125 C 154.042969 108.871094 154.832031 105.632812 152.148438 93.976562 C 151.96875 93.203125 151.21875 93.191406 150.875 93.738281 C 140.511719 110.28125 145.324219 104.4375 141.769531 124.8125 C 130.253906 105.738281 142.335938 99.777344 143.332031 95.457031 C 143.664062 94.027344 142.980469 93.515625 142.242188 93.898438 C 140.820312 94.636719 141.136719 96.179688 140.800781 97.335938 C 139.886719 100.480469 137.257812 101.753906 136.09375 107.957031 C 135.996094 108.472656 134.59375 100.855469 134.351562 99.558594 C 133.023438 92.625 136.0625 91.28125 142.5 84.261719 C 148.0625 78.203125 148.320312 68.804688 147.90625 68.539062 C 147.320312 68.164062 139.769531 72.070312 137.175781 80.3125 C 135.757812 84.808594 135.5625 91.675781 133.464844 94.027344 C 132.4375 86.894531 133.441406 82.453125 134.410156 74.824219 C 134.964844 70.46875 145.023438 65.472656 145.34375 65.0625 C 146.902344 63.078125 144.761719 61.480469 142.550781 64.742188 C 140.359375 67.980469 138.210938 67.554688 134.925781 72.261719 C 134.464844 72.914062 136.871094 61.460938 137.179688 61.117188 C 142.804688 54.78125 149.507812 58.429688 155.5625 50.460938 C 161.558594 42.566406 158.921875 43.328125 156.46875 43.859375 C 143.816406 46.617188 139.6875 56.886719 137.957031 58.0625 C 138.316406 56.902344 141.007812 48.285156 141.78125 47.347656 C 148.511719 39.183594 151.671875 43.597656 151.914062 40.144531 C 152.082031 37.800781 148.082031 38.886719 148.011719 41.113281 C 148.007812 41.464844 146.277344 41.789062 142.359375 45.445312 C 145.917969 31.402344 161.4375 24.941406 156.792969 5.769531 C 155.695312 1.234375 155.472656 0.0078125 154.46875 1.015625 Z M 137.226562 44.113281 C 136.03125 39.367188 135.882812 40.527344 137.394531 38.824219 C 137.542969 38.863281 137.378906 44.089844 137.226562 44.113281 Z M 136.789062 34.441406 C 137.566406 38.375 137.75 37.648438 136.089844 39.492188 C 135.207031 36.09375 135.199219 36.175781 135.289062 36.070312 C 136.828125 34.246094 136.660156 34.4375 136.789062 34.441406 Z M 135.105469 30.710938 C 136.90625 34.574219 136.882812 33.390625 135.078125 35.496094 C 134.972656 35.351562 134.242188 32.800781 134.027344 32.058594 C 133.972656 31.867188 135.019531 30.527344 135.105469 30.710938 Z M 133.796875 31.296875 C 132.484375 27.878906 132.496094 28.621094 133.195312 27.683594 C 135.117188 30.582031 135.085938 29.777344 133.796875 31.296875 Z M 131.796875 26.417969 C 132.980469 27.511719 132.875 27.207031 132.433594 27.808594 C 132.398438 27.738281 131.75 26.480469 131.796875 26.417969 Z M 131.003906 26.902344 C 131.375 27.664062 131.792969 28.515625 132.242188 29.433594 C 130.332031 28.914062 130.6875 29.433594 131.003906 26.902344 Z M 130.722656 29.570312 C 133.082031 30.203125 132.261719 29.464844 133.609375 33.261719 C 130.324219 32.546875 130.539062 33.328125 130.722656 29.570312 Z M 131.550781 36.421875 C 130.570312 32.425781 130.074219 33.015625 133.527344 33.839844 C 133.972656 33.945312 134.757812 37.402344 134.785156 37.527344 C 131.480469 36.519531 131.59375 36.589844 131.550781 36.421875 Z M 133.617188 40.804688 C 131.589844 36.886719 131.769531 37.164062 131.960938 37.214844 C 135.683594 38.285156 134.714844 37.296875 135.828125 41.707031 C 134.015625 41.121094 133.769531 41.089844 133.617188 40.804688 Z M 134.230469 41.761719 C 136.550781 42.4375 135.78125 41.65625 136.902344 45.445312 C 136.773438 45.46875 136.988281 45.636719 134.230469 41.761719 Z M 129.675781 46.304688 C 130.144531 47.191406 130.1875 48.191406 130.421875 49.195312 C 126.808594 47.058594 128.417969 43.90625 129.675781 46.304688 Z M 129.402344 67.429688 C 129.300781 67.273438 128.015625 64.074219 128.078125 63.898438 C 128.75 62.167969 128.90625 60.140625 129.402344 67.429688 Z M 128.5625 61.066406 C 128.625 61.226562 128.613281 61.175781 127.769531 63.265625 C 127.613281 63.109375 126.269531 60.382812 126.191406 60.222656 C 126.09375 60.019531 126.214844 59.820312 126.710938 58.585938 C 127.34375 57.011719 126.929688 56.621094 128.5625 61.066406 Z M 125.769531 59.5 C 123.25 55.238281 123.597656 56.773438 124.617188 53.390625 C 127.660156 56.960938 126.75 57.066406 125.769531 59.5 Z M 124.234375 52.835938 C 123.171875 56.410156 123.898438 55.980469 121.898438 52.988281 C 121.472656 52.351562 121.613281 52.222656 122.027344 50.597656 C 122.820312 51.402344 123.546875 52.132812 124.234375 52.835938 Z M 119.753906 49.066406 C 121.929688 50.503906 121.65625 49.929688 121.195312 51.714844 C 121.082031 51.738281 119.59375 49.195312 119.753906 49.066406 Z M 118.875 50.855469 C 119 49.453125 118.921875 49.570312 119.050781 49.566406 C 119.886719 51.234375 119.976562 50.960938 118.875 50.855469 Z M 119.003906 53.988281 C 118.785156 50.820312 118.511719 51.441406 119.75 51.453125 C 120.140625 51.457031 120.046875 51.46875 121.453125 53.902344 C 121.675781 54.289062 121.914062 54.203125 119.003906 53.988281 Z M 120.539062 58 C 120.070312 57.914062 119.269531 55.230469 119.140625 54.535156 C 121.949219 54.710938 121.886719 54.617188 122.074219 54.9375 C 124.179688 58.574219 125.265625 58.84375 120.539062 58 Z M 123.21875 61.875 C 123.101562 61.722656 121.074219 59.042969 120.851562 58.671875 C 125.246094 58.8125 123.898438 57.996094 126.246094 61.984375 C 126.160156 62.15625 123.449219 62.183594 123.21875 61.875 Z M 126.164062 65.226562 C 123.308594 62.128906 123.304688 62.632812 126.332031 62.585938 C 126.617188 62.582031 126.550781 62.628906 127.984375 65.597656 C 126.84375 65.488281 126.417969 65.507812 126.164062 65.226562 Z M 126.941406 66.039062 C 128.554688 66.152344 127.992188 65.671875 129.085938 68.484375 C 128.957031 68.550781 129.144531 68.636719 126.941406 66.039062 Z M 121.59375 80.355469 C 120.996094 79.382812 120.953125 77.628906 123.492188 81.820312 C 123.121094 82.046875 121.835938 80.75 121.59375 80.355469 Z M 127.714844 100.5 C 127.847656 100.652344 127.824219 100.605469 127.570312 102.417969 C 123.6875 99.53125 124.425781 100.746094 124.632812 97.597656 C 124.796875 97.628906 126.148438 98.664062 127.714844 100.5 Z M 123.996094 99.785156 C 119.058594 96.992188 119.777344 97.65625 119.617188 94.769531 C 125.195312 97.1875 124.085938 97.121094 123.996094 99.785156 Z M 114.9375 93.164062 C 119.078125 94.542969 119.054688 94.5 119.066406 94.648438 C 119.234375 96.917969 119.238281 96.957031 119.109375 96.886719 C 114.710938 94.398438 114.90625 94.554688 114.878906 94.339844 C 114.738281 93.035156 114.75 93.105469 114.9375 93.164062 Z M 111.160156 93.015625 C 111.25 92.960938 111.082031 92.875 112.390625 93.863281 C 111.667969 94.070312 111.953125 94.230469 111.160156 93.015625 Z M 114.09375 92.945312 C 114.277344 92.988281 114.257812 93.226562 114.328125 94.191406 C 111.253906 92.140625 111.066406 92.265625 114.09375 92.945312 Z M 113.761719 96.878906 C 112.101562 94.460938 110.566406 92.699219 116.125 96.34375 C 113.953125 97.117188 113.921875 97.113281 113.761719 96.878906 Z M 116.660156 99.714844 C 113.523438 97.15625 113.851562 97.566406 116.617188 96.765625 C 116.816406 96.710938 120.679688 98.921875 120.695312 99.03125 C 118.730469 99.292969 117.648438 100.523438 116.660156 99.714844 Z M 118.042969 100.398438 C 122.050781 99.125 120.667969 98.714844 125.390625 101.863281 C 125.179688 101.992188 122.417969 102.683594 122.257812 102.722656 C 121.945312 102.800781 117.367188 100.613281 118.042969 100.398438 Z M 122.921875 103.175781 C 122.9375 103.050781 125.871094 102.199219 126.171875 102.453125 C 129.789062 105.472656 131.664062 106.699219 122.921875 103.175781 Z M 128.296875 101.15625 C 129.710938 102.984375 130.964844 104.824219 132.046875 106.804688 C 127.328125 102.195312 127.9375 103.382812 128.296875 101.15625 Z M 128.929688 105.738281 C 129.992188 105.507812 129.585938 105.367188 131.5625 107.332031 C 131.4375 107.417969 131.605469 107.402344 128.929688 105.738281 Z M 153.953125 120.984375 C 154.539062 122.285156 153.019531 122.453125 151.78125 122.820312 C 151.867188 122.195312 153.273438 119.476562 153.953125 120.984375 Z M 151.503906 143.40625 C 150.027344 144.226562 145.472656 135.117188 145.714844 134.980469 C 147.402344 137.953125 149.257812 140.808594 151.503906 143.40625 Z M 145.265625 117.046875 C 145.308594 116.808594 148.148438 109.808594 148.414062 109.746094 C 151.207031 109.074219 154.003906 107.128906 145.265625 117.046875 Z M 148.492188 109.164062 C 150.101562 104.5 149.628906 105.269531 152.386719 104.234375 C 152.070312 109.199219 151.066406 108.613281 148.492188 109.164062 Z M 152.433594 103.472656 C 152.429688 103.707031 152.53125 103.691406 150.183594 104.488281 C 150.90625 102.128906 151.414062 99.78125 151.71875 97.359375 C 151.867188 97.496094 152.460938 100.78125 152.433594 103.472656 Z M 151.15625 95.710938 C 150.222656 100.914062 150.703125 100.386719 149.496094 98.496094 C 149.246094 98.105469 151.003906 95.664062 151.15625 95.710938 Z M 149.070312 98.714844 C 150.351562 101.140625 150.683594 100.039062 148.433594 106.738281 C 146.074219 103.761719 145.5625 104.523438 149.070312 98.714844 Z M 144.773438 109.484375 C 145.117188 107.292969 145.804688 105.125 146.175781 104.453125 C 148.632812 108.003906 148.53125 106.394531 146.582031 111.765625 C 144.652344 109.628906 144.726562 109.78125 144.773438 109.484375 Z M 144.714844 110.402344 C 146.734375 112.886719 146.777344 111.308594 144.117188 117.933594 C 144 117.898438 144.417969 110.5 144.714844 110.402344 Z M 142.71875 94.398438 C 143.054688 95.445312 142.242188 96.574219 141.566406 97.449219 C 141.84375 95.328125 141.804688 94.875 142.71875 94.398438 Z M 142.589844 79.796875 C 144.515625 80.117188 144.355469 80.089844 144.4375 80.21875 C 141.855469 83.761719 142.859375 83.261719 140.464844 82.984375 C 140.449219 82.859375 142.371094 79.761719 142.589844 79.796875 Z M 146.210938 75.714844 C 144.933594 80.492188 144.558594 79.613281 142.804688 79.296875 C 142.839844 79.167969 144.714844 75.707031 144.957031 75.703125 C 145.359375 75.695312 145.765625 75.707031 146.210938 75.714844 Z M 146.382812 75.027344 C 146.347656 75.21875 146.089844 75.179688 145.105469 75.167969 C 147.484375 69.792969 147.355469 69.171875 146.382812 75.027344 Z M 145.117188 71.429688 C 146.367188 70.515625 146.214844 70.585938 146.296875 70.648438 C 145.359375 72.582031 145.617188 72.46875 145.117188 71.429688 Z M 144.648438 71.707031 C 145.414062 73.15625 145.640625 72.382812 143.230469 77.003906 C 141.644531 73.355469 141.296875 74.6875 144.648438 71.707031 Z M 141.519531 74.558594 C 141.566406 74.558594 141.613281 74.5625 141.660156 74.566406 C 143.125 78.234375 143.347656 76.933594 140.964844 80.734375 C 139.425781 76.742188 139.09375 78.03125 141.519531 74.558594 Z M 139.492188 78.46875 C 140.429688 80.753906 140.785156 81.105469 140.164062 81.96875 C 137.886719 85.125 138.648438 85.652344 137.558594 83.328125 C 137.484375 83.175781 139.140625 77.601562 139.492188 78.46875 Z M 137.371094 84.144531 C 138.1875 85.855469 138.273438 84.945312 136.585938 88.210938 C 136.5 88.191406 137.199219 84.160156 137.371094 84.144531 Z M 137.34375 88.15625 C 140.59375 82.5625 139.515625 83.414062 141.789062 83.675781 C 141.84375 83.832031 137.542969 88.304688 137.34375 88.15625 Z M 142.84375 65.699219 C 145.292969 62.492188 145.457031 63.859375 145.042969 64.445312 C 144.429688 65.316406 142.96875 65.824219 142.84375 65.699219 Z M 145.355469 55.363281 C 145.171875 55.421875 145.257812 55.433594 143.765625 54.632812 C 146.277344 53.136719 146.179688 53.152344 146.355469 53.238281 C 149.140625 54.597656 149.367188 54.089844 145.355469 55.363281 Z M 152.320312 52.160156 C 148.777344 54.816406 149.296875 53.914062 146.796875 52.910156 C 146.917969 52.738281 149.40625 51.308594 149.550781 51.226562 C 149.765625 51.101562 150.824219 51.558594 152.320312 52.160156 Z M 152.953125 51.636719 C 152.757812 51.832031 150.523438 50.902344 150.261719 50.796875 C 153.402344 48.59375 152.191406 48.847656 154.761719 49.734375 C 154.722656 49.890625 153.054688 51.539062 152.953125 51.636719 Z M 155.0625 49.234375 C 154.480469 49.070312 153.902344 48.894531 153.277344 48.707031 C 159.769531 43.320312 155.402344 49.328125 155.0625 49.234375 Z M 158.1875 44.648438 C 157.15625 46.5625 157.5 46.363281 156.441406 46.074219 C 158.316406 44.429688 158.089844 44.574219 158.1875 44.648438 Z M 156.847656 44.765625 C 156.902344 44.894531 157.144531 44.636719 154.507812 46.722656 C 154.757812 44.796875 154.285156 45.34375 156.847656 44.765625 Z M 151.441406 46.363281 C 151.742188 46.25 153.824219 45.453125 154.144531 45.417969 C 153.832031 47.792969 154.464844 46.800781 151.054688 49.269531 C 150.925781 49.199219 151.160156 46.46875 151.441406 46.363281 Z M 150.695312 46.667969 C 150.167969 51.835938 150.78125 48.3125 147.484375 51.496094 C 147.464844 51.464844 147.441406 51.429688 147.417969 51.398438 C 147.738281 48.277344 147.128906 48.917969 150.695312 46.667969 Z M 147.113281 49.15625 C 146.792969 52.378906 147.339844 51.535156 144.488281 53.203125 C 144.789062 50.894531 144.34375 51.585938 147.113281 49.15625 Z M 144.117188 52.023438 C 143.929688 53.277344 144.429688 53.644531 141.222656 55.453125 C 141.152344 55.382812 143.949219 51.921875 144.117188 52.023438 Z M 141.015625 56.621094 C 143.828125 54.613281 143.054688 54.816406 144.414062 55.59375 C 140.835938 56.726562 141.089844 56.75 141.015625 56.621094 Z M 148.914062 41.335938 C 148.9375 39.492188 152.019531 39.136719 151.015625 40.609375 C 150.648438 41.148438 149.582031 41.515625 148.914062 41.335938 Z M 152.230469 5.644531 C 154.332031 2.695312 153.953125 4.53125 153.496094 7.558594 C 152.195312 5.765625 152.152344 5.753906 152.230469 5.644531 Z M 151.832031 6.171875 C 153.71875 8.753906 153.53125 7.445312 152.863281 12.730469 C 149.617188 8.285156 149.613281 9.734375 151.832031 6.171875 Z M 148.34375 12.816406 C 148.871094 11.390625 148.960938 11.285156 149.847656 9.460938 C 153.402344 14.460938 153.015625 12.625 152.046875 17.761719 C 151.917969 17.648438 148.21875 13.144531 148.34375 12.816406 Z M 147.957031 13.863281 C 148.101562 13.457031 147.777344 13.277344 151.699219 18.21875 C 151.96875 18.554688 151.949219 18.515625 150.613281 23.027344 C 146.289062 18.058594 146.519531 17.949219 147.957031 13.863281 Z M 146.859375 27.195312 C 145.664062 15.351562 146.617188 18.59375 150.265625 23.472656 C 150.496094 23.789062 148.304688 29.039062 148.203125 29.207031 C 146.726562 27.121094 146.875 27.367188 146.859375 27.195312 Z M 147.023438 28.550781 C 148.375 30.09375 148.289062 29.125 146.804688 32.8125 C 146.871094 31.527344 146.949219 30.023438 147.023438 28.550781 Z M 148.15625 31.207031 C 150.640625 25.132812 149.730469 26.160156 152.300781 25.414062 C 153.398438 25.097656 147.96875 31.664062 148.15625 31.207031 Z M 153.316406 24.019531 C 152.972656 24.808594 152.695312 24.742188 150.585938 25.382812 C 150.570312 25.234375 151.910156 21.078125 152.175781 20.992188 C 155.917969 19.785156 155.460938 19.128906 153.316406 24.019531 Z M 155.304688 19.335938 C 155.203125 19.621094 152.421875 20.339844 152.289062 20.363281 C 153.457031 15.386719 152.546875 16.40625 156.269531 15.042969 C 156.265625 15.566406 156.03125 17.269531 155.304688 19.335938 Z M 156.1875 14.503906 C 153.308594 15.640625 153.304688 15.515625 153.433594 15.554688 C 154.105469 10.417969 153.378906 11.582031 156.382812 10.386719 C 156.433594 10.886719 156.632812 14.328125 156.1875 14.503906 Z M 154.035156 10.75 C 154.691406 5.421875 154.195312 6.390625 155.6875 5.664062 C 156.464844 10.574219 156.894531 9.597656 154.035156 10.75 Z M 154.671875 5.554688 C 155.042969 2.941406 154.957031 3.273438 155.089844 3.261719 C 155.613281 5.570312 155.757812 5.0625 154.671875 5.554688 Z M 154.050781 3.828125 C 153.753906 3.550781 153.769531 3.476562 154.203125 3.128906 C 154.148438 3.378906 154.101562 3.59375 154.050781 3.828125 Z M 154.050781 3.828125 " fill-opacity="1" fill-rule="nonzero"/><path fill="#fff7ad" d="M 61.878906 129.367188 C 68.769531 139.570312 80.515625 138.246094 83.28125 139.042969 C 90.445312 141.113281 90.171875 139.207031 75.289062 142.757812 C 70.875 143.8125 64.320312 140.722656 62.914062 138.410156 C 60.4375 134.34375 57.765625 134.945312 57.363281 136.300781 C 56.632812 138.75 61.445312 138.648438 62.929688 139.8125 C 68.210938 143.972656 72.386719 143.414062 71.398438 143.71875 C 63.695312 146.101562 64.574219 146.011719 64.203125 145.976562 C 57.148438 145.304688 53.386719 137.320312 43.65625 137.570312 C 42.308594 137.605469 37.246094 137.746094 37.738281 138.984375 C 38.644531 141.253906 44.507812 146.59375 51.726562 146.636719 C 56.261719 146.664062 58.441406 145.957031 61.714844 147.042969 C 53.335938 150.347656 48.660156 154.375 39.058594 153.359375 C 30.769531 152.484375 21.789062 153.851562 13.457031 162.058594 C 12.441406 163.054688 13.667969 163.285156 18.195312 164.417969 C 37.378906 169.210938 43.757812 153.800781 57.976562 150.273438 C 54.308594 154.144531 53.953125 155.886719 53.601562 155.894531 C 52.921875 155.910156 52.453125 156.332031 52.007812 156.753906 C 48.800781 159.777344 55.214844 161.703125 54.59375 156.457031 C 54.476562 155.449219 57.347656 151.769531 59.882812 149.710938 C 60.238281 149.421875 60.027344 149.417969 67.363281 146.953125 C 77.148438 143.667969 62.25 148.984375 57.726562 159.519531 C 57.222656 160.699219 54.875 167.65625 56.679688 167.121094 C 66.707031 164.140625 68.847656 154.355469 69.414062 152.527344 C 71.96875 144.238281 72.988281 145.175781 81.84375 143.425781 C 88.160156 142.175781 83.433594 142.609375 79.714844 148.292969 C 78.605469 149.988281 77.523438 150.207031 75.808594 151.792969 C 75.023438 152.519531 75.316406 154.207031 76.527344 153.929688 C 80.796875 152.945312 78.53125 137.480469 106.621094 141.738281 C 103.398438 144.570312 94.5 143.398438 88.105469 147.4375 C 85.339844 149.1875 78.523438 156.792969 81.898438 156.242188 C 109.660156 151.714844 93.578125 137.46875 120.722656 144.410156 C 111.703125 147.148438 113.046875 148.199219 109.875 149.097656 C 108.714844 149.425781 107.175781 149.09375 106.425781 150.515625 C 106.039062 151.246094 106.542969 151.933594 107.976562 151.613281 C 116.371094 149.738281 113.871094 138.839844 137.152344 150.152344 C 138.714844 150.902344 121.820312 150.941406 115.203125 153.855469 C 114.234375 154.285156 105.644531 158.839844 105.835938 159.886719 C 106.011719 160.839844 113.480469 161.757812 114.453125 161.832031 C 127.488281 162.8125 132.058594 146.75 142.808594 153.15625 C 152.964844 159.222656 147.433594 153.414062 134.097656 159.847656 C 129.664062 161.980469 135.113281 165.292969 135.953125 161.304688 C 136.203125 160.140625 136.121094 159.824219 136.683594 159.613281 C 149.125 155.003906 150.246094 157.535156 153.109375 159.683594 C 154.898438 161.023438 156.035156 162.65625 156.917969 161.210938 C 159.734375 156.644531 149.910156 157.277344 147.925781 147.375 C 147.078125 143.160156 148.144531 140.230469 147.648438 135.175781 C 147.175781 130.410156 143.066406 123.867188 142.058594 125.460938 C 136.148438 134.773438 145.359375 146.964844 149.828125 153.578125 C 149.464844 153.554688 137.28125 147.960938 136.695312 147.347656 C 128.71875 139.015625 130.566406 136.277344 130.730469 134.554688 C 130.871094 133.035156 129.546875 131.949219 128.695312 132.792969 C 125.703125 135.738281 135.402344 146.996094 134.890625 146.804688 C 127.480469 144.078125 122.558594 145.023438 118.164062 133.777344 C 115.664062 127.378906 112.570312 120.65625 104.785156 117.632812 C 103.664062 117.195312 103.847656 118.363281 104.003906 119.179688 C 106.785156 133.8125 111.160156 136.738281 121.539062 142.765625 C 119.710938 143.265625 127.398438 143.074219 105.15625 139.796875 C 99.289062 138.933594 94.535156 129.949219 94.097656 129.457031 C 92.5 127.660156 90.296875 128.679688 91.238281 130.199219 C 92.367188 132.019531 94.082031 131.292969 96.671875 134.605469 C 102.613281 142.207031 106.605469 138.390625 95.085938 139.511719 C 78.84375 141.089844 77.890625 127.703125 66.875 126.210938 C 58.832031 125.125 60.246094 126.949219 61.878906 129.367188 Z M 58.925781 137.597656 C 56.535156 136.320312 59.703125 134.734375 61.8125 138.367188 C 60.808594 138.121094 59.8125 138.070312 58.925781 137.597656 Z M 54.285156 143.714844 C 51.152344 142.902344 50.046875 143.335938 49.8125 139.675781 C 54.21875 141.34375 53.722656 141.933594 54.285156 143.714844 Z M 50.113281 142.644531 C 46.027344 141.679688 46.234375 141.933594 45.8125 138.597656 C 50.003906 139.640625 48.914062 138.605469 50.113281 142.644531 Z M 45.855469 141.433594 C 42.066406 140.058594 42.800781 140.886719 42.183594 138.519531 C 45.941406 138.367188 45.164062 138.140625 45.855469 141.433594 Z M 39.027344 139.570312 C 39.089844 139.527344 40.339844 140.183594 40.410156 140.21875 C 39.808594 140.65625 40.109375 140.761719 39.027344 139.570312 Z M 39.515625 138.78125 C 42.050781 138.484375 41.53125 138.128906 42.039062 140.039062 C 41.125 139.582031 40.273438 139.160156 39.515625 138.78125 Z M 40.28125 140.980469 C 41.222656 140.285156 40.480469 140.273438 43.886719 141.609375 C 42.359375 142.886719 43.164062 142.921875 40.28125 140.980469 Z M 43.292969 142.914062 C 43.109375 142.828125 44.457031 141.789062 44.648438 141.847656 C 48.8125 143.085938 48.625 142.515625 46.492188 144.253906 C 46.324219 144.394531 46.355469 144.367188 43.292969 142.914062 Z M 47.011719 144.621094 C 47.007812 144.496094 46.816406 144.660156 48.652344 143.136719 C 48.757812 143.046875 48.671875 143.054688 52.066406 143.960938 C 50.210938 145.609375 50.941406 145.429688 47.011719 144.621094 Z M 51.390625 145.261719 C 53.105469 143.761719 51.945312 143.902344 56.679688 145.128906 C 56.652344 145.285156 51.429688 145.414062 51.390625 145.261719 Z M 54.351562 142.121094 C 58.148438 144.863281 58.050781 144.691406 58.015625 144.816406 C 54.230469 143.667969 55.011719 144.441406 54.351562 142.121094 Z M 45.308594 154.628906 C 41.613281 156.085938 42.582031 156.179688 41.042969 154.8125 C 42.519531 154.75 44.023438 154.683594 45.308594 154.628906 Z M 39.691406 154.640625 C 39.871094 154.660156 39.589844 154.488281 41.695312 155.996094 C 41.527344 156.097656 36.257812 158.253906 35.945312 158.015625 C 35.824219 157.925781 31.527344 154.695312 31.386719 154.476562 C 34.917969 154.238281 34.976562 154.128906 39.691406 154.640625 Z M 30.796875 154.796875 C 36.480469 159.015625 36.179688 158.203125 33.113281 159.046875 C 31.019531 159.625 30.972656 159.648438 30.683594 159.414062 C 25.761719 155.449219 26.238281 155.898438 26.144531 155.742188 C 26.730469 155.457031 30.207031 154.359375 30.796875 154.796875 Z M 30.121094 159.644531 C 30.277344 159.765625 30.6875 159.761719 26.273438 160.390625 C 25.921875 160.441406 26.203125 160.582031 21.933594 157.496094 C 26.296875 155.421875 24.5 155.136719 30.121094 159.644531 Z M 25.183594 160.539062 C 19.894531 161.167969 21.199219 161.363281 18.632812 159.460938 C 22.203125 157.269531 20.75 157.25 25.183594 160.539062 Z M 15.574219 161.804688 C 15.921875 161.375 16 161.359375 16.273438 161.660156 C 16.039062 161.707031 15.820312 161.753906 15.574219 161.804688 Z M 16.371094 161.085938 C 18.628906 159.46875 17.722656 159.449219 20.007812 161.128906 C 16.421875 161.648438 17.410156 161.617188 16.371094 161.085938 Z M 15.699219 162.695312 C 15.707031 162.558594 15.460938 162.636719 17.996094 162.292969 C 17.492188 163.375 18.003906 163.234375 15.699219 162.695312 Z M 18.09375 163.3125 C 18.832031 161.824219 17.863281 162.3125 23.191406 161.695312 C 22.019531 164.554688 22.980469 164.121094 18.09375 163.3125 Z M 22.8125 164.042969 C 24.035156 161.03125 22.90625 161.757812 28 161.128906 C 27.957031 161 28.085938 161.011719 26.933594 163.875 C 26.753906 164.320312 23.3125 164.097656 22.8125 164.042969 Z M 31.769531 163.027344 C 26.378906 164.882812 27.527344 163.738281 27.996094 162.566406 C 28.804688 160.53125 28.058594 161.101562 32.820312 160.019531 C 32.792969 160.148438 32.058594 162.929688 31.769531 163.027344 Z M 43.691406 155.964844 C 44.355469 155.703125 40.425781 158.8125 37.8125 160.347656 C 38.386719 157.511719 37.992188 158.25 43.691406 155.964844 Z M 37.851562 158.351562 C 37.265625 160.230469 37.800781 161.117188 32.527344 162.773438 C 32.851562 161.761719 33.144531 160.832031 33.449219 159.910156 C 33.539062 159.644531 37.703125 158.335938 37.851562 158.351562 Z M 53.816406 156.800781 C 54 157.488281 53.597656 158.789062 52.761719 159.03125 C 51.609375 159.367188 52.175781 156.808594 53.816406 156.800781 Z M 65.714844 152.457031 C 64.027344 155.296875 64.875 154.757812 61.652344 155.054688 C 64.101562 152.300781 63.40625 152.742188 65.714844 152.457031 Z M 59.136719 158.621094 C 61.414062 155.070312 60.765625 155.675781 63.890625 155.378906 C 63.921875 155.398438 63.957031 155.421875 63.988281 155.445312 C 60.808594 158.679688 64.375 158.125 59.136719 158.621094 Z M 57.863281 162.058594 C 57.898438 161.738281 58.710938 159.65625 58.828125 159.359375 C 58.933594 159.082031 61.667969 158.867188 61.734375 158.996094 C 59.242188 162.386719 60.238281 161.765625 57.863281 162.058594 Z M 57.1875 164.757812 C 57.785156 162.199219 57.234375 162.664062 59.164062 162.433594 C 57.050781 165.054688 57.316406 164.8125 57.1875 164.757812 Z M 57.0625 166.09375 C 56.988281 166 56.84375 166.226562 58.5 164.359375 C 58.78125 165.421875 58.980469 165.078125 57.0625 166.09375 Z M 61.59375 163.214844 C 61.394531 163.359375 59.328125 164.863281 59.179688 164.875 C 58.84375 163.554688 58.507812 164.359375 61.15625 161.214844 C 61.679688 163.019531 61.738281 163.109375 61.59375 163.214844 Z M 64.089844 160.914062 C 63.988281 161.015625 62.328125 162.667969 62.171875 162.707031 C 61.304688 160.128906 61.042969 161.339844 63.265625 158.21875 C 63.511719 158.839844 64.28125 160.722656 64.089844 160.914062 Z M 64.617188 160.285156 C 64.1875 159.195312 63.578125 157.722656 63.703125 157.507812 C 63.785156 157.363281 65.234375 154.886719 65.40625 154.769531 C 66.394531 157.273438 67.300781 156.761719 64.617188 160.285156 Z M 67.871094 153.339844 C 66.566406 157.351562 67.074219 157.121094 65.738281 154.328125 C 65.652344 154.148438 65.636719 154.246094 67.152344 151.746094 C 67.941406 153.246094 67.929688 153.160156 67.871094 153.339844 Z M 68.109375 152.402344 C 67.339844 151.035156 67.128906 151.808594 69.160156 149.011719 C 69.289062 149.078125 69.253906 148.875 68.109375 152.402344 Z M 67.988281 149.207031 C 66.15625 152.402344 65.796875 151.902344 64.542969 152.078125 C 64.445312 151.925781 67.878906 149.105469 67.988281 149.207031 Z M 78.285156 150.96875 C 77.273438 153.871094 75.65625 153.617188 76.335938 152.515625 C 76.597656 152.097656 78.15625 150.839844 78.285156 150.96875 Z M 109.980469 149.863281 C 109.105469 150.53125 107.96875 151.335938 106.921875 150.992188 C 107.40625 150.082031 107.863281 150.125 109.980469 149.863281 Z M 135.277344 160.265625 C 134.890625 161.53125 134.722656 163.019531 133.425781 162.421875 C 131.980469 161.761719 134.570312 160.351562 135.277344 160.265625 Z M 146.949219 135.976562 C 147.019531 141.804688 147.132812 140.601562 145.445312 142.441406 C 144.492188 138.261719 144.554688 138.234375 144.808594 137.988281 C 147.117188 135.742188 146.78125 135.9375 146.949219 135.976562 Z M 144.578125 137.507812 C 144.546875 137.496094 144.519531 137.484375 144.488281 137.476562 C 143.871094 132.554688 143.609375 133.894531 146.003906 131.269531 C 147.25 135.757812 147.296875 134.710938 144.578125 137.507812 Z M 145.664062 130.535156 C 145.753906 130.746094 145.628906 130.8125 143.960938 132.789062 C 142.664062 127.195312 144.144531 126.949219 145.664062 130.535156 Z M 143.859375 127.570312 C 143.097656 128.386719 143.316406 128.554688 142.945312 126.605469 C 143.019531 126.554688 143.800781 127.5 143.859375 127.570312 Z M 142.0625 126.886719 C 142.257812 126.90625 142.152344 126.515625 142.636719 130.390625 C 140.902344 129.761719 141.101562 130.492188 142.0625 126.886719 Z M 141.101562 134.453125 C 141 133.125 141.007812 131.796875 141.214844 130.4375 C 143.019531 131.089844 142.5625 130.074219 143.125 135.179688 C 143.136719 135.335938 141.121094 134.746094 141.101562 134.453125 Z M 141.1875 135.203125 C 143.25 135.847656 143.195312 135.796875 143.226562 135.972656 C 144.007812 140.742188 144.125 139.667969 142.84375 139.472656 C 141.714844 139.296875 141.199219 135.332031 141.1875 135.203125 Z M 142.480469 139.921875 C 144.078125 140.34375 143.976562 140.28125 144.039062 140.480469 C 145.632812 145.535156 145.464844 145.011719 145.476562 145.167969 C 144.351562 143.472656 143.261719 141.832031 142.480469 139.921875 Z M 146.742188 141.8125 C 146.742188 143.246094 146.742188 144.667969 146.742188 145.980469 C 145.339844 142.429688 145.457031 143.210938 146.742188 141.8125 Z M 147.746094 154.289062 C 148.359375 154.601562 156.726562 158.609375 155.867188 160.136719 C 151.824219 156.589844 146.09375 153.453125 147.746094 154.289062 Z M 125.195312 154.578125 C 124.679688 154.777344 122.886719 153.199219 122.972656 152.933594 C 132.507812 152.363281 132.511719 151.722656 125.195312 154.578125 Z M 121.992188 153.15625 C 122.292969 153.113281 122.140625 153.039062 124.261719 154.984375 C 118.875 156.894531 120.488281 157.007812 116.953125 154.523438 C 117.625 154.15625 119.800781 153.484375 121.992188 153.15625 Z M 111.191406 157.375 C 116.796875 154.046875 116.257812 154.417969 119.21875 156.796875 C 112.507812 159 113.609375 158.671875 111.191406 157.375 Z M 109.214844 158.621094 C 110.8125 157.609375 110.523438 157.300781 112.351562 158.726562 C 107.320312 159.582031 107.511719 159.703125 109.214844 158.621094 Z M 129.550781 153.707031 C 119.925781 162.066406 121.554688 159.527344 122.226562 156.800781 C 122.292969 156.535156 129.316406 153.746094 129.550781 153.707031 Z M 121.644531 156.871094 C 121.074219 159.441406 121.640625 160.460938 116.691406 160.734375 C 117.746094 157.980469 116.96875 158.449219 121.644531 156.871094 Z M 115.925781 160.773438 C 113.234375 160.78125 109.957031 160.160156 109.816406 160.011719 C 112.242188 159.726562 114.59375 159.234375 116.957031 158.53125 C 116.144531 160.875 116.160156 160.773438 115.925781 160.773438 Z M 129.027344 133.753906 C 129.113281 132.824219 129.871094 133.402344 129.882812 134.214844 C 129.96875 138.976562 128.902344 135.234375 129.027344 133.753906 Z M 119.9375 139.933594 C 117.988281 137.9375 118.128906 138.347656 118.363281 137.285156 C 119.953125 139.878906 120.03125 139.804688 119.9375 139.933594 Z M 115.847656 131.257812 C 119.257812 139.90625 118.144531 138.195312 115.097656 134.503906 C 114.855469 134.207031 115.710938 131.277344 115.847656 131.257812 Z M 115.398438 130.59375 C 115.355469 130.75 114.644531 133.507812 114.515625 133.71875 C 111.417969 128.996094 111.800781 130.359375 113.105469 126.359375 C 113.316406 125.6875 115.476562 130.273438 115.398438 130.59375 Z M 112.429688 124.972656 C 113.234375 125.972656 112.003906 126.980469 111.71875 129 C 111.609375 128.988281 109.425781 125.109375 109.484375 124.90625 C 110.304688 122.152344 109.898438 121.820312 112.429688 124.972656 Z M 109.0625 124.414062 C 107.125 121.414062 106.75 121.265625 107.304688 120.386719 C 109.753906 122.679688 110.316406 121 109.0625 124.414062 Z M 105.769531 119.425781 C 106.980469 120.222656 106.824219 119.941406 106.609375 120.660156 C 105.640625 119.355469 105.714844 119.507812 105.769531 119.425781 Z M 105.242188 120.210938 C 105.371094 120.148438 105.15625 119.910156 106.925781 122.601562 C 105.390625 122.476562 105.789062 122.925781 105.242188 120.210938 Z M 107.191406 127.175781 C 106.910156 126.332031 105.90625 123.296875 105.875 123.042969 C 106.960938 123.140625 107.195312 123.125 107.289062 123.285156 C 107.632812 123.898438 109.578125 127.335938 109.597656 127.503906 C 107.214844 127.339844 107.261719 127.390625 107.191406 127.175781 Z M 109.765625 132.269531 C 106.261719 126.855469 107.773438 127.996094 109.347656 128 C 109.9375 128.003906 109.992188 127.894531 112.445312 132.3125 C 109.90625 132.375 109.859375 132.417969 109.765625 132.269531 Z M 113.132812 136.035156 C 108.835938 132.304688 110.292969 132.914062 112.621094 132.796875 C 112.828125 132.789062 112.6875 132.671875 115.054688 135.902344 C 113.238281 136.144531 113.285156 136.167969 113.132812 136.035156 Z M 113.785156 136.621094 C 116.015625 136.277344 114.832031 135.660156 119.40625 140.410156 C 117.4375 139.3125 115.605469 138.050781 113.785156 136.621094 Z M 87.097656 149.789062 C 87.097656 149.742188 87.09375 149.695312 87.09375 149.648438 C 90.582031 147.246094 89.289062 147.570312 93.269531 149.136719 C 89.453125 151.496094 90.753906 151.28125 87.097656 149.789062 Z M 89.527344 151.375 C 84.886719 153.753906 85.660156 153.53125 84.21875 152.753906 C 87.226562 149.425781 85.886719 149.761719 89.527344 151.375 Z M 83.109375 154.34375 C 84.113281 152.988281 83.730469 153.117188 84.761719 153.625 C 82.96875 154.484375 83.171875 154.429688 83.109375 154.34375 Z M 83.378906 155.105469 C 88.382812 152.933594 87.726562 152.882812 87.671875 154.328125 C 87.660156 154.609375 83.507812 155.144531 83.378906 155.105469 Z M 88.214844 154.347656 C 88.210938 153.902344 88.203125 153.496094 88.214844 153.09375 C 88.21875 152.851562 91.691406 151.003906 91.820312 150.96875 C 92.125 152.71875 93.023438 153.101562 88.214844 154.347656 Z M 95.578125 150.558594 C 92.433594 152.839844 92.765625 152.632812 92.628906 152.539062 C 92.195312 150.042969 91.679688 151.015625 95.445312 148.644531 C 95.578125 148.5625 95.800781 150.398438 95.578125 150.558594 Z M 96.210938 149.984375 C 95.964844 147.707031 95.117188 148.773438 100.722656 145.570312 C 100.867188 145.769531 96.367188 150.035156 96.210938 149.984375 Z M 91.019531 147.652344 C 90.417969 147.398438 89.992188 147.609375 95.589844 145.75 C 95.828125 145.671875 95.773438 145.683594 97.421875 146.519531 C 93.160156 149.164062 94.402344 149.0625 91.019531 147.652344 Z M 100.777344 144.8125 C 97.503906 146.476562 98.414062 146.398438 96.707031 145.570312 C 96.726562 145.394531 100.765625 144.710938 100.777344 144.8125 Z M 92.371094 130.351562 C 90.863281 129.324219 92.808594 128.542969 94.554688 131.566406 C 94.441406 131.746094 92.5 130.441406 92.371094 130.351562 Z M 61.761719 127.695312 C 61.898438 127.535156 64.425781 129.050781 64.398438 129.15625 C 62.609375 129.605469 63.179688 129.882812 61.761719 127.695312 Z M 65.496094 132.203125 C 62.632812 129.339844 63.082031 130.179688 64.480469 129.671875 C 65.207031 129.410156 65.324219 129.667969 68.167969 131.433594 C 67.253906 131.699219 66.410156 131.941406 65.496094 132.203125 Z M 66.050781 132.589844 C 69.4375 131.59375 67.90625 131.238281 72.148438 133.785156 C 69.722656 134.746094 69.457031 135.566406 66.050781 132.589844 Z M 73.933594 136.589844 C 73.683594 136.683594 70.269531 135.304688 70.089844 135.171875 C 72.5 134.222656 72.65625 134.109375 72.871094 134.214844 C 76.75 136.15625 76.398438 135.640625 73.933594 136.589844 Z M 76.769531 136.15625 C 80.277344 137.515625 79.890625 137.371094 80.054688 137.480469 C 70.90625 136.78125 76.640625 136.109375 76.769531 136.15625 Z M 81.109375 137.167969 C 78.308594 136.058594 78.78125 136.621094 78.679688 135.007812 C 81.253906 137.226562 81.179688 137.042969 81.109375 137.167969 Z M 78.230469 136.046875 C 74.492188 134.207031 75.195312 135.226562 75.3125 131.925781 C 78.578125 134.421875 78.101562 134.585938 78.230469 136.046875 Z M 71.566406 128.992188 C 75.363281 131.855469 74.726562 130.683594 74.75 134.222656 C 74.601562 134.296875 74.933594 134.5 71.585938 132.453125 C 71.417969 132.347656 71.152344 128.679688 71.566406 128.992188 Z M 70.546875 128.359375 C 70.90625 128.554688 70.949219 131.519531 70.941406 132.027344 C 70.8125 131.960938 67.386719 130.085938 67.367188 129.640625 C 67.28125 127.289062 66.476562 126.105469 70.546875 128.359375 Z M 66.6875 126.980469 C 66.882812 129.90625 66.964844 129.652344 66.585938 129.429688 C 64.320312 128.097656 64.148438 128.128906 64.148438 127.710938 C 64.144531 126.476562 63.527344 126.734375 66.6875 126.980469 Z M 63.558594 126.832031 C 63.652344 127.917969 63.902344 127.835938 62.265625 126.996094 C 62.265625 126.902344 62.136719 126.945312 63.558594 126.832031 Z M 63.558594 126.832031 " fill-opacity="1" fill-rule="nonzero"/><path fill="#fff7ad" d="M 166.417969 12.964844 C 158.316406 21.066406 156.691406 29.949219 157.53125 38.5 C 158.476562 48.101562 154.402344 52.78125 151.046875 61.109375 C 149.988281 57.832031 150.710938 55.652344 150.714844 51.117188 C 150.722656 43.902344 145.429688 37.996094 143.167969 37.074219 C 141.929688 36.574219 141.753906 41.636719 141.710938 42.980469 C 141.386719 52.695312 149.34375 56.566406 149.964844 63.589844 C 150 63.988281 150.144531 62.90625 147.65625 70.769531 C 147.308594 71.84375 148.0625 67.75 143.808594 62.269531 C 142.660156 60.792969 142.78125 55.96875 140.339844 56.679688 C 138.980469 57.074219 138.359375 59.738281 142.40625 62.242188 C 144.691406 63.65625 147.753906 70.21875 146.664062 74.652344 C 142.945312 89.738281 144.863281 89.652344 142.890625 82.617188 C 142.113281 79.84375 143.519531 68.105469 133.371094 61.144531 C 130.96875 59.492188 129.148438 58.058594 130.179688 66.117188 C 131.589844 77.132812 144.96875 78.214844 143.273438 94.421875 C 142.070312 105.902344 145.902344 101.964844 138.351562 95.976562 C 135.109375 93.398438 135.769531 91.632812 133.988281 90.507812 C 132.5 89.570312 131.417969 91.726562 133.226562 93.363281 C 133.652344 93.746094 142.671875 98.71875 143.484375 104.496094 C 146.707031 127.515625 146.898438 118.886719 146.332031 120.902344 C 140.472656 110.636719 137.734375 106.132812 122.875 103.195312 C 122.015625 103.023438 120.890625 102.828125 121.320312 103.964844 C 124.261719 111.632812 130.691406 114.792969 137.367188 117.460938 C 154.050781 124.117188 143.859375 131.515625 161.15625 155.851562 C 162.800781 158.152344 165.875 156.253906 164.816406 154.859375 C 160.523438 149.203125 159.648438 149.601562 160.992188 142.796875 C 163.136719 131.953125 164.734375 137.25 166.429688 134.429688 C 168 131.820312 161.46875 126.769531 159.6875 147.539062 C 155.222656 141.617188 153.242188 135.226562 158.175781 129.652344 C 165.992188 120.816406 166.777344 117.578125 164.09375 105.921875 C 163.917969 105.148438 163.167969 105.136719 162.820312 105.6875 C 152.457031 122.230469 157.273438 116.382812 153.71875 136.761719 C 142.199219 117.683594 154.28125 111.722656 155.277344 107.402344 C 155.609375 105.972656 154.925781 105.460938 154.191406 105.84375 C 152.765625 106.585938 153.085938 108.125 152.75 109.28125 C 151.835938 112.429688 149.207031 113.703125 148.042969 119.902344 C 147.941406 120.417969 146.542969 112.804688 146.300781 111.503906 C 144.96875 104.570312 148.011719 103.230469 154.449219 96.210938 C 160.011719 90.148438 160.265625 80.753906 159.851562 80.488281 C 159.269531 80.113281 151.71875 84.019531 149.125 92.257812 C 147.707031 96.753906 147.511719 103.625 145.414062 105.976562 C 144.386719 98.84375 145.386719 94.398438 146.355469 86.773438 C 146.910156 82.414062 156.972656 77.421875 157.292969 77.011719 C 158.851562 75.023438 156.707031 73.425781 154.5 76.6875 C 152.304688 79.929688 150.15625 79.5 146.875 84.207031 C 146.414062 84.859375 148.820312 73.40625 149.128906 73.0625 C 154.753906 66.726562 161.453125 70.375 167.511719 62.40625 C 173.507812 54.515625 170.867188 55.273438 168.417969 55.808594 C 155.765625 58.566406 151.632812 68.835938 149.90625 70.011719 C 150.261719 68.851562 152.957031 60.234375 153.730469 59.296875 C 160.460938 51.132812 163.617188 55.542969 163.863281 52.09375 C 164.027344 49.75 160.027344 50.835938 159.960938 53.0625 C 159.953125 53.414062 158.222656 53.734375 154.308594 57.394531 C 157.863281 43.351562 173.382812 36.886719 168.742188 17.71875 C 167.644531 13.179688 167.421875 11.957031 166.417969 12.964844 Z M 149.171875 56.058594 C 147.980469 51.316406 147.828125 52.476562 149.339844 50.769531 C 149.492188 50.8125 149.328125 56.035156 149.171875 56.058594 Z M 148.738281 46.386719 C 149.511719 50.324219 149.699219 49.59375 148.039062 51.4375 C 147.152344 48.039062 147.148438 48.125 147.238281 48.019531 C 148.773438 46.191406 148.609375 46.382812 148.738281 46.386719 Z M 147.054688 42.65625 C 148.851562 46.523438 148.832031 45.339844 147.027344 47.445312 C 146.917969 47.296875 146.191406 44.746094 145.976562 44.003906 C 145.921875 43.8125 146.96875 42.476562 147.054688 42.65625 Z M 145.746094 43.242188 C 144.433594 39.824219 144.441406 40.566406 145.140625 39.628906 C 147.0625 42.53125 147.035156 41.726562 145.746094 43.242188 Z M 143.742188 38.367188 C 144.925781 39.460938 144.824219 39.15625 144.378906 39.753906 C 144.34375 39.683594 143.699219 38.429688 143.742188 38.367188 Z M 142.949219 38.851562 C 143.320312 39.613281 143.738281 40.464844 144.1875 41.382812 C 142.28125 40.863281 142.632812 41.382812 142.949219 38.851562 Z M 142.667969 41.515625 C 145.027344 42.148438 144.210938 41.410156 145.558594 45.207031 C 142.269531 44.496094 142.488281 45.273438 142.667969 41.515625 Z M 143.5 48.371094 C 142.519531 44.375 142.019531 44.964844 145.472656 45.785156 C 145.917969 45.890625 146.707031 49.347656 146.734375 49.476562 C 143.429688 48.46875 143.542969 48.539062 143.5 48.371094 Z M 145.566406 52.75 C 143.535156 48.835938 143.714844 49.109375 143.910156 49.164062 C 147.628906 50.230469 146.660156 49.242188 147.777344 53.65625 C 145.964844 53.070312 145.714844 53.039062 145.566406 52.75 Z M 146.179688 53.710938 C 148.496094 54.386719 147.730469 53.601562 148.851562 57.394531 C 148.722656 57.417969 148.9375 57.582031 146.179688 53.710938 Z M 141.625 58.25 C 142.089844 59.140625 142.132812 60.136719 142.371094 61.144531 C 138.757812 59.003906 140.363281 55.851562 141.625 58.25 Z M 141.351562 79.375 C 141.25 79.222656 139.960938 76.023438 140.027344 75.847656 C 140.699219 74.117188 140.851562 72.085938 141.351562 79.375 Z M 140.511719 73.011719 C 140.570312 73.171875 140.558594 73.125 139.71875 75.214844 C 139.558594 75.054688 138.21875 72.328125 138.140625 72.171875 C 138.042969 71.96875 138.160156 71.765625 138.65625 70.53125 C 139.289062 68.957031 138.875 68.570312 140.511719 73.011719 Z M 137.714844 71.445312 C 135.199219 67.1875 135.542969 68.71875 136.5625 65.335938 C 139.609375 68.90625 138.695312 69.011719 137.714844 71.445312 Z M 136.183594 64.78125 C 135.121094 68.355469 135.847656 67.925781 133.847656 64.9375 C 133.417969 64.296875 133.558594 64.167969 133.972656 62.546875 C 134.765625 63.347656 135.492188 64.082031 136.183594 64.78125 Z M 131.699219 61.015625 C 133.878906 62.449219 133.605469 61.875 133.140625 63.660156 C 133.03125 63.6875 131.542969 61.144531 131.699219 61.015625 Z M 130.824219 62.804688 C 130.949219 61.398438 130.871094 61.519531 131 61.515625 C 131.835938 63.183594 131.925781 62.90625 130.824219 62.804688 Z M 130.949219 65.933594 C 130.730469 62.769531 130.460938 63.390625 131.699219 63.402344 C 132.085938 63.40625 131.992188 63.417969 133.398438 65.851562 C 133.621094 66.234375 133.863281 66.152344 130.949219 65.933594 Z M 132.484375 69.945312 C 132.015625 69.863281 131.21875 67.179688 131.085938 66.484375 C 133.894531 66.660156 133.835938 66.566406 134.019531 66.882812 C 136.125 70.523438 137.210938 70.789062 132.484375 69.945312 Z M 135.167969 73.824219 C 135.046875 73.667969 133.019531 70.988281 132.800781 70.617188 C 137.195312 70.761719 135.847656 69.945312 138.195312 73.929688 C 138.109375 74.101562 135.398438 74.128906 135.167969 73.824219 Z M 138.109375 77.171875 C 135.257812 74.078125 135.253906 74.578125 138.28125 74.53125 C 138.566406 74.527344 138.5 74.578125 139.929688 77.542969 C 138.789062 77.433594 138.367188 77.453125 138.109375 77.171875 Z M 138.890625 77.988281 C 140.5 78.101562 139.941406 77.621094 141.03125 80.429688 C 140.90625 80.5 141.09375 80.582031 138.890625 77.988281 Z M 133.539062 92.304688 C 132.945312 91.332031 132.898438 89.578125 135.4375 93.765625 C 135.066406 93.996094 133.78125 92.699219 133.539062 92.304688 Z M 139.664062 112.445312 C 139.792969 112.601562 139.769531 112.550781 139.515625 114.363281 C 135.632812 111.480469 136.375 112.691406 136.578125 109.546875 C 136.742188 109.578125 138.09375 110.609375 139.664062 112.445312 Z M 135.945312 111.730469 C 131.007812 108.9375 131.722656 109.605469 131.566406 106.71875 C 137.140625 109.132812 136.035156 109.066406 135.945312 111.730469 Z M 126.886719 105.113281 C 131.023438 106.488281 131 106.449219 131.011719 106.597656 C 131.183594 108.867188 131.183594 108.902344 131.054688 108.835938 C 126.660156 106.347656 126.851562 106.503906 126.828125 106.285156 C 126.683594 104.980469 126.699219 105.050781 126.886719 105.113281 Z M 123.109375 104.960938 C 123.195312 104.90625 123.027344 104.824219 124.335938 105.808594 C 123.617188 106.019531 123.902344 106.175781 123.109375 104.960938 Z M 126.039062 104.894531 C 126.226562 104.933594 126.207031 105.175781 126.277344 106.140625 C 123.203125 104.085938 123.015625 104.214844 126.039062 104.894531 Z M 125.707031 108.828125 C 124.050781 106.410156 122.515625 104.648438 128.074219 108.289062 C 125.902344 109.066406 125.867188 109.0625 125.707031 108.828125 Z M 128.605469 111.660156 C 125.472656 109.101562 125.800781 109.515625 128.5625 108.714844 C 128.761719 108.65625 132.628906 110.867188 132.640625 110.980469 C 130.675781 111.242188 129.59375 112.46875 128.605469 111.660156 Z M 129.992188 112.347656 C 134 111.070312 132.613281 110.664062 137.339844 113.808594 C 137.125 113.9375 134.363281 114.628906 134.207031 114.667969 C 133.894531 114.746094 129.3125 112.5625 129.992188 112.347656 Z M 134.867188 115.125 C 134.886719 114.996094 137.816406 114.148438 138.121094 114.402344 C 141.734375 117.417969 143.613281 118.648438 134.867188 115.125 Z M 140.242188 113.101562 C 141.660156 114.933594 142.910156 116.773438 143.992188 118.75 C 139.277344 114.144531 139.886719 115.332031 140.242188 113.101562 Z M 140.875 117.683594 C 141.9375 117.457031 141.53125 117.3125 143.511719 119.28125 C 143.382812 119.363281 143.554688 119.351562 140.875 117.683594 Z M 165.902344 132.929688 C 166.488281 134.234375 164.96875 134.398438 163.730469 134.765625 C 163.8125 134.144531 165.222656 131.425781 165.902344 132.929688 Z M 163.449219 155.355469 C 161.972656 156.175781 157.421875 147.066406 157.660156 146.925781 C 159.351562 149.902344 161.207031 152.757812 163.449219 155.355469 Z M 157.214844 128.992188 C 157.257812 128.757812 160.09375 121.753906 160.363281 121.691406 C 163.152344 121.023438 165.953125 119.074219 157.214844 128.992188 Z M 160.4375 121.113281 C 162.050781 116.445312 161.574219 117.21875 164.335938 116.183594 C 164.019531 121.144531 163.015625 120.558594 160.4375 121.113281 Z M 164.382812 115.417969 C 164.378906 115.652344 164.476562 115.640625 162.132812 116.433594 C 162.851562 114.078125 163.363281 111.726562 163.664062 109.304688 C 163.8125 109.445312 164.40625 112.730469 164.382812 115.417969 Z M 163.101562 107.660156 C 162.171875 112.859375 162.652344 112.335938 161.441406 110.441406 C 161.191406 110.054688 162.953125 107.613281 163.101562 107.660156 Z M 161.015625 110.660156 C 162.296875 113.085938 162.632812 111.988281 160.382812 118.683594 C 158.019531 115.710938 157.511719 116.46875 161.015625 110.660156 Z M 156.71875 121.429688 C 157.0625 119.242188 157.75 117.070312 158.121094 116.402344 C 160.582031 119.953125 160.480469 118.339844 158.53125 123.714844 C 156.601562 121.578125 156.675781 121.730469 156.71875 121.429688 Z M 156.664062 122.351562 C 158.679688 124.835938 158.722656 123.257812 156.0625 129.882812 C 155.949219 129.84375 156.367188 122.445312 156.664062 122.351562 Z M 154.664062 106.34375 C 155 107.394531 154.1875 108.523438 153.515625 109.394531 C 153.792969 107.277344 153.753906 106.820312 154.664062 106.34375 Z M 154.535156 91.746094 C 156.464844 92.066406 156.304688 92.039062 156.386719 92.167969 C 153.804688 95.710938 154.804688 95.207031 152.414062 94.933594 C 152.394531 94.804688 154.320312 91.710938 154.535156 91.746094 Z M 158.15625 87.660156 C 156.882812 92.4375 156.507812 91.5625 154.753906 91.242188 C 154.789062 91.117188 156.664062 87.65625 156.902344 87.652344 C 157.308594 87.644531 157.710938 87.65625 158.15625 87.660156 Z M 158.328125 86.972656 C 158.296875 87.167969 158.039062 87.125 157.054688 87.117188 C 159.433594 81.738281 159.304688 81.121094 158.328125 86.972656 Z M 157.0625 83.378906 C 158.3125 82.464844 158.164062 82.53125 158.246094 82.597656 C 157.304688 84.527344 157.566406 84.414062 157.0625 83.378906 Z M 156.59375 83.65625 C 157.363281 85.105469 157.589844 84.332031 155.179688 88.953125 C 153.589844 85.304688 153.242188 86.632812 156.59375 83.65625 Z M 153.46875 86.503906 C 153.515625 86.507812 153.5625 86.511719 153.609375 86.511719 C 155.074219 90.179688 155.296875 88.878906 152.914062 92.679688 C 151.375 88.6875 151.039062 89.976562 153.46875 86.503906 Z M 151.441406 90.417969 C 152.375 92.699219 152.730469 93.050781 152.109375 93.917969 C 149.835938 97.074219 150.597656 97.597656 149.503906 95.277344 C 149.429688 95.121094 151.089844 89.550781 151.441406 90.417969 Z M 149.316406 96.089844 C 150.136719 97.804688 150.222656 96.894531 148.53125 100.15625 C 148.449219 100.140625 149.144531 96.105469 149.316406 96.089844 Z M 149.289062 100.105469 C 152.539062 94.511719 151.464844 95.363281 153.734375 95.625 C 153.792969 95.777344 149.488281 100.253906 149.289062 100.105469 Z M 154.792969 77.648438 C 157.238281 74.441406 157.40625 75.808594 156.992188 76.394531 C 156.378906 77.265625 154.917969 77.769531 154.792969 77.648438 Z M 157.300781 67.308594 C 157.121094 67.367188 157.207031 67.382812 155.714844 66.582031 C 158.222656 65.082031 158.125 65.097656 158.300781 65.183594 C 161.089844 66.546875 161.316406 66.039062 157.300781 67.308594 Z M 164.269531 64.109375 C 160.726562 66.765625 161.246094 65.863281 158.746094 64.855469 C 158.867188 64.683594 161.351562 63.257812 161.496094 63.175781 C 161.714844 63.050781 162.773438 63.507812 164.269531 64.109375 Z M 164.902344 63.585938 C 164.703125 63.78125 162.472656 62.847656 162.210938 62.742188 C 165.351562 60.542969 164.136719 60.792969 166.707031 61.679688 C 166.671875 61.839844 165.003906 63.484375 164.902344 63.585938 Z M 167.007812 61.179688 C 166.429688 61.015625 165.851562 60.839844 165.222656 60.65625 C 171.714844 55.269531 167.347656 61.277344 167.007812 61.179688 Z M 170.132812 56.597656 C 169.101562 58.507812 169.449219 58.3125 168.390625 58.019531 C 170.265625 56.378906 170.039062 56.519531 170.132812 56.597656 Z M 168.792969 56.714844 C 168.851562 56.839844 169.09375 56.582031 166.457031 58.667969 C 166.703125 56.742188 166.234375 57.289062 168.792969 56.714844 Z M 163.386719 58.3125 C 163.6875 58.199219 165.773438 57.402344 166.089844 57.367188 C 165.78125 59.742188 166.410156 58.75 163.003906 61.214844 C 162.871094 61.148438 163.109375 58.414062 163.386719 58.3125 Z M 162.644531 58.613281 C 162.113281 63.785156 162.726562 60.257812 159.433594 63.445312 C 159.410156 63.410156 159.386719 63.378906 159.367188 63.34375 C 159.6875 60.222656 159.078125 60.867188 162.644531 58.613281 Z M 159.058594 61.105469 C 158.738281 64.324219 159.285156 63.484375 156.433594 65.148438 C 156.738281 62.84375 156.289062 63.535156 159.058594 61.105469 Z M 156.0625 63.972656 C 155.878906 65.226562 156.375 65.589844 153.167969 67.398438 C 153.097656 67.328125 155.898438 63.867188 156.0625 63.972656 Z M 152.964844 68.570312 C 155.773438 66.558594 155 66.761719 156.359375 67.542969 C 152.785156 68.671875 153.039062 68.695312 152.964844 68.570312 Z M 160.863281 53.28125 C 160.886719 51.441406 163.964844 51.082031 162.960938 52.558594 C 162.59375 53.09375 161.527344 53.464844 160.863281 53.28125 Z M 164.175781 17.59375 C 166.28125 14.640625 165.902344 16.480469 165.441406 19.503906 C 164.140625 17.710938 164.097656 17.703125 164.175781 17.59375 Z M 163.78125 18.117188 C 165.667969 20.699219 165.476562 19.394531 164.8125 24.679688 C 161.5625 20.234375 161.5625 21.683594 163.78125 18.117188 Z M 160.289062 24.761719 C 160.820312 23.339844 160.90625 23.234375 161.796875 21.40625 C 165.351562 26.40625 164.964844 24.570312 163.996094 29.710938 C 163.867188 29.597656 160.167969 25.089844 160.289062 24.761719 Z M 159.90625 25.8125 C 160.046875 25.40625 159.722656 25.222656 163.648438 30.167969 C 163.914062 30.503906 163.898438 30.460938 162.5625 34.976562 C 158.238281 30.003906 158.464844 29.898438 159.90625 25.8125 Z M 158.808594 39.140625 C 157.609375 27.296875 158.566406 30.542969 162.210938 35.421875 C 162.445312 35.734375 160.253906 40.988281 160.148438 41.15625 C 158.675781 39.066406 158.824219 39.3125 158.808594 39.140625 Z M 158.96875 40.496094 C 160.324219 42.042969 160.238281 41.074219 158.753906 44.757812 C 158.820312 43.476562 158.894531 41.96875 158.96875 40.496094 Z M 160.101562 43.152344 C 162.589844 37.082031 161.679688 38.109375 164.25 37.363281 C 165.347656 37.042969 159.914062 43.609375 160.101562 43.152344 Z M 165.265625 35.96875 C 164.921875 36.753906 164.644531 36.6875 162.53125 37.328125 C 162.515625 37.179688 163.855469 33.023438 164.121094 32.9375 C 167.863281 31.730469 167.410156 31.074219 165.265625 35.96875 Z M 167.253906 31.28125 C 167.148438 31.570312 164.367188 32.285156 164.238281 32.308594 C 165.40625 27.335938 164.496094 28.355469 168.21875 26.992188 C 168.210938 27.511719 167.980469 29.21875 167.253906 31.28125 Z M 168.132812 26.453125 C 165.253906 27.589844 165.25 27.460938 165.378906 27.5 C 166.050781 22.367188 165.328125 23.53125 168.332031 22.335938 C 168.382812 22.835938 168.582031 26.277344 168.132812 26.453125 Z M 165.980469 22.695312 C 166.640625 17.371094 166.144531 18.335938 167.636719 17.609375 C 168.414062 22.519531 168.839844 21.546875 165.980469 22.695312 Z M 166.617188 17.503906 C 166.988281 14.886719 166.90625 15.21875 167.039062 15.207031 C 167.5625 17.515625 167.707031 17.007812 166.617188 17.503906 Z M 165.996094 15.773438 C 165.699219 15.5 165.714844 15.421875 166.148438 15.078125 C 166.09375 15.324219 166.046875 15.542969 165.996094 15.773438 Z M 165.996094 15.773438 " fill-opacity="1" fill-rule="nonzero"/></svg>