<svg xmlns="http://www.w3.org/2000/svg" xmlns:xlink="http://www.w3.org/1999/xlink" width="177" zoomAndPan="magnify" viewBox="0 0 132.75 169.5" height="226" preserveAspectRatio="xMidYMid meet" version="1.0"><defs><clipPath id="3282dd05f6"><path d="M 34 8 L 129 8 L 129 168.847656 L 34 168.847656 Z M 34 8 " clip-rule="nonzero"/></clipPath><clipPath id="9eae5e5fc2"><path d="M 0.0703125 0.59375 L 131 0.59375 L 131 168.847656 L 0.0703125 168.847656 Z M 0.0703125 0.59375 " clip-rule="nonzero"/></clipPath><clipPath id="2905a0a5a8"><path d="M 0.0703125 0 L 131 0 L 131 168.253906 L 0.0703125 168.253906 Z M 0.0703125 0 " clip-rule="nonzero"/></clipPath></defs><g clip-path="url(#3282dd05f6)"><path fill="#fff7ad" d="M 67.285156 167.914062 C 64.949219 166.214844 63.601562 163.839844 62.574219 161.714844 C 58.746094 153.671875 60.269531 144.53125 66.542969 137.902344 C 70.050781 134.148438 74.300781 131.457031 78.339844 128.976562 C 78.980469 128.585938 79.652344 128.195312 80.289062 127.839844 C 80.574219 127.664062 80.855469 127.523438 81.140625 127.34375 L 81.28125 127.273438 L 81.742188 127.769531 L 81.601562 127.910156 C 81.496094 127.984375 81.386719 128.089844 81.28125 128.160156 C 81.070312 128.335938 80.855469 128.515625 80.644531 128.691406 C 76.816406 132.449219 72.566406 137.089844 69.941406 142.972656 C 69.835938 143.21875 69.695312 143.503906 69.589844 143.75 C 69.058594 144.917969 68.492188 146.125 68.277344 147.433594 L 68.277344 147.507812 C 66.71875 151.4375 65.976562 155.515625 66.046875 159.589844 C 66.082031 162.457031 66.613281 165.1875 67.570312 167.738281 L 67.78125 168.304688 Z M 67.816406 129.933594 C 69.304688 128.832031 70.367188 127.769531 71.359375 126.777344 C 72.601562 125.539062 73.523438 124.476562 74.300781 123.410156 C 77.808594 118.664062 78.835938 113.988281 77.417969 109.097656 C 77.277344 108.636719 77.101562 108.210938 76.921875 107.785156 C 76.851562 107.574219 76.746094 107.398438 76.675781 107.183594 L 76.460938 106.6875 L 76.921875 106.972656 C 77.914062 107.574219 79.050781 109.417969 79.6875 111.472656 C 80.113281 112.816406 80.253906 114.234375 80.183594 115.792969 C 82.273438 111.082031 81.777344 106.296875 78.695312 101.195312 L 78.339844 100.59375 L 78.941406 100.914062 C 80.855469 101.976562 83.054688 105.199219 83.621094 107.820312 C 84.46875 111.789062 83.621094 115.6875 81 119.726562 C 77.738281 124.722656 72.992188 127.769531 68.738281 130.109375 C 68.632812 130.179688 68.527344 130.179688 68.347656 130.214844 C 68.242188 130.214844 68.101562 130.25 67.921875 130.285156 Z M 67.039062 124.582031 C 66.082031 119.019531 60.835938 117.035156 56.265625 117.035156 C 55.59375 117.035156 54.882812 117.070312 54.210938 117.175781 C 53.820312 117.210938 53.46875 117.246094 53.078125 117.28125 L 52.792969 117.316406 L 52.6875 116.964844 C 56.691406 114.339844 60.234375 113.101562 63.882812 113.101562 C 64.027344 113.101562 64.132812 113.101562 64.273438 113.101562 C 65.480469 113.136719 66.894531 113.242188 68.101562 114.128906 C 68.171875 114.199219 68.347656 114.199219 68.492188 114.234375 C 66.859375 112.320312 64.558594 111.222656 61.121094 110.761719 L 60.695312 110.691406 L 60.660156 110.335938 C 63.28125 109.558594 65.65625 109.167969 67.886719 109.167969 C 69.375 109.167969 70.863281 109.34375 72.28125 109.664062 C 73.488281 109.949219 74.335938 110.550781 74.761719 111.363281 C 75.1875 112.214844 75.117188 113.3125 74.585938 114.519531 C 73.804688 116.289062 72.671875 118.59375 70.972656 120.578125 C 70.617188 120.96875 70.261719 121.390625 69.941406 121.816406 C 69.164062 122.773438 68.3125 123.765625 67.390625 124.652344 L 67.144531 124.898438 Z M 99.742188 117.777344 C 99.636719 117.777344 99.53125 117.742188 99.457031 117.707031 L 99.210938 117.566406 L 99.421875 117.386719 C 115.6875 103.605469 125.324219 85.179688 128.050781 62.609375 L 128.085938 62.292969 L 128.335938 62.46875 C 128.511719 62.609375 128.511719 62.894531 128.511719 63.175781 C 128.511719 63.246094 128.511719 63.355469 128.511719 63.425781 C 128.902344 76.324219 126.527344 87.519531 121.320312 97.652344 C 116.890625 106.226562 109.875 112.925781 100.414062 117.496094 C 100.34375 117.53125 100.308594 117.566406 100.238281 117.601562 C 100.097656 117.671875 99.917969 117.777344 99.742188 117.777344 Z M 104.488281 100.453125 C 104.488281 100.417969 104.488281 100.382812 104.488281 100.34375 C 104.488281 100.34375 104.488281 100.308594 104.488281 100.273438 C 104.488281 99.992188 104.597656 99.742188 104.703125 99.566406 C 104.738281 99.53125 104.773438 99.460938 104.808594 99.390625 C 104.84375 99.351562 104.878906 99.28125 104.914062 99.246094 C 104.949219 99.210938 104.949219 99.175781 104.984375 99.140625 C 107.464844 94.214844 109.023438 90 109.804688 85.816406 C 110.621094 81.53125 110.65625 78.058594 109.910156 74.835938 C 109.308594 72.246094 108.28125 70.226562 106.757812 68.703125 C 106.332031 68.28125 106.332031 67.960938 106.722656 67.535156 C 111.1875 62.433594 111.328125 56.375 110.902344 51.128906 C 110.832031 50.421875 110.726562 49.710938 110.621094 49.003906 C 110.546875 48.683594 110.511719 48.367188 110.476562 48.046875 L 110.40625 47.550781 L 110.796875 47.871094 C 113.171875 49.890625 118.554688 61.546875 119.761719 67.359375 C 121.320312 74.726562 120.824219 81.886719 118.308594 88.652344 L 117.953125 88.546875 C 119.300781 82.769531 118.804688 76.746094 116.429688 70.226562 C 116.679688 72.53125 116.714844 74.800781 116.535156 76.996094 C 116.5 77.316406 116.464844 77.597656 116.429688 77.917969 C 116.394531 78.234375 116.359375 78.554688 116.289062 78.910156 C 116.253906 79.191406 116.21875 79.476562 116.148438 79.757812 L 116.078125 80.21875 C 116.039062 80.503906 115.96875 80.75 115.898438 81.035156 L 115.863281 81.210938 C 115.828125 81.425781 115.757812 81.671875 115.6875 81.886719 C 115.652344 81.957031 115.652344 82.027344 115.617188 82.097656 C 115.582031 82.308594 115.507812 82.523438 115.4375 82.734375 C 115.226562 83.550781 114.976562 84.332031 114.695312 85.109375 C 114.625 85.324219 114.550781 85.535156 114.445312 85.746094 C 113.84375 87.304688 113.101562 88.902344 112.25 90.460938 C 112.109375 90.707031 112 90.921875 111.859375 91.167969 C 111.1875 92.339844 110.441406 93.507812 109.59375 94.675781 C 109.414062 94.925781 109.238281 95.171875 109.0625 95.386719 C 109.0625 95.386719 109.023438 95.421875 109.023438 95.457031 C 108.847656 95.703125 108.671875 95.953125 108.492188 96.164062 C 108.492188 96.164062 108.28125 96.449219 108.210938 96.554688 C 107.925781 96.910156 107.644531 97.296875 107.324219 97.652344 C 107.003906 98.042969 106.722656 98.398438 106.402344 98.75 L 106.085938 99.140625 C 105.871094 99.390625 105.660156 99.601562 105.445312 99.847656 C 105.234375 100.097656 105.019531 100.34375 104.808594 100.558594 L 104.5625 100.804688 Z M 41.242188 90.851562 C 45.070312 87.554688 49.816406 85.746094 56.65625 84.933594 L 56.726562 85.285156 C 51.625 86.632812 46.488281 88.582031 41.457031 91.132812 Z M 34.792969 90.28125 C 35.007812 89.929688 35.21875 89.574219 35.433594 89.21875 C 36.351562 87.660156 37.273438 86.03125 39.292969 85.359375 C 41.5625 84.648438 43.9375 84.367188 46.167969 84.152344 L 46.238281 84.152344 L 46.417969 84.332031 L 46.417969 84.472656 L 46.378906 84.507812 C 45.496094 86.066406 44.042969 86.988281 42.730469 87.695312 C 41.171875 88.546875 39.472656 89.078125 37.804688 89.609375 C 36.886719 89.894531 35.929688 90.210938 34.972656 90.566406 L 34.441406 90.777344 Z M 122.984375 66.046875 C 123.164062 63.210938 122.84375 60.234375 122.101562 56.871094 C 121.355469 53.574219 120.257812 50.777344 118.628906 47.976562 L 118.910156 47.726562 C 122.101562 50.386719 125.609375 61.265625 123.339844 66.117188 Z M 83.300781 63.035156 C 84.363281 61.371094 85.25 59.847656 85.957031 58.289062 C 86.136719 57.933594 86.277344 57.578125 86.417969 57.222656 L 86.417969 57.1875 L 86.453125 57.152344 C 86.597656 56.800781 86.738281 56.410156 86.878906 56.054688 C 87.09375 55.488281 87.269531 54.886719 87.445312 54.320312 C 88.757812 49.785156 89.078125 45.460938 88.472656 41.207031 C 88.226562 41.917969 87.941406 42.589844 87.660156 43.230469 C 87.519531 43.511719 87.410156 43.761719 87.269531 44.007812 C 87.199219 44.183594 87.09375 44.328125 87.023438 44.503906 C 86.84375 44.859375 86.632812 45.140625 86.453125 45.425781 C 85.640625 46.738281 84.648438 47.976562 83.441406 49.179688 C 83.195312 49.429688 82.945312 49.675781 82.664062 49.925781 C 82.523438 50.066406 82.378906 50.171875 82.238281 50.316406 C 81.847656 50.667969 81.421875 51.023438 81.035156 51.34375 C 80.75 51.554688 80.464844 51.804688 80.183594 52.015625 L 80.148438 52.050781 C 79.722656 52.371094 79.296875 52.6875 78.835938 53.007812 C 78.519531 53.21875 78.234375 53.433594 77.914062 53.609375 L 77.382812 53.964844 L 77.667969 53.363281 C 77.738281 53.21875 77.808594 53.078125 77.878906 52.9375 L 77.988281 52.761719 L 78.128906 52.582031 C 78.164062 52.511719 78.199219 52.441406 78.269531 52.40625 C 78.304688 52.335938 78.375 52.265625 78.410156 52.226562 C 78.589844 52.015625 78.765625 51.769531 78.941406 51.554688 C 78.980469 51.484375 79.050781 51.449219 79.085938 51.378906 C 79.296875 51.09375 79.546875 50.8125 79.757812 50.527344 C 81.601562 47.835938 83.371094 44.894531 83.089844 41.171875 C 82.945312 39.472656 82.414062 38.089844 81.457031 36.957031 L 81.386719 36.886719 C 81.140625 36.601562 80.855469 36.25 81.246094 35.679688 C 85.851562 28.84375 88.191406 21.082031 89.714844 15.058594 C 90.070312 13.714844 90.351562 12.367188 90.671875 10.949219 C 90.8125 10.3125 90.953125 9.675781 91.097656 9.035156 L 91.238281 8.433594 L 91.449219 9 C 91.875 10.097656 92.054688 11.199219 92.265625 12.261719 C 92.335938 12.578125 92.371094 12.933594 92.441406 13.253906 C 94.25 22.359375 95.632812 30.792969 96.695312 39.117188 C 97.402344 44.609375 97.828125 50.527344 96.234375 56.410156 C 95.632812 58.640625 94.992188 60.769531 93.613281 62.644531 L 93.292969 62.503906 C 94.640625 57.402344 94.78125 52.546875 93.753906 47.726562 C 93.398438 49.253906 92.972656 50.917969 92.300781 52.511719 C 90.671875 56.480469 87.941406 60.023438 83.972656 63.246094 C 83.902344 63.320312 83.832031 63.320312 83.761719 63.355469 C 83.726562 63.355469 83.691406 63.355469 83.691406 63.355469 C 83.691406 63.355469 83.65625 63.355469 83.621094 63.355469 C 83.585938 63.355469 83.550781 63.355469 83.550781 63.355469 L 83.054688 63.425781 Z M 83.300781 63.035156 " fill-opacity="1" fill-rule="nonzero"/></g><g clip-path="url(#9eae5e5fc2)"><path fill="#bf4488" d="M 67.25 167.84375 C 66.257812 165.257812 65.726562 162.457031 65.691406 159.554688 C 65.621094 155.441406 66.363281 151.332031 67.960938 147.328125 L 68.417969 146.585938 C 69.445312 144.882812 70.511719 143.113281 71.785156 141.519531 C 74.867188 137.691406 78.660156 134.574219 82.34375 131.5625 L 83.40625 130.675781 C 89.960938 125.289062 94.390625 120.046875 97.332031 114.164062 C 99.53125 109.769531 100.804688 104.84375 101.300781 98.644531 C 101.972656 90.210938 100.167969 82.273438 95.984375 75.011719 C 95.949219 74.941406 95.914062 74.90625 95.878906 74.871094 C 97.617188 78.765625 98.429688 81.957031 98.574219 85.144531 L 98.21875 85.25 C 90.847656 71.574219 78.980469 63.816406 61.015625 60.980469 C 65.019531 62.253906 68.457031 63.886719 71.46875 65.90625 C 77.773438 70.191406 81.53125 75.863281 82.664062 82.804688 C 82.839844 83.90625 83.019531 85.25 82.910156 86.808594 L 82.910156 87.058594 L 82.664062 86.953125 C 79.757812 85.855469 76.996094 85.285156 74.160156 85.214844 C 73.910156 85.214844 73.664062 85.214844 73.449219 85.214844 C 71.078125 85.214844 68.949219 85.429688 66.96875 85.925781 C 67.109375 85.925781 67.214844 85.925781 67.355469 85.925781 C 68.988281 85.925781 70.6875 85.925781 72.351562 86.242188 C 74.796875 86.703125 76.886719 87.414062 78.765625 88.441406 C 80.785156 89.539062 82.628906 90.957031 84.257812 92.585938 C 85.816406 94.179688 87.164062 96.058594 88.296875 98.183594 C 89.289062 100.097656 90.035156 102.1875 90.492188 104.597656 C 90.953125 106.863281 91.0625 109.132812 90.847656 111.507812 L 90.492188 111.542969 L 90.351562 111.046875 C 89.960938 109.804688 89.574219 108.496094 88.96875 107.289062 C 85.214844 99.742188 79.15625 95.207031 70.898438 93.824219 C 68.988281 93.507812 67.109375 93.328125 65.265625 93.328125 C 57.257812 93.328125 49.851562 96.269531 42.625 102.367188 C 40.996094 103.746094 39.363281 105.199219 37.769531 106.617188 C 35.21875 108.886719 32.632812 111.222656 29.871094 113.3125 C 23.882812 117.921875 17.820312 120.96875 11.300781 122.597656 C 10.734375 122.738281 10.664062 122.917969 10.699219 123.484375 L 10.699219 123.730469 C 10.734375 125.113281 10.804688 126.53125 10.273438 127.910156 C 9.851562 129.011719 9.320312 129.578125 8.679688 129.578125 C 8.21875 129.578125 7.6875 129.292969 7.085938 128.726562 C 6.058594 127.734375 4.820312 126.917969 3.222656 126.175781 C 1.628906 125.433594 0.777344 123.871094 0.246094 122.738281 C 0.0703125 122.347656 0.105469 121.816406 0.355469 121.25 C 0.671875 120.4375 1.3125 119.761719 1.914062 119.550781 C 1.984375 119.515625 2.054688 119.515625 2.125 119.515625 C 2.265625 119.515625 2.375 119.585938 2.480469 119.621094 L 2.550781 119.65625 C 5.277344 121.074219 7.226562 122.421875 8.785156 124.015625 C 9.070312 123.09375 8.824219 122.421875 7.9375 121.816406 C 6.875 121.109375 5.882812 120.328125 4.820312 119.550781 C 4.359375 119.195312 3.933594 118.875 3.472656 118.523438 L 3.332031 118.34375 L 4.605469 117.070312 C 5.632812 116.042969 6.660156 115.015625 7.722656 113.953125 C 13.675781 107.855469 18.140625 101.90625 21.367188 95.773438 C 22.429688 93.753906 22.746094 91.878906 22.429688 89.820312 C 21.152344 81.671875 21.933594 73.769531 24.835938 66.367188 C 24.980469 66.011719 25.15625 65.585938 25.476562 65.160156 L 25.867188 64.628906 L 25.828125 65.304688 C 25.757812 66.082031 25.652344 66.828125 25.546875 67.640625 C 25.371094 68.8125 25.226562 70.015625 25.191406 71.292969 C 27.035156 67.039062 28.734375 63.816406 30.648438 60.910156 C 33.875 55.949219 37.984375 51.414062 43.191406 47.054688 C 43.863281 46.488281 44.539062 45.886719 45.175781 45.320312 L 45.636719 44.929688 C 45.957031 44.644531 45.992188 44.398438 45.777344 43.972656 C 43.296875 39.332031 42.304688 34.40625 41.347656 28.878906 C 40.074219 21.613281 39.613281 14.246094 39.96875 6.945312 C 39.96875 6.804688 39.96875 6.664062 39.96875 6.519531 C 39.96875 6.238281 40.003906 5.988281 40.003906 5.707031 C 40.039062 5.246094 40.074219 4.820312 40.144531 4.324219 L 40.25 3.402344 L 40.535156 3.722656 C 41.03125 4.289062 41.527344 4.855469 42.023438 5.386719 C 43.121094 6.625 44.148438 7.796875 45.210938 8.929688 C 52.332031 16.476562 60.199219 23.136719 68.527344 28.703125 C 68.808594 28.878906 69.058594 29.089844 69.09375 29.375 C 69.128906 29.585938 69.023438 29.835938 68.773438 30.152344 C 61.121094 40.074219 54.601562 47.089844 47.691406 52.867188 C 41.457031 58.074219 36.921875 63.707031 33.875 70.085938 C 37.804688 62.824219 43.546875 57.152344 48.152344 52.972656 C 50.878906 50.492188 53.679688 48.011719 56.40625 45.601562 L 58.355469 43.867188 C 58.640625 43.617188 58.921875 43.40625 59.207031 43.191406 C 59.3125 43.121094 59.382812 43.050781 59.492188 42.980469 L 59.277344 42.660156 L 59.703125 42.804688 L 60.023438 42.519531 C 60.023438 42.519531 60.058594 42.945312 60.058594 42.980469 L 60.09375 42.980469 C 60.09375 43.015625 60.09375 43.300781 60.09375 43.300781 L 60.058594 43.300781 C 60.023438 43.371094 59.988281 43.441406 59.953125 43.476562 C 59.953125 43.511719 59.914062 43.511719 59.914062 43.546875 C 58.816406 45.78125 58.214844 48.261719 57.789062 50.5625 C 59.347656 45.425781 62.042969 40.394531 66.433594 34.40625 C 67.179688 33.414062 67.921875 32.386719 68.632812 31.394531 C 73.414062 24.910156 78.375 18.179688 82.523438 11.089844 C 82.980469 10.347656 83.40625 9.566406 83.867188 8.824219 C 85.109375 6.699219 86.382812 4.5 87.695312 2.375 C 87.765625 2.304688 87.800781 2.199219 87.871094 2.089844 C 88.226562 1.453125 88.6875 0.675781 89.609375 0.675781 C 89.644531 0.675781 89.679688 0.675781 89.75 0.675781 C 90.882812 0.746094 91.308594 1.84375 91.59375 2.585938 C 91.910156 3.472656 92.265625 4.324219 92.585938 5.210938 C 96.058594 14.210938 99.601562 23.5625 101.726562 33.203125 C 104.382812 45.210938 103.816406 56.550781 99.988281 67.746094 C 107.785156 58.746094 109.839844 47.976562 106.4375 33.875 L 106.367188 33.625 L 106.617188 33.660156 C 107.183594 33.699219 107.289062 34.050781 107.359375 34.300781 C 107.359375 34.335938 107.394531 34.40625 107.429688 34.441406 C 108.777344 37.207031 110.511719 39.828125 112.179688 42.34375 C 112.710938 43.15625 113.242188 43.972656 113.773438 44.789062 C 117.316406 50.28125 119.621094 55.523438 120.859375 60.839844 C 120.257812 55.097656 118.554688 49.429688 115.582031 43.546875 C 115.011719 42.414062 114.375 41.316406 113.738281 40.253906 C 113.453125 39.757812 113.136719 39.226562 112.851562 38.730469 C 112.78125 38.65625 112.675781 38.550781 112.605469 38.445312 L 112.53125 38.339844 C 112.460938 38.269531 112.390625 38.160156 112.390625 38.019531 C 112.390625 37.914062 112.460938 37.84375 112.570312 37.773438 L 112.605469 37.738281 L 112.675781 37.738281 C 112.78125 37.738281 112.816406 37.808594 112.921875 37.914062 C 112.957031 37.949219 112.957031 37.949219 112.992188 37.984375 L 113.3125 38.269531 C 119.476562 44.363281 123.480469 51.730469 125.21875 60.128906 C 125.464844 61.300781 125.714844 62.503906 126.03125 63.742188 C 126.457031 57.1875 125.855469 51.273438 124.261719 45.671875 L 124.191406 45.460938 L 124.402344 45.425781 C 124.4375 45.425781 124.472656 45.425781 124.507812 45.425781 C 124.96875 45.425781 125.039062 45.816406 125.113281 46.027344 C 125.113281 46.0625 125.148438 46.132812 125.148438 46.167969 C 127.875 53.539062 129.539062 60.484375 130.214844 67.324219 C 132.054688 86.101562 126.742188 103.570312 113.949219 120.683594 C 109.839844 126.175781 104.738281 131.492188 97.898438 137.441406 L 97.652344 137.65625 C 97.582031 137.691406 97.15625 138.082031 97.15625 138.082031 C 97.15625 138.082031 97.121094 138.117188 97.121094 138.152344 C 97.011719 138.257812 96.976562 138.328125 96.871094 138.328125 L 96.835938 138.328125 L 96.800781 138.292969 C 96.695312 138.222656 96.625 138.152344 96.589844 138.046875 C 96.554688 137.902344 96.660156 137.796875 96.730469 137.726562 C 96.730469 137.726562 96.976562 137.441406 96.976562 137.441406 C 97.011719 137.40625 97.085938 137.335938 97.121094 137.300781 L 97.367188 137.019531 C 98.042969 136.132812 98.714844 135.246094 99.421875 134.359375 C 101.441406 131.773438 103.496094 129.082031 105.410156 126.351562 C 108.566406 121.851562 111.152344 117.460938 113.417969 112.996094 C 109.308594 118.769531 103.921875 124.085938 96.625 129.648438 C 94.78125 131.066406 92.867188 132.449219 91.027344 133.792969 C 87.554688 136.308594 83.972656 138.929688 80.679688 141.730469 C 75.257812 146.300781 71.890625 150.445312 69.800781 155.089844 C 67.675781 159.730469 67.214844 163.945312 68.347656 167.984375 C 68.382812 168.09375 68.347656 168.164062 68.347656 168.269531 C 68.347656 168.339844 68.347656 168.410156 68.3125 168.480469 L 68.277344 168.90625 Z M 128.160156 64.628906 C 126.707031 75.011719 123.765625 84.507812 119.441406 92.976562 C 114.765625 102.046875 108.351562 110.195312 100.308594 117.140625 C 109.664062 112.605469 116.609375 106.015625 121 97.511719 C 125.996094 87.730469 128.335938 76.996094 128.160156 64.628906 Z M 110.972656 48.933594 C 111.082031 49.640625 111.222656 50.351562 111.257812 51.09375 C 111.683594 56.089844 111.578125 62.539062 107.003906 67.746094 C 106.757812 68.03125 106.757812 68.136719 107.003906 68.421875 C 108.566406 69.980469 109.628906 72.070312 110.265625 74.726562 C 111.007812 77.988281 110.972656 81.53125 110.160156 85.855469 C 109.34375 90.070312 107.820312 94.320312 105.304688 99.28125 C 105.269531 99.316406 105.269531 99.390625 105.234375 99.425781 C 105.199219 99.460938 105.058594 99.742188 105.019531 99.742188 C 105.09375 99.671875 105.128906 99.601562 105.199219 99.566406 C 105.410156 99.316406 105.625 99.105469 105.835938 98.859375 L 106.15625 98.46875 C 106.472656 98.113281 106.757812 97.757812 107.078125 97.371094 C 107.394531 96.980469 107.679688 96.625 107.960938 96.269531 C 108.03125 96.164062 108.246094 95.882812 108.246094 95.882812 C 108.421875 95.632812 108.601562 95.386719 108.777344 95.136719 L 108.8125 95.101562 C 108.988281 94.855469 109.167969 94.640625 109.34375 94.394531 C 110.160156 93.222656 110.902344 92.054688 111.578125 90.921875 C 111.71875 90.671875 111.824219 90.460938 111.964844 90.210938 C 112.816406 88.6875 113.523438 87.128906 114.128906 85.570312 C 114.199219 85.359375 114.269531 85.144531 114.375 84.933594 C 114.660156 84.152344 114.90625 83.375 115.121094 82.558594 C 115.191406 82.347656 115.226562 82.132812 115.296875 81.921875 C 115.332031 81.851562 115.332031 81.777344 115.367188 81.707031 C 115.4375 81.496094 115.472656 81.28125 115.507812 81.035156 L 115.542969 80.859375 C 115.617188 80.609375 115.652344 80.328125 115.722656 80.078125 L 115.792969 79.617188 C 115.828125 79.335938 115.898438 79.050781 115.933594 78.765625 C 115.96875 78.449219 116.039062 78.128906 116.078125 77.8125 C 116.113281 77.492188 116.148438 77.207031 116.183594 76.890625 C 116.429688 74.195312 116.324219 71.433594 115.863281 68.597656 L 116.21875 68.492188 C 118.734375 74.691406 119.585938 80.433594 118.839844 85.960938 C 120.613281 80.007812 120.789062 73.769531 119.441406 67.394531 C 118.308594 62.078125 113.453125 51.308594 110.972656 48.507812 C 110.9375 48.648438 110.972656 48.792969 110.972656 48.933594 Z M 42.730469 65.375 C 42.304688 65.871094 41.84375 66.367188 41.421875 66.863281 C 34.476562 74.976562 29.796875 84.828125 27.070312 97.015625 L 27.070312 97.085938 C 27.035156 97.15625 27.035156 97.261719 27.035156 97.296875 C 27.070312 97.226562 27.140625 97.15625 27.175781 97.050781 C 27.28125 96.800781 27.425781 96.519531 27.53125 96.269531 C 27.601562 96.09375 27.671875 95.917969 27.777344 95.703125 C 30.367188 89.820312 33.625 85.996094 38.125 83.65625 C 41.878906 81.671875 46.0625 80.964844 50.382812 80.328125 C 50.917969 80.253906 51.449219 80.183594 51.945312 80.113281 C 52.085938 80.078125 52.226562 80.078125 52.367188 80.042969 C 52.332031 80.042969 52.296875 80.042969 52.261719 80.042969 C 48.082031 80.503906 44.324219 81 40.570312 82.027344 C 38.230469 82.699219 36.105469 83.621094 34.085938 84.863281 L 33.730469 85.074219 L 33.765625 84.683594 C 34.757812 77.457031 38.230469 71.824219 42.730469 65.375 Z M 53.929688 85.710938 C 49.320312 86.492188 45.777344 87.910156 42.835938 90.035156 C 46.488281 88.296875 50.207031 86.847656 53.929688 85.710938 Z M 45.921875 84.578125 C 43.792969 84.789062 41.527344 85.074219 39.402344 85.746094 C 37.523438 86.351562 36.636719 87.839844 35.714844 89.433594 C 35.609375 89.644531 35.46875 89.820312 35.359375 90.035156 C 36.140625 89.75 36.921875 89.503906 37.699219 89.253906 C 39.402344 88.722656 41.03125 88.191406 42.554688 87.378906 C 43.828125 86.703125 45.070312 85.890625 45.921875 84.578125 Z M 119.726562 49.179688 C 120.929688 51.554688 121.851562 54.035156 122.488281 56.800781 C 123.164062 59.703125 123.480469 62.363281 123.445312 64.84375 C 124.578125 60.34375 122.242188 52.617188 119.726562 49.179688 Z M 86.808594 57.367188 C 86.667969 57.71875 86.488281 58.109375 86.3125 58.464844 C 85.675781 59.847656 84.929688 61.226562 84.011719 62.679688 C 87.765625 59.527344 90.351562 56.125 91.945312 52.300781 C 92.726562 50.457031 93.1875 48.472656 93.542969 46.773438 L 93.894531 46.773438 C 95.03125 51.519531 95.03125 56.480469 93.859375 61.511719 C 94.816406 59.917969 95.347656 58.144531 95.808594 56.304688 C 97.367188 50.457031 96.941406 44.609375 96.269531 39.152344 C 95.207031 30.863281 93.824219 22.394531 92.019531 13.324219 C 91.945312 13.003906 91.910156 12.652344 91.839844 12.332031 C 91.699219 11.480469 91.558594 10.628906 91.273438 9.746094 C 91.167969 10.171875 91.097656 10.59375 90.988281 11.019531 C 90.671875 12.4375 90.386719 13.785156 90.035156 15.128906 C 88.511719 21.191406 86.136719 28.984375 81.496094 35.859375 C 81.246094 36.214844 81.351562 36.320312 81.601562 36.601562 L 81.671875 36.671875 C 82.699219 37.878906 83.265625 39.332031 83.40625 41.101562 C 83.726562 44.929688 81.8125 48.046875 80.042969 50.667969 C 79.828125 50.988281 79.582031 51.273438 79.367188 51.554688 C 79.332031 51.625 79.15625 51.804688 79.15625 51.804688 C 78.980469 52.015625 78.835938 52.191406 78.660156 52.40625 C 78.625 52.476562 78.554688 52.511719 78.519531 52.582031 C 78.484375 52.652344 78.445312 52.6875 78.410156 52.761719 L 78.375 52.832031 C 78.445312 52.761719 78.554688 52.722656 78.625 52.652344 C 79.050781 52.371094 79.472656 52.050781 79.933594 51.730469 C 80.253906 51.484375 80.539062 51.273438 80.820312 51.058594 C 81.210938 50.742188 81.636719 50.386719 82.027344 50.03125 C 82.167969 49.925781 82.308594 49.785156 82.449219 49.640625 C 82.734375 49.394531 82.980469 49.144531 83.195312 48.898438 C 84.363281 47.691406 85.320312 46.488281 86.136719 45.210938 C 86.3125 44.929688 86.488281 44.644531 86.667969 44.328125 C 86.738281 44.183594 86.84375 44.007812 86.914062 43.867188 C 87.058594 43.617188 87.199219 43.335938 87.304688 43.085938 C 87.660156 42.378906 87.941406 41.632812 88.226562 40.855469 C 88.296875 40.675781 88.332031 40.5 88.402344 40.324219 L 88.582031 39.722656 L 88.757812 40.324219 C 88.828125 40.535156 88.828125 40.710938 88.828125 40.890625 C 88.828125 40.996094 88.828125 41.066406 88.863281 41.171875 C 89.5 45.496094 89.148438 49.855469 87.835938 54.460938 C 87.660156 55.0625 87.480469 55.628906 87.269531 56.230469 C 87.09375 56.585938 86.949219 56.976562 86.808594 57.367188 Z M 59.136719 33.023438 C 59.066406 33.09375 58.996094 33.238281 58.960938 33.378906 C 58.921875 33.484375 58.886719 33.554688 58.851562 33.625 C 57.4375 36.390625 55.699219 39.117188 53.644531 41.667969 C 51.484375 44.398438 48.96875 46.84375 46.523438 49.179688 C 45.496094 50.207031 44.398438 51.234375 43.367188 52.300781 C 41.457031 54.25 39.507812 56.304688 37.804688 58.640625 C 37.984375 58.394531 38.195312 58.179688 38.371094 57.933594 C 40.675781 55.097656 43.476562 52.6875 46.167969 50.386719 C 46.949219 49.710938 47.761719 49.003906 48.542969 48.332031 C 53.433594 44.007812 56.796875 39.261719 58.851562 33.875 C 58.886719 33.769531 58.921875 33.699219 58.996094 33.589844 C 59.066406 33.414062 59.171875 33.238281 59.136719 33.023438 Z M 59.667969 135.496094 C 59.347656 132.945312 58.921875 129.933594 57.96875 126.957031 C 57.789062 126.386719 57.578125 125.679688 57.292969 124.9375 C 56.054688 121.746094 54.636719 120.578125 52.050781 120.578125 C 51.484375 120.578125 50.84375 120.648438 50.101562 120.753906 C 46.769531 121.320312 43.40625 122.527344 39.472656 124.582031 C 38.125 125.289062 36.8125 126.105469 35.539062 126.882812 C 33.910156 127.875 32.207031 128.902344 30.472656 129.753906 C 26.113281 131.808594 22.179688 132.835938 18.355469 132.835938 C 16.546875 132.835938 14.773438 132.625 13.039062 132.164062 L 11.550781 131.773438 L 11.976562 131.5625 C 12.222656 131.417969 12.4375 131.382812 12.683594 131.382812 C 12.863281 131.382812 13.039062 131.417969 13.144531 131.457031 C 13.925781 131.492188 14.738281 131.527344 15.484375 131.527344 C 20.90625 131.527344 25.582031 130.390625 29.726562 128.019531 C 33.554688 125.855469 37.0625 122.917969 41.136719 118.488281 C 44.007812 115.332031 46.628906 111.898438 49.144531 108.566406 L 49.996094 107.433594 C 50.136719 107.253906 50.3125 107.042969 50.457031 106.863281 C 50.527344 106.757812 50.632812 106.652344 50.703125 106.582031 L 50.84375 106.332031 C 50.878906 106.296875 50.878906 106.261719 50.878906 106.261719 C 50.953125 106.191406 51.023438 106.050781 51.199219 106.050781 C 51.269531 106.050781 51.375 106.085938 51.449219 106.15625 C 51.519531 106.226562 51.589844 106.332031 51.554688 106.40625 C 51.554688 106.546875 51.414062 106.652344 51.339844 106.6875 L 51.234375 106.902344 C 48.71875 111.363281 45.636719 115.792969 41.457031 120.859375 L 41.703125 120.683594 C 42.554688 120.082031 43.367188 119.480469 44.21875 118.875 C 48.011719 116.113281 53.113281 112.710938 59.136719 110.726562 C 59.457031 110.621094 59.773438 110.550781 60.09375 110.480469 C 60.234375 110.445312 60.410156 110.410156 60.554688 110.371094 L 60.589844 110.371094 L 61.050781 110.445312 C 63.53125 110.761719 66.648438 111.507812 68.878906 114.269531 L 68.949219 114.375 L 69.269531 114.980469 L 68.773438 114.730469 L 68.5625 114.625 C 68.527344 114.625 68.457031 114.589844 68.347656 114.589844 C 68.136719 114.554688 67.921875 114.519531 67.78125 114.414062 C 66.683594 113.5625 65.40625 113.492188 64.203125 113.457031 C 64.097656 113.457031 63.957031 113.457031 63.847656 113.457031 C 60.484375 113.457031 57.1875 114.519531 53.503906 116.820312 C 53.714844 116.785156 53.929688 116.785156 54.140625 116.75 C 54.8125 116.679688 55.523438 116.609375 56.230469 116.609375 C 60.980469 116.609375 66.398438 118.664062 67.390625 124.476562 L 67.390625 124.546875 C 67.320312 125.183594 66.894531 125.503906 66.507812 125.785156 C 66.363281 125.890625 66.222656 126 66.117188 126.140625 C 63.316406 128.976562 61.402344 131.953125 60.304688 135.175781 C 60.269531 135.28125 60.199219 135.351562 60.128906 135.421875 C 60.09375 135.460938 60.058594 135.53125 59.988281 135.601562 L 59.703125 135.957031 Z M 82.59375 125.042969 C 89.5 118.308594 93.328125 109.628906 93.964844 99.210938 C 94.535156 89.398438 91.167969 80.574219 83.9375 72.957031 L 84.1875 72.671875 C 91.910156 78.199219 96.515625 85.429688 97.828125 94.144531 C 98.890625 100.984375 97.863281 107.359375 94.816406 113.066406 C 92.125 118.097656 87.976562 122.347656 82.804688 125.324219 Z M 82.59375 125.042969 " fill-opacity="1" fill-rule="nonzero"/></g><path fill="#fff7ad" d="M 67.285156 167.320312 C 64.949219 165.621094 63.601562 163.246094 62.574219 161.121094 C 58.746094 153.078125 60.269531 143.9375 66.542969 137.308594 C 70.050781 133.554688 74.300781 130.863281 78.339844 128.382812 C 78.980469 127.992188 79.652344 127.601562 80.289062 127.246094 C 80.574219 127.070312 80.855469 126.929688 81.140625 126.75 L 81.28125 126.679688 L 81.742188 127.175781 L 81.601562 127.316406 C 81.496094 127.390625 81.386719 127.496094 81.28125 127.566406 C 81.070312 127.742188 80.855469 127.921875 80.644531 128.097656 C 76.816406 131.851562 72.566406 136.496094 69.941406 142.375 C 69.835938 142.625 69.695312 142.910156 69.589844 143.15625 C 69.058594 144.324219 68.492188 145.53125 68.277344 146.839844 L 68.277344 146.914062 C 66.71875 150.84375 65.976562 154.921875 66.046875 158.996094 C 66.082031 161.863281 66.613281 164.59375 67.570312 167.144531 L 67.78125 167.710938 Z M 67.816406 129.335938 C 69.304688 128.238281 70.367188 127.175781 71.359375 126.183594 C 72.601562 124.945312 73.523438 123.882812 74.300781 122.816406 C 77.808594 118.070312 78.835938 113.394531 77.417969 108.503906 C 77.277344 108.042969 77.101562 107.617188 76.921875 107.191406 C 76.851562 106.980469 76.746094 106.804688 76.675781 106.589844 L 76.460938 106.09375 L 76.921875 106.378906 C 77.914062 106.980469 79.050781 108.824219 79.6875 110.878906 C 80.113281 112.222656 80.253906 113.640625 80.183594 115.199219 C 82.273438 110.488281 81.777344 105.703125 78.695312 100.601562 L 78.339844 100 L 78.941406 100.320312 C 80.855469 101.382812 83.054688 104.605469 83.621094 107.226562 C 84.46875 111.195312 83.621094 115.09375 81 119.132812 C 77.738281 124.128906 72.992188 127.175781 68.738281 129.515625 C 68.632812 129.585938 68.527344 129.585938 68.347656 129.621094 C 68.242188 129.621094 68.101562 129.65625 67.921875 129.691406 Z M 67.039062 123.988281 C 66.082031 118.425781 60.835938 116.441406 56.265625 116.441406 C 55.59375 116.441406 54.882812 116.476562 54.210938 116.582031 C 53.820312 116.617188 53.46875 116.652344 53.078125 116.6875 L 52.792969 116.722656 L 52.6875 116.371094 C 56.691406 113.746094 60.234375 112.507812 63.882812 112.507812 C 64.027344 112.507812 64.132812 112.507812 64.273438 112.507812 C 65.480469 112.542969 66.894531 112.648438 68.101562 113.535156 C 68.171875 113.605469 68.347656 113.605469 68.492188 113.640625 C 66.859375 111.726562 64.558594 110.628906 61.121094 110.167969 L 60.695312 110.097656 L 60.660156 109.742188 C 63.28125 108.964844 65.65625 108.574219 67.886719 108.574219 C 69.375 108.574219 70.863281 108.75 72.28125 109.070312 C 73.488281 109.355469 74.335938 109.957031 74.761719 110.769531 C 75.1875 111.621094 75.117188 112.71875 74.585938 113.925781 C 73.804688 115.695312 72.671875 118 70.972656 119.984375 C 70.617188 120.375 70.261719 120.796875 69.941406 121.222656 C 69.164062 122.179688 68.3125 123.171875 67.390625 124.058594 L 67.144531 124.304688 Z M 99.742188 117.183594 C 99.636719 117.183594 99.53125 117.148438 99.457031 117.113281 L 99.210938 116.972656 L 99.421875 116.792969 C 115.6875 103.011719 125.324219 84.585938 128.050781 62.015625 L 128.085938 61.699219 L 128.335938 61.875 C 128.511719 62.015625 128.511719 62.300781 128.511719 62.582031 C 128.511719 62.652344 128.511719 62.761719 128.511719 62.832031 C 128.902344 75.730469 126.527344 86.925781 121.320312 97.058594 C 116.890625 105.632812 109.875 112.332031 100.414062 116.902344 C 100.34375 116.9375 100.308594 116.972656 100.238281 117.007812 C 100.097656 117.078125 99.917969 117.183594 99.742188 117.183594 Z M 104.488281 99.859375 C 104.488281 99.824219 104.488281 99.789062 104.488281 99.75 C 104.488281 99.75 104.488281 99.714844 104.488281 99.679688 C 104.488281 99.398438 104.597656 99.148438 104.703125 98.972656 C 104.738281 98.9375 104.773438 98.867188 104.808594 98.796875 C 104.84375 98.757812 104.878906 98.6875 104.914062 98.652344 C 104.949219 98.617188 104.949219 98.582031 104.984375 98.546875 C 107.464844 93.621094 109.023438 89.40625 109.804688 85.222656 C 110.621094 80.9375 110.65625 77.464844 109.910156 74.242188 C 109.308594 71.652344 108.28125 69.632812 106.757812 68.109375 C 106.332031 67.683594 106.332031 67.367188 106.722656 66.941406 C 111.1875 61.839844 111.328125 55.78125 110.902344 50.535156 C 110.832031 49.828125 110.726562 49.117188 110.621094 48.410156 C 110.546875 48.089844 110.511719 47.773438 110.476562 47.453125 L 110.40625 46.957031 L 110.796875 47.277344 C 113.171875 49.296875 118.554688 60.953125 119.761719 66.765625 C 121.320312 74.132812 120.824219 81.292969 118.308594 88.058594 L 117.953125 87.953125 C 119.300781 82.175781 118.804688 76.152344 116.429688 69.632812 C 116.679688 71.9375 116.714844 74.203125 116.535156 76.402344 C 116.5 76.722656 116.464844 77.003906 116.429688 77.324219 C 116.394531 77.640625 116.359375 77.960938 116.289062 78.316406 C 116.253906 78.597656 116.21875 78.882812 116.148438 79.164062 L 116.078125 79.625 C 116.039062 79.910156 115.96875 80.15625 115.898438 80.441406 L 115.863281 80.617188 C 115.828125 80.832031 115.757812 81.078125 115.6875 81.292969 C 115.652344 81.363281 115.652344 81.433594 115.617188 81.503906 C 115.582031 81.714844 115.507812 81.929688 115.4375 82.140625 C 115.226562 82.957031 114.976562 83.738281 114.695312 84.515625 C 114.625 84.726562 114.550781 84.941406 114.445312 85.152344 C 113.84375 86.710938 113.101562 88.308594 112.25 89.867188 C 112.109375 90.113281 112 90.328125 111.859375 90.574219 C 111.1875 91.742188 110.441406 92.914062 109.59375 94.082031 C 109.414062 94.332031 109.238281 94.578125 109.0625 94.792969 C 109.0625 94.792969 109.023438 94.828125 109.023438 94.863281 C 108.847656 95.109375 108.671875 95.359375 108.492188 95.570312 C 108.492188 95.570312 108.28125 95.855469 108.210938 95.960938 C 107.925781 96.316406 107.644531 96.703125 107.324219 97.058594 C 107.003906 97.449219 106.722656 97.804688 106.402344 98.15625 L 106.085938 98.546875 C 105.871094 98.796875 105.660156 99.007812 105.445312 99.253906 C 105.234375 99.503906 105.019531 99.75 104.808594 99.964844 L 104.5625 100.210938 Z M 41.242188 90.257812 C 45.070312 86.960938 49.816406 85.152344 56.65625 84.339844 L 56.726562 84.691406 C 51.625 86.039062 46.488281 87.988281 41.457031 90.539062 Z M 34.792969 89.6875 C 35.007812 89.335938 35.21875 88.980469 35.433594 88.625 C 36.351562 87.066406 37.273438 85.4375 39.292969 84.765625 C 41.5625 84.054688 43.9375 83.773438 46.167969 83.558594 L 46.238281 83.558594 L 46.417969 83.738281 L 46.417969 83.878906 L 46.378906 83.914062 C 45.496094 85.472656 44.042969 86.394531 42.730469 87.101562 C 41.171875 87.953125 39.472656 88.484375 37.804688 89.015625 C 36.886719 89.300781 35.929688 89.617188 34.972656 89.972656 L 34.441406 90.183594 Z M 122.984375 65.453125 C 123.164062 62.617188 122.84375 59.640625 122.101562 56.277344 C 121.355469 52.980469 120.257812 50.183594 118.628906 47.382812 L 118.910156 47.132812 C 122.101562 49.792969 125.609375 60.667969 123.339844 65.523438 Z M 83.300781 62.441406 C 84.363281 60.777344 85.25 59.253906 85.957031 57.695312 C 86.136719 57.339844 86.277344 56.984375 86.417969 56.628906 L 86.417969 56.59375 L 86.453125 56.558594 C 86.597656 56.207031 86.738281 55.816406 86.878906 55.460938 C 87.09375 54.894531 87.269531 54.292969 87.445312 53.726562 C 88.757812 49.191406 89.078125 44.867188 88.472656 40.613281 C 88.226562 41.324219 87.941406 41.996094 87.660156 42.632812 C 87.519531 42.917969 87.410156 43.167969 87.269531 43.414062 C 87.199219 43.589844 87.09375 43.734375 87.023438 43.910156 C 86.84375 44.265625 86.632812 44.546875 86.453125 44.832031 C 85.640625 46.140625 84.648438 47.382812 83.441406 48.585938 C 83.195312 48.835938 82.945312 49.082031 82.664062 49.332031 C 82.523438 49.472656 82.378906 49.578125 82.238281 49.722656 C 81.847656 50.074219 81.421875 50.429688 81.035156 50.75 C 80.75 50.960938 80.464844 51.210938 80.183594 51.421875 L 80.148438 51.457031 C 79.722656 51.777344 79.296875 52.09375 78.835938 52.414062 C 78.519531 52.625 78.234375 52.839844 77.914062 53.015625 L 77.382812 53.371094 L 77.667969 52.769531 C 77.738281 52.625 77.808594 52.484375 77.878906 52.34375 L 77.988281 52.167969 L 78.128906 51.988281 C 78.164062 51.917969 78.199219 51.847656 78.269531 51.8125 C 78.304688 51.742188 78.375 51.671875 78.410156 51.632812 C 78.589844 51.421875 78.765625 51.175781 78.941406 50.960938 C 78.980469 50.890625 79.050781 50.855469 79.085938 50.785156 C 79.296875 50.5 79.546875 50.21875 79.757812 49.933594 C 81.601562 47.242188 83.371094 44.300781 83.089844 40.578125 C 82.945312 38.878906 82.414062 37.496094 81.457031 36.363281 L 81.386719 36.292969 C 81.140625 36.007812 80.855469 35.65625 81.246094 35.085938 C 85.851562 28.25 88.191406 20.488281 89.714844 14.464844 C 90.070312 13.121094 90.351562 11.773438 90.671875 10.355469 C 90.8125 9.71875 90.953125 9.082031 91.097656 8.441406 L 91.238281 7.839844 L 91.449219 8.40625 C 91.875 9.503906 92.054688 10.605469 92.265625 11.667969 C 92.335938 11.984375 92.371094 12.339844 92.441406 12.660156 C 94.25 21.765625 95.632812 30.199219 96.695312 38.523438 C 97.402344 44.015625 97.828125 49.933594 96.234375 55.816406 C 95.632812 58.046875 94.992188 60.171875 93.613281 62.050781 L 93.292969 61.910156 C 94.640625 56.808594 94.78125 51.953125 93.753906 47.132812 C 93.398438 48.660156 92.972656 50.324219 92.300781 51.917969 C 90.671875 55.886719 87.941406 59.429688 83.972656 62.652344 C 83.902344 62.726562 83.832031 62.726562 83.761719 62.761719 C 83.726562 62.761719 83.691406 62.761719 83.691406 62.761719 C 83.691406 62.761719 83.65625 62.761719 83.621094 62.761719 C 83.585938 62.761719 83.550781 62.761719 83.550781 62.761719 L 83.054688 62.832031 Z M 83.300781 62.441406 " fill-opacity="1" fill-rule="nonzero"/><g clip-path="url(#2905a0a5a8)"><path fill="#bf4488" d="M 67.25 167.25 C 66.257812 164.664062 65.726562 161.863281 65.691406 158.960938 C 65.621094 154.847656 66.363281 150.738281 67.960938 146.734375 L 68.417969 145.992188 C 69.445312 144.289062 70.511719 142.519531 71.785156 140.925781 C 74.867188 137.097656 78.660156 133.980469 82.34375 130.96875 L 83.40625 130.082031 C 89.960938 124.695312 94.390625 119.453125 97.332031 113.570312 C 99.53125 109.175781 100.804688 104.25 101.300781 98.050781 C 101.972656 89.617188 100.167969 81.679688 95.984375 74.417969 C 95.949219 74.347656 95.914062 74.3125 95.878906 74.277344 C 97.617188 78.171875 98.429688 81.363281 98.574219 84.550781 L 98.21875 84.65625 C 90.847656 70.980469 78.980469 63.222656 61.015625 60.386719 C 65.019531 61.660156 68.457031 63.292969 71.46875 65.3125 C 77.773438 69.597656 81.53125 75.269531 82.664062 82.210938 C 82.839844 83.3125 83.019531 84.65625 82.910156 86.214844 L 82.910156 86.464844 L 82.664062 86.359375 C 79.757812 85.261719 76.996094 84.691406 74.160156 84.621094 C 73.910156 84.621094 73.664062 84.621094 73.449219 84.621094 C 71.078125 84.621094 68.949219 84.835938 66.96875 85.332031 C 67.109375 85.332031 67.214844 85.332031 67.355469 85.332031 C 68.988281 85.332031 70.6875 85.332031 72.351562 85.648438 C 74.796875 86.109375 76.886719 86.820312 78.765625 87.847656 C 80.785156 88.945312 82.628906 90.363281 84.257812 91.992188 C 85.816406 93.585938 87.164062 95.464844 88.296875 97.589844 C 89.289062 99.503906 90.035156 101.59375 90.492188 104.003906 C 90.953125 106.269531 91.0625 108.539062 90.847656 110.914062 L 90.492188 110.949219 L 90.351562 110.453125 C 89.960938 109.210938 89.574219 107.902344 88.96875 106.695312 C 85.214844 99.148438 79.15625 94.613281 70.898438 93.230469 C 68.988281 92.914062 67.109375 92.734375 65.265625 92.734375 C 57.257812 92.734375 49.851562 95.675781 42.625 101.769531 C 40.996094 103.152344 39.363281 104.605469 37.769531 106.023438 C 35.21875 108.289062 32.632812 110.628906 29.871094 112.71875 C 23.882812 117.328125 17.820312 120.375 11.300781 122.003906 C 10.734375 122.144531 10.664062 122.320312 10.699219 122.890625 L 10.699219 123.136719 C 10.734375 124.519531 10.804688 125.9375 10.273438 127.316406 C 9.851562 128.417969 9.320312 128.984375 8.679688 128.984375 C 8.21875 128.984375 7.6875 128.699219 7.085938 128.132812 C 6.058594 127.140625 4.820312 126.324219 3.222656 125.582031 C 1.628906 124.839844 0.777344 123.277344 0.246094 122.144531 C 0.0703125 121.753906 0.105469 121.222656 0.355469 120.65625 C 0.671875 119.84375 1.3125 119.167969 1.914062 118.957031 C 1.984375 118.921875 2.054688 118.921875 2.125 118.921875 C 2.265625 118.921875 2.375 118.992188 2.480469 119.027344 L 2.550781 119.0625 C 5.277344 120.480469 7.226562 121.824219 8.785156 123.421875 C 9.070312 122.5 8.824219 121.824219 7.9375 121.222656 C 6.875 120.515625 5.882812 119.734375 4.820312 118.957031 C 4.359375 118.601562 3.933594 118.28125 3.472656 117.929688 L 3.332031 117.75 L 4.605469 116.476562 C 5.632812 115.449219 6.660156 114.421875 7.722656 113.359375 C 13.675781 107.261719 18.140625 101.3125 21.367188 95.179688 C 22.429688 93.160156 22.746094 91.285156 22.429688 89.226562 C 21.152344 81.078125 21.933594 73.175781 24.835938 65.773438 C 24.980469 65.417969 25.15625 64.992188 25.476562 64.566406 L 25.867188 64.035156 L 25.828125 64.710938 C 25.757812 65.488281 25.652344 66.234375 25.546875 67.046875 C 25.371094 68.21875 25.226562 69.421875 25.191406 70.695312 C 27.035156 66.445312 28.734375 63.222656 30.648438 60.316406 C 33.875 55.355469 37.984375 50.820312 43.191406 46.460938 C 43.863281 45.894531 44.539062 45.292969 45.175781 44.726562 L 45.636719 44.335938 C 45.957031 44.050781 45.992188 43.804688 45.777344 43.378906 C 43.296875 38.738281 42.304688 33.8125 41.347656 28.285156 C 40.074219 21.019531 39.613281 13.652344 39.96875 6.351562 C 39.96875 6.210938 39.96875 6.070312 39.96875 5.925781 C 39.96875 5.644531 40.003906 5.394531 40.003906 5.113281 C 40.039062 4.652344 40.074219 4.226562 40.144531 3.730469 L 40.25 2.808594 L 40.535156 3.128906 C 41.03125 3.695312 41.527344 4.261719 42.023438 4.792969 C 43.121094 6.03125 44.148438 7.203125 45.210938 8.335938 C 52.332031 15.882812 60.199219 22.542969 68.527344 28.109375 C 68.808594 28.285156 69.058594 28.496094 69.09375 28.78125 C 69.128906 28.992188 69.023438 29.242188 68.773438 29.558594 C 61.121094 39.480469 54.601562 46.496094 47.691406 52.273438 C 41.457031 57.480469 36.921875 63.113281 33.875 69.492188 C 37.804688 62.230469 43.546875 56.558594 48.152344 52.378906 C 50.878906 49.898438 53.679688 47.417969 56.40625 45.007812 L 58.355469 43.273438 C 58.640625 43.023438 58.921875 42.8125 59.207031 42.597656 C 59.3125 42.527344 59.382812 42.457031 59.492188 42.386719 L 59.277344 42.066406 L 59.703125 42.210938 L 60.023438 41.925781 C 60.023438 41.925781 60.058594 42.351562 60.058594 42.386719 L 60.09375 42.386719 C 60.09375 42.421875 60.09375 42.707031 60.09375 42.707031 L 60.058594 42.707031 C 60.023438 42.777344 59.988281 42.847656 59.953125 42.882812 C 59.953125 42.917969 59.914062 42.917969 59.914062 42.953125 C 58.816406 45.1875 58.214844 47.667969 57.789062 49.96875 C 59.347656 44.832031 62.042969 39.800781 66.433594 33.8125 C 67.179688 32.820312 67.921875 31.792969 68.632812 30.800781 C 73.414062 24.316406 78.375 17.585938 82.523438 10.496094 C 82.980469 9.753906 83.40625 8.972656 83.867188 8.230469 C 85.109375 6.105469 86.382812 3.90625 87.695312 1.78125 C 87.765625 1.710938 87.800781 1.605469 87.871094 1.496094 C 88.226562 0.859375 88.6875 0.0820312 89.609375 0.0820312 C 89.644531 0.0820312 89.679688 0.0820312 89.75 0.0820312 C 90.882812 0.152344 91.308594 1.25 91.59375 1.992188 C 91.910156 2.878906 92.265625 3.730469 92.585938 4.617188 C 96.058594 13.617188 99.601562 22.96875 101.726562 32.605469 C 104.382812 44.617188 103.816406 55.957031 99.988281 67.152344 C 107.785156 58.152344 109.839844 47.382812 106.4375 33.28125 L 106.367188 33.03125 L 106.617188 33.066406 C 107.183594 33.101562 107.289062 33.457031 107.359375 33.707031 C 107.359375 33.742188 107.394531 33.8125 107.429688 33.847656 C 108.777344 36.609375 110.511719 39.234375 112.179688 41.75 C 112.710938 42.5625 113.242188 43.378906 113.773438 44.195312 C 117.316406 49.6875 119.621094 54.929688 120.859375 60.246094 C 120.257812 54.503906 118.554688 48.835938 115.582031 42.953125 C 115.011719 41.820312 114.375 40.722656 113.738281 39.660156 C 113.453125 39.164062 113.136719 38.632812 112.851562 38.136719 C 112.78125 38.0625 112.675781 37.957031 112.605469 37.851562 L 112.53125 37.746094 C 112.460938 37.675781 112.390625 37.566406 112.390625 37.425781 C 112.390625 37.320312 112.460938 37.25 112.570312 37.179688 L 112.605469 37.144531 L 112.675781 37.144531 C 112.78125 37.144531 112.816406 37.214844 112.921875 37.320312 C 112.957031 37.355469 112.957031 37.355469 112.992188 37.390625 L 113.3125 37.675781 C 119.476562 43.769531 123.480469 51.136719 125.21875 59.535156 C 125.464844 60.707031 125.714844 61.910156 126.03125 63.148438 C 126.457031 56.59375 125.855469 50.679688 124.261719 45.078125 L 124.191406 44.867188 L 124.402344 44.832031 C 124.4375 44.832031 124.472656 44.832031 124.507812 44.832031 C 124.96875 44.832031 125.039062 45.222656 125.113281 45.433594 C 125.113281 45.46875 125.148438 45.539062 125.148438 45.574219 C 127.875 52.945312 129.539062 59.890625 130.214844 66.730469 C 132.054688 85.507812 126.742188 102.976562 113.949219 120.089844 C 109.839844 125.582031 104.738281 130.898438 97.898438 136.847656 L 97.652344 137.0625 C 97.582031 137.097656 97.15625 137.488281 97.15625 137.488281 C 97.15625 137.488281 97.121094 137.523438 97.121094 137.558594 C 97.011719 137.664062 96.976562 137.734375 96.871094 137.734375 L 96.835938 137.734375 L 96.800781 137.699219 C 96.695312 137.628906 96.625 137.558594 96.589844 137.453125 C 96.554688 137.308594 96.660156 137.203125 96.730469 137.132812 C 96.730469 137.132812 96.976562 136.847656 96.976562 136.847656 C 97.011719 136.8125 97.085938 136.742188 97.121094 136.707031 L 97.367188 136.425781 C 98.042969 135.539062 98.714844 134.652344 99.421875 133.765625 C 101.441406 131.179688 103.496094 128.488281 105.410156 125.757812 C 108.566406 121.257812 111.152344 116.867188 113.417969 112.402344 C 109.308594 118.175781 103.921875 123.492188 96.625 129.054688 C 94.78125 130.472656 92.867188 131.851562 91.027344 133.199219 C 87.554688 135.714844 83.972656 138.335938 80.679688 141.136719 C 75.257812 145.707031 71.890625 149.851562 69.800781 154.496094 C 67.675781 159.136719 67.214844 163.351562 68.347656 167.390625 C 68.382812 167.5 68.347656 167.570312 68.347656 167.675781 C 68.347656 167.746094 68.347656 167.816406 68.3125 167.886719 L 68.277344 168.3125 Z M 128.160156 64.035156 C 126.707031 74.417969 123.765625 83.914062 119.441406 92.382812 C 114.765625 101.453125 108.351562 109.601562 100.308594 116.546875 C 109.664062 112.011719 116.609375 105.421875 121 96.917969 C 125.996094 87.136719 128.335938 76.402344 128.160156 64.035156 Z M 110.972656 48.339844 C 111.082031 49.046875 111.222656 49.757812 111.257812 50.5 C 111.683594 55.496094 111.578125 61.945312 107.003906 67.152344 C 106.757812 67.4375 106.757812 67.542969 107.003906 67.828125 C 108.566406 69.386719 109.628906 71.476562 110.265625 74.132812 C 111.007812 77.394531 110.972656 80.9375 110.160156 85.261719 C 109.34375 89.476562 107.820312 93.726562 105.304688 98.6875 C 105.269531 98.722656 105.269531 98.796875 105.234375 98.832031 C 105.199219 98.867188 105.058594 99.148438 105.019531 99.148438 C 105.09375 99.078125 105.128906 99.007812 105.199219 98.972656 C 105.410156 98.722656 105.625 98.511719 105.835938 98.261719 L 106.15625 97.875 C 106.472656 97.519531 106.757812 97.164062 107.078125 96.777344 C 107.394531 96.386719 107.679688 96.03125 107.960938 95.675781 C 108.03125 95.570312 108.246094 95.289062 108.246094 95.289062 C 108.421875 95.039062 108.601562 94.792969 108.777344 94.542969 L 108.8125 94.507812 C 108.988281 94.257812 109.167969 94.046875 109.34375 93.800781 C 110.160156 92.628906 110.902344 91.460938 111.578125 90.328125 C 111.71875 90.078125 111.824219 89.867188 111.964844 89.617188 C 112.816406 88.09375 113.523438 86.535156 114.128906 84.976562 C 114.199219 84.765625 114.269531 84.550781 114.375 84.339844 C 114.660156 83.558594 114.90625 82.78125 115.121094 81.964844 C 115.191406 81.753906 115.226562 81.539062 115.296875 81.328125 C 115.332031 81.257812 115.332031 81.183594 115.367188 81.113281 C 115.4375 80.902344 115.472656 80.6875 115.507812 80.441406 L 115.542969 80.265625 C 115.617188 80.015625 115.652344 79.734375 115.722656 79.484375 L 115.792969 79.023438 C 115.828125 78.742188 115.898438 78.457031 115.933594 78.171875 C 115.96875 77.855469 116.039062 77.535156 116.078125 77.214844 C 116.113281 76.898438 116.148438 76.613281 116.183594 76.296875 C 116.429688 73.601562 116.324219 70.839844 115.863281 68.003906 L 116.21875 67.898438 C 118.734375 74.097656 119.585938 79.839844 118.839844 85.367188 C 120.613281 79.414062 120.789062 73.175781 119.441406 66.800781 C 118.308594 61.484375 113.453125 50.714844 110.972656 47.914062 C 110.9375 48.054688 110.972656 48.199219 110.972656 48.339844 Z M 42.730469 64.78125 C 42.304688 65.277344 41.84375 65.773438 41.421875 66.269531 C 34.476562 74.382812 29.796875 84.230469 27.070312 96.421875 L 27.070312 96.492188 C 27.035156 96.5625 27.035156 96.667969 27.035156 96.703125 C 27.070312 96.632812 27.140625 96.5625 27.175781 96.457031 C 27.28125 96.207031 27.425781 95.925781 27.53125 95.675781 C 27.601562 95.5 27.671875 95.324219 27.777344 95.109375 C 30.367188 89.226562 33.625 85.402344 38.125 83.0625 C 41.878906 81.078125 46.0625 80.371094 50.382812 79.734375 C 50.917969 79.660156 51.449219 79.589844 51.945312 79.519531 C 52.085938 79.484375 52.226562 79.484375 52.367188 79.449219 C 52.332031 79.449219 52.296875 79.449219 52.261719 79.449219 C 48.082031 79.910156 44.324219 80.40625 40.570312 81.433594 C 38.230469 82.105469 36.105469 83.027344 34.085938 84.269531 L 33.730469 84.480469 L 33.765625 84.089844 C 34.757812 76.863281 38.230469 71.230469 42.730469 64.78125 Z M 53.929688 85.117188 C 49.320312 85.898438 45.777344 87.316406 42.835938 89.441406 C 46.488281 87.703125 50.207031 86.253906 53.929688 85.117188 Z M 45.921875 83.984375 C 43.792969 84.195312 41.527344 84.480469 39.402344 85.152344 C 37.523438 85.757812 36.636719 87.242188 35.714844 88.839844 C 35.609375 89.050781 35.46875 89.226562 35.359375 89.441406 C 36.140625 89.15625 36.921875 88.910156 37.699219 88.660156 C 39.402344 88.128906 41.03125 87.597656 42.554688 86.785156 C 43.828125 86.109375 45.070312 85.296875 45.921875 83.984375 Z M 119.726562 48.585938 C 120.929688 50.960938 121.851562 53.441406 122.488281 56.207031 C 123.164062 59.109375 123.480469 61.769531 123.445312 64.25 C 124.578125 59.75 122.242188 52.023438 119.726562 48.585938 Z M 86.808594 56.773438 C 86.667969 57.125 86.488281 57.515625 86.3125 57.871094 C 85.675781 59.253906 84.929688 60.632812 84.011719 62.085938 C 87.765625 58.933594 90.351562 55.53125 91.945312 51.707031 C 92.726562 49.863281 93.1875 47.878906 93.542969 46.179688 L 93.894531 46.179688 C 95.03125 50.925781 95.03125 55.886719 93.859375 60.917969 C 94.816406 59.324219 95.347656 57.550781 95.808594 55.710938 C 97.367188 49.863281 96.941406 44.015625 96.269531 38.558594 C 95.207031 30.269531 93.824219 21.800781 92.019531 12.730469 C 91.945312 12.410156 91.910156 12.054688 91.839844 11.738281 C 91.699219 10.886719 91.558594 10.035156 91.273438 9.152344 C 91.167969 9.578125 91.097656 10 90.988281 10.425781 C 90.671875 11.84375 90.386719 13.191406 90.035156 14.535156 C 88.511719 20.597656 86.136719 28.390625 81.496094 35.265625 C 81.246094 35.617188 81.351562 35.726562 81.601562 36.007812 L 81.671875 36.078125 C 82.699219 37.285156 83.265625 38.738281 83.40625 40.507812 C 83.726562 44.335938 81.8125 47.453125 80.042969 50.074219 C 79.828125 50.394531 79.582031 50.679688 79.367188 50.960938 C 79.332031 51.03125 79.15625 51.210938 79.15625 51.210938 C 78.980469 51.421875 78.835938 51.597656 78.660156 51.8125 C 78.625 51.882812 78.554688 51.917969 78.519531 51.988281 C 78.484375 52.058594 78.445312 52.09375 78.410156 52.167969 L 78.375 52.238281 C 78.445312 52.167969 78.554688 52.128906 78.625 52.058594 C 79.050781 51.777344 79.472656 51.457031 79.933594 51.136719 C 80.253906 50.890625 80.539062 50.679688 80.820312 50.464844 C 81.210938 50.144531 81.636719 49.792969 82.027344 49.4375 C 82.167969 49.332031 82.308594 49.191406 82.449219 49.046875 C 82.734375 48.800781 82.980469 48.550781 83.195312 48.304688 C 84.363281 47.097656 85.320312 45.894531 86.136719 44.617188 C 86.3125 44.335938 86.488281 44.050781 86.667969 43.734375 C 86.738281 43.589844 86.84375 43.414062 86.914062 43.273438 C 87.058594 43.023438 87.199219 42.742188 87.304688 42.492188 C 87.660156 41.785156 87.941406 41.039062 88.226562 40.261719 C 88.296875 40.082031 88.332031 39.90625 88.402344 39.730469 L 88.582031 39.125 L 88.757812 39.730469 C 88.828125 39.941406 88.828125 40.117188 88.828125 40.296875 C 88.828125 40.402344 88.828125 40.472656 88.863281 40.578125 C 89.5 44.902344 89.148438 49.261719 87.835938 53.867188 C 87.660156 54.46875 87.480469 55.035156 87.269531 55.636719 C 87.09375 55.992188 86.949219 56.382812 86.808594 56.773438 Z M 59.136719 32.429688 C 59.066406 32.5 58.996094 32.644531 58.960938 32.785156 C 58.921875 32.890625 58.886719 32.960938 58.851562 33.03125 C 57.4375 35.796875 55.699219 38.523438 53.644531 41.074219 C 51.484375 43.804688 48.96875 46.25 46.523438 48.585938 C 45.496094 49.613281 44.398438 50.640625 43.367188 51.707031 C 41.457031 53.652344 39.507812 55.710938 37.804688 58.046875 C 37.984375 57.800781 38.195312 57.585938 38.371094 57.339844 C 40.675781 54.503906 43.476562 52.09375 46.167969 49.792969 C 46.949219 49.117188 47.761719 48.410156 48.542969 47.738281 C 53.433594 43.414062 56.796875 38.667969 58.851562 33.28125 C 58.886719 33.175781 58.921875 33.101562 58.996094 32.996094 C 59.066406 32.820312 59.171875 32.644531 59.136719 32.429688 Z M 59.667969 134.902344 C 59.347656 132.347656 58.921875 129.335938 57.96875 126.363281 C 57.789062 125.792969 57.578125 125.085938 57.292969 124.34375 C 56.054688 121.152344 54.636719 119.984375 52.050781 119.984375 C 51.484375 119.984375 50.84375 120.054688 50.101562 120.160156 C 46.769531 120.726562 43.40625 121.933594 39.472656 123.988281 C 38.125 124.695312 36.8125 125.511719 35.539062 126.289062 C 33.910156 127.28125 32.207031 128.308594 30.472656 129.160156 C 26.113281 131.214844 22.179688 132.242188 18.355469 132.242188 C 16.546875 132.242188 14.773438 132.03125 13.039062 131.570312 L 11.550781 131.179688 L 11.976562 130.96875 C 12.222656 130.824219 12.4375 130.789062 12.683594 130.789062 C 12.863281 130.789062 13.039062 130.824219 13.144531 130.863281 C 13.925781 130.898438 14.738281 130.933594 15.484375 130.933594 C 20.90625 130.933594 25.582031 129.796875 29.726562 127.425781 C 33.554688 125.261719 37.0625 122.320312 41.136719 117.894531 C 44.007812 114.738281 46.628906 111.304688 49.144531 107.972656 L 49.996094 106.839844 C 50.136719 106.660156 50.3125 106.449219 50.457031 106.269531 C 50.527344 106.164062 50.632812 106.058594 50.703125 105.988281 L 50.84375 105.738281 C 50.878906 105.703125 50.878906 105.667969 50.878906 105.667969 C 50.953125 105.597656 51.023438 105.457031 51.199219 105.457031 C 51.269531 105.457031 51.375 105.492188 51.449219 105.5625 C 51.519531 105.632812 51.589844 105.738281 51.554688 105.8125 C 51.554688 105.953125 51.414062 106.058594 51.339844 106.09375 L 51.234375 106.308594 C 48.71875 110.769531 45.636719 115.199219 41.457031 120.265625 L 41.703125 120.089844 C 42.554688 119.488281 43.367188 118.886719 44.21875 118.28125 C 48.011719 115.519531 53.113281 112.117188 59.136719 110.132812 C 59.457031 110.027344 59.773438 109.957031 60.09375 109.886719 C 60.234375 109.851562 60.410156 109.816406 60.554688 109.777344 L 60.589844 109.777344 L 61.050781 109.851562 C 63.53125 110.167969 66.648438 110.914062 68.878906 113.675781 L 68.949219 113.78125 L 69.269531 114.386719 L 68.773438 114.136719 L 68.5625 114.03125 C 68.527344 114.03125 68.457031 113.996094 68.347656 113.996094 C 68.136719 113.960938 67.921875 113.925781 67.78125 113.820312 C 66.683594 112.96875 65.40625 112.898438 64.203125 112.863281 C 64.097656 112.863281 63.957031 112.863281 63.847656 112.863281 C 60.484375 112.863281 57.1875 113.925781 53.503906 116.226562 C 53.714844 116.191406 53.929688 116.191406 54.140625 116.15625 C 54.8125 116.085938 55.523438 116.015625 56.230469 116.015625 C 60.980469 116.015625 66.398438 118.070312 67.390625 123.882812 L 67.390625 123.953125 C 67.320312 124.589844 66.894531 124.910156 66.507812 125.191406 C 66.363281 125.296875 66.222656 125.40625 66.117188 125.546875 C 63.316406 128.382812 61.402344 131.359375 60.304688 134.582031 C 60.269531 134.6875 60.199219 134.757812 60.128906 134.828125 C 60.09375 134.867188 60.058594 134.9375 59.988281 135.007812 L 59.703125 135.359375 Z M 82.59375 124.449219 C 89.5 117.714844 93.328125 109.035156 93.964844 98.617188 C 94.535156 88.804688 91.167969 79.980469 83.9375 72.363281 L 84.1875 72.078125 C 91.910156 77.605469 96.515625 84.835938 97.828125 93.550781 C 98.890625 100.390625 97.863281 106.765625 94.816406 112.472656 C 92.125 117.503906 87.976562 121.753906 82.804688 124.730469 Z M 82.59375 124.449219 " fill-opacity="1" fill-rule="nonzero"/></g></svg>