<?xml version="1.0" encoding="UTF-8"?>
<svg id="Layer_1" data-name="Layer 1" xmlns="http://www.w3.org/2000/svg" xmlns:xlink="http://www.w3.org/1999/xlink" viewBox="0 0 755.12 315.19">
  <defs>
    <style>
      .cls-1 {
        fill: #f5d0ea;
      }

      .cls-2 {
        fill: #ff8db2;
      }

      .cls-3 {
        fill: #fef4f9;
      }

      .cls-4 {
        fill: url(#linear-gradient);
      }

      .cls-5 {
        fill: #c63173;
      }

      .cls-6 {
        fill: #d46394;
      }

      .cls-7 {
        fill: #fffefe;
      }

      .cls-8 {
        fill: #c94a86;
      }

      .cls-9 {
        fill: #fdcbdb;
      }

      .cls-10 {
        fill: #e079a4;
      }

      .cls-11 {
        fill: #ffb6cc;
      }

      .cls-12 {
        fill: #f9a2c4;
      }

      .cls-13 {
        fill: #e1b1d5;
      }

      .cls-14 {
        fill: #fee0e8;
      }
    </style>
    <linearGradient id="linear-gradient" x1="132.88" y1="117.16" x2="327.24" y2="265.33" gradientUnits="userSpaceOnUse">
      <stop offset=".37" stop-color="#d5518c"/>
      <stop offset="1" stop-color="#f67fa9"/>
    </linearGradient>
  </defs>
  <g id="Generative_Object" data-name="Generative Object">
    <path class="cls-1" d="M755.12,245.53v1.12c-53.8-.36-107.44.89-161.25,1.12-156.34.67-312.81.35-469.14-.56-41.57-.24-83.18.04-124.73-1.12v-.56h755.12Z"/>
    <path class="cls-3" d="M593.87,247.77l40.45,1.69c-171.86,1.01-345.02,1.84-515.77,0,.11-2.67,5.96,1.69,6.18-2.25,156.33.91,312.79,1.23,469.14.56Z"/>
    <g>
      <path class="cls-3" d="M124.73,247.21c-.22,3.94-6.07-.43-6.18,2.25-17.72-.19-52.6-3.44-68.26-.56-.27.05-3.34.71-2.25,1.69,211.9,1.9,423.55,1.84,635.44,0,.93-.72-.78-1.59-1.12-1.69-4.85-1.37-40.05.52-48.04.56l-40.45-1.69c53.8-.23,107.45-1.49,161.25-1.12v68.54H0v-69.11c41.55,1.16,83.16.88,124.73,1.12Z"/>
      <path class="cls-1" d="M164.34,253.95c137.76-1.09,275.69-1.2,413.52,0,27.4.24,54.95.49,82.31,1.97l-582.35.84.56-1.69c28.64-.12,57.33-.9,85.96-1.12Z"/>
      <path class="cls-1" d="M226.14,258.45c87.37-2.18,181.84-2.56,269.12,0,8.42.25,17.24.61,25.56,1.97,0,1.03-18.7,1.36-20.51,1.4-90.05,2.34-185.74,1.93-275.86,0-8.39-.18-17.24-.33-25.56-1.4,0-1.37,24.94-1.91,27.25-1.97Z"/>
      <path class="cls-1" d="M118.55,249.46c170.75,1.84,343.91,1.01,515.77,0,7.99-.05,43.19-1.93,48.04-.56.35.1,2.06.97,1.12,1.69-211.9,1.84-423.54,1.9-635.44,0-1.09-.98,1.98-1.64,2.25-1.69,15.66-2.88,50.55.37,68.26.56Z"/>
    </g>
    <g>
      <path class="cls-3" d="M456.22,238.22c7.04,3.25,49.48.51,61.24.56,4.39.02,9,.55,13.48.56,27.71.09,55.44-.04,83.15,0,11.98.02,23.98-.03,35.96,0,28.64.07,57.35.78,85.96.56,5.17-.04,10-.05,15.17-.56,1.28-.13,2.64.09,3.93,0v6.18H0v-6.18h97.2c58.79,0,117.64-.52,176.42-.56.55,0,1.14,0,1.69,0,19.28-.01,38.59,0,57.87,0,40.29,0,80.73,1.17,121.08.56l-33.99-21.91c11.44,5.96,25.32,15.88,35.96,20.79Z"/>
      <path class="cls-5" d="M273.62,238.22v.56c-58.78.04-117.62.56-176.42.56l176.42-1.12Z"/>
      <path class="cls-1" d="M132.31,242.72c169.89,1.32,340.04.22,509.87.28l-254.23,1.4-255.64-1.69Z"/>
      <path class="cls-10" d="M275.3,238.78c-.55,0-1.14,0-1.69,0v-.56l1.69.56Z"/>
    </g>
    <g>
      <path class="cls-5" d="M321.37,183.72c-2.16,4.49-34.35,21.2-40.45,23.6-14,2.83-27.93,7.24-41.3,12.36-4.46,1.71-13.07,4.69-16.86,6.74-.63.34-1.98.83-1.12,1.69,8.59-3.29,17.14-7.14,25.84-10.11,7.85-2.68,16.87-4.57,24.44-7.3h28.09c-9.74,4.75-20.08,8.38-29.78,13.2-.29,1.08,1.64.38,1.97.28,7.25-2.13,21.7-8.98,29.22-12.36,1.3-.58,5.43-2.14,5.34-3.93,5.59-3.1,16.4-13.22,20.23-18.54.89,2.4.5,4.6,1.12,7.3-7.71,8.73-18.67,14-26.13,22.47,3.35-3.08,7.98-5.25,11.52-7.87,3.48,2.33,5.16-.98,8.15-2.81.52-.32,4.11-.84,4.49-1.12.91-.67,3.66-6.47,3.65-7.87l2.25-1.69c.21,1.61.96,3.8.56,5.34-.31,1.21-9.24,9.97-9.55,11.24-.72,2.89,4.67,13.51,6.18,16.57,1.3,2.62,2.62,5.25,3.93,7.87-19.28,0-38.59-.01-57.87,0l-1.69-.56-121.08-.56c-.86-.86.49-1.34,1.12-1.69,6.85-3.76,23.7-9.84,31.74-12.92,2.71-1.04,17.23-6.78,18.82-6.74,2.33.06,1.09,1.76,1.69,1.69,1.09-.13,17.12-6.35,19.38-7.3l-37.92,16.86,62.93-23.6c-.38-1.25-2.33,0-.56-1.69,2.75-2.62,33.9-22.02,38.77-24.72,2.01-1.12,6.72-.71,5.9-2.81,3.06-.99,6.27-1.62,9.27-2.81l-3.65,10.39c2.21-.21,4.48-2.88,6.18-3.65,1.16-.52,2.8-1.41,3.93-1.69.1-.02,1.36.65,1.97-.56,1.92,1.2-5.21,6.56-3.37,8.43,3.57-5.16,6.79-11.47,12.92-14.05,1.15.82-2.81,11.37-.28,12.92Z"/>
      <path class="cls-5" d="M225.3,210.69c8.33-3.5,14.22-7.28,21.91-11.8,10.13-5.95,18.5-12.52,28.09-18.54,6.54,2.09,12.21-3.39,19.1-5.62.82,2.1-3.88,1.69-5.9,2.81-4.87,2.7-36.02,22.1-38.77,24.72-1.77,1.69.18.43.56,1.69l-62.93,23.6,37.92-16.86Z"/>
      <path class="cls-6" d="M247.21,198.89c-7.69,4.52-13.58,8.3-21.91,11.8-2.26.95-18.29,7.17-19.38,7.3-.59.07.65-1.62-1.69-1.69-1.6-.04-16.11,5.7-18.82,6.74-.85-4.05,7.16-4.27,10.39-5.62,13.71-5.71,24.22-8.6,37.64-13.48,3.55-1.29,9.81-6.04,12.36-6.74,2.32-.64,1.23-.13,1.4,1.69Z"/>
      <path class="cls-6" d="M239.91,113.49c-.55,1.41-1.66,2.64-2.25,3.93-3.37,3.4-7.07,6.42-10.68,9.55-1.63,1.42-14.58,13.31-16.29,10.96l12.92-16.01c5.04-3.01,10.5-7.38,16.29-8.43Z"/>
      <path class="cls-6" d="M240.47,108.44c-2.33,4.28-8.8,6.4-12.92,8.99-.3-2.37,3.27-5.2,4.49-7.02.2-.29-.19-1.72,0-1.97,2.23.15,6.73-.47,8.43,0Z"/>
      <path class="cls-5" d="M235.41,122.48l-8.43,4.49c3.61-3.13,7.31-6.15,10.68-9.55-.78,1.7-1.27,3.42-2.25,5.06Z"/>
      <g>
        <path class="cls-4" d="M359.58,130.35l.84,2.25-14.05,17.42,21.07-24.16c3.56,4.91,6.5,10.19,8.99,15.73-2.76,5.96-3.66,12.58-5.62,18.82-.17.53-2.4,2.34-.84,3.65,1.23-1,1.39-2.62,1.97-3.93,2.95,1.91,6.31-6.01,8.43-7.3,9.96,22.86,22.06,32.64,42.42,46.07,5.13,3.38,10.68,6.5,16.01,9.55,5.65,3.98,11.26,8.15,17.14,11.8,4.22,2.62,10.69,4.53,13.48,8.43-15.68-4.64-30.16-12.28-44.67-19.66-12.98-6.61-29.71-14.88-41.86-22.47-15.81-9.89-30.79-24.09-46.63-34.27-.46.41-1.41.99-1.97,1.12-8.36,2.06-27.86,9.72-35.96,13.48-6.81,3.17-16.48,9.37-23.04,13.48-9.59,6.02-17.96,12.59-28.09,18.54-.18-1.82.92-2.33-1.4-1.69-2.55.7-8.81,5.45-12.36,6.74-13.42,4.88-23.93,7.77-37.64,13.48-3.23,1.35-11.25,1.57-10.39,5.62-8.04,3.08-24.9,9.17-31.74,12.92-.63.35-1.98.83-1.12,1.69l121.08.56-176.42,1.12H0v-2.25c16.58-5.75,33.41-17.44,49.72-23.04,9.7-3.33,21.94-4.1,31.46-7.3,10.42-3.51,46.49-26.8,56.18-34.27,8.42-6.5,17.38-19.32,25.28-24.72,8.12-5.55,23.06-10.34,32.59-15.73,12.43-7.04,23.52-15.93,35.12-24.16.69.37.84.5,1.69.56-.19.25.2,1.67,0,1.97-1.23,1.82-4.79,4.65-4.49,7.02-13.04,8.2-26.48,17.29-38.77,25.56,12.07-6.22,23.18-14.11,34.83-21.07l-12.92,16.01c1.71,2.36,14.66-9.54,16.29-10.96l8.43-4.49c-3.11,5.2-11.41,15.78-16.01,19.66-5.86,4.94-15.96,8-20.23,14.61,17.28-5.73,32.18-16.47,48.04-24.72l-26.69,38.77,29.5-40.45c6.83-3.54,23.95-12.52,30.62-14.05,1.05-.24,1.12-.89,1.97.28-.12,2.86-20.91,22.57-24.16,26.69-4.14,5.25-9.82,14.58-13.48,20.51-2.89,4.68-6.36,10.26-8.15,15.45,7.81-10.07,14.53-26.15,22.75-35.4,5.33-6,15.16-9.66,21.07-14.61,8.12-6.79,14.03-17.87,25-21.91-12.52,14.16-23.66,35.07-38.21,48.6-2.23,3.06-4.27,5.99-6.18,9.27-.41.46-2.34,1.08-1.4,2.25,1.22.18,1.14-1.8,1.4-2.25,16.54-18.83,33.27-38.31,46.63-59.56,3.21-2.87,21.62-16.68,25-18.54.65-.36,1.19-1.39,1.4.28-9.56,11.63-14.29,27.59-26.97,36.24,1.91-2.78,4.69-7.38,6.18-10.39.26-.53,1.23-2.98-.56-1.12-4.89,7.09-9.56,14.71-14.61,21.63-2.66,3.64-6.24,6.55-8.15,10.68l29.5-19.66c-4.08,4.32-7.71,14.51-11.8,19.38.12,2.18-4.3,5.67-2.53,7.58l14.89-27.53c2.2-2.03,6.73-2.83,8.15-3.93,4.83-3.78,9.89-8.8,14.89-12.92l-12.64,24.16c5.32-7.38,9.99-18.68,15.45-25.56,1.91-2.41,6.56-2.96,7.3-7.58,6.41-5.24,13.19-10.03,19.66-15.17l-9.83,23.6,10.96-24.16c.93-.75,1.48-2.4,2.81-2.81,0,4.81,1.13,15.67.56,19.38-.86,5.66-16.81,25.22-20.23,31.46.85.76,1.53.04,2.25-.28Z"/>
        <g>
          <path class="cls-5" d="M261.26,165.18c1.91-3.28,3.95-6.21,6.18-9.27,14.55-13.53,25.69-34.44,38.21-48.6.64-.73,1.56-1.07,2.25-1.69-13.36,21.24-30.09,40.72-46.63,59.56Z"/>
          <path class="cls-5" d="M239.91,113.49c-5.79,1.05-11.25,5.42-16.29,8.43-11.66,6.95-22.77,14.85-34.83,21.07,12.29-8.28,25.73-17.36,38.77-25.56,4.13-2.59,10.59-4.71,12.92-8.99,1.07.3,1.23-.28,1.12,1.4-.97,1.02-1.21,2.42-1.69,3.65Z"/>
          <path class="cls-5" d="M247.21,132.03c.94-.49,1.81-1.17,2.81-1.69l-29.5,40.45,26.69-38.77Z"/>
          <path class="cls-5" d="M179.51,160.69c-5.89,16.94-14.19,33.1-23.6,48.32,7.82-16.12,16.13-32.01,23.6-48.32Z"/>
          <path class="cls-5" d="M197.49,157.88l-10.11,21.91-12.36,21.35c6.7-14.81,15.65-28.49,22.47-43.26Z"/>
          <path class="cls-8" d="M119.95,201.7c.41-.06,1.23-.14,1.4.28l-4.78,3.09c-14.18,6.68-29.15,12.42-44.67,14.89,10.44-3.66,21.43-5.79,31.74-9.83,2.81-1.1,15.07-8.26,16.29-8.43Z"/>
          <path class="cls-5" d="M259.57,143.83c-8.22,9.25-14.94,25.32-22.75,35.4,1.78-5.19,5.26-10.77,8.15-15.45,3.66-5.93,9.34-15.25,13.48-20.51l1.12.56Z"/>
          <path class="cls-5" d="M137.37,202.83c1.25.74-2.41,3.56-2.81,3.93-4.06,3.77-8.98,6.75-12.92,10.68l-21.63,14.89,37.36-29.5Z"/>
          <path class="cls-5" d="M57.03,223.05c.49,0,1.29-.16,1.4.28-12.49,4.02-25.43,8.53-38.21,12.36l36.8-12.64Z"/>
          <path class="cls-5" d="M307.33,123.61c-2.53,3.7-5.63,7.16-8.99,10.11,5.04-6.92,9.72-14.54,14.61-21.63,1.79-1.86.82.59.56,1.12-1.49,3.02-4.27,7.61-6.18,10.39Z"/>
          <g>
            <path class="cls-5" d="M367.45,125.85l-21.07,24.16,14.05-17.42-.84-2.25c1.45-.65,6.42-5.16,7.87-4.49Z"/>
            <path class="cls-5" d="M343.29,107.31c3.4-2.8,6.63-6.15,10.11-8.99-.74,4.63-5.39,5.18-7.3,7.58-5.46,6.89-10.13,18.19-15.45,25.56l12.64-24.16Z"/>
            <path class="cls-5" d="M319.69,124.73c.21-.22.33-.35.56-.56l-14.89,27.53c-1.77-1.91,2.65-5.41,2.53-7.58,4.09-4.88,7.72-15.06,11.8-19.38Z"/>
            <path class="cls-5" d="M373.06,83.15c.17-.13.96-.43,1.12-.56l-10.96,24.16,9.83-23.6Z"/>
            <path class="cls-8" d="M377.56,143.83c-2.99,4.49-3.27,10.93-5.62,16.29-.57,1.31-.73,2.93-1.97,3.93-1.56-1.31.68-3.12.84-3.65,1.96-6.24,2.85-12.86,5.62-18.82.33.73.77,1.44,1.12,2.25Z"/>
          </g>
          <path class="cls-5" d="M156.47,179.23c-.9,4.04-4.5,7.8-7.3,10.68l7.3-10.68Z"/>
          <path class="cls-5" d="M261.26,165.18c-.26.45-.18,2.43-1.4,2.25-.93-1.17,1-1.78,1.4-2.25Z"/>
        </g>
      </g>
      <path class="cls-13" d="M399.47,5.62c.14,12.05-.27,14.13-1.69,25.56-.67,5.4-.93,19.27-2.81,23.6-.53,1.21-16.48,17.46-17.98,18.82-8.97,8.14-20.54,13.9-32.87,17.98-.76.25-4.05,1.87-4.21.28-.54-5.18,30.07-23.64,34.55-27.81,13.87-12.92,22.46-39.8,23.32-58.43h1.69Z"/>
      <g>
        <path class="cls-1" d="M397.78,5.62c-.86,18.63-9.45,45.51-23.32,58.43-4.48,4.17-35.09,22.63-34.55,27.81.16,1.59,3.46-.03,4.21-.28,12.33-4.08,23.89-9.84,32.87-17.98v6.18c-1.33.41-1.88,2.06-2.81,2.81-.16.13-.96.43-1.12.56-6.48,5.14-13.25,9.93-19.66,15.17-3.48,2.84-6.72,6.19-10.11,8.99-5,4.12-10.06,9.15-14.89,12.92-1.42,1.11-5.95,1.9-8.15,3.93-.23.21-.35.34-.56.56l-29.5,19.66c1.91-4.13,5.49-7.03,8.15-10.68,3.36-2.95,6.46-6.42,8.99-10.11,12.67-8.65,17.41-24.6,26.97-36.24-.21-1.67-.75-.64-1.4-.28-3.38,1.86-21.79,15.68-25,18.54-.69.62-1.6.96-2.25,1.69-10.98,4.04-16.88,15.12-25,21.91-5.91,4.95-15.73,8.61-21.07,14.61l-1.12-.56c3.25-4.12,24.04-23.83,24.16-26.69-.85-1.17-.91-.52-1.97-.28-6.67,1.53-23.79,10.51-30.62,14.05-1,.52-1.86,1.19-2.81,1.69-15.86,8.26-30.76,18.99-48.04,24.72,4.26-6.6,14.37-9.66,20.23-14.61,4.61-3.89,12.9-14.47,16.01-19.66.98-1.64,1.47-3.36,2.25-5.06.59-1.29,1.7-2.52,2.25-3.93.48-1.23.71-2.64,1.69-3.65.11-1.68-.06-1.11-1.12-1.4-1.7-.47-6.19.15-8.43,0,7.82-10.35,27.72-15.96,38.49-21.91,6.67-3.69,17.21-16.47,24.16-21.91,22.61-17.7,56.17-33.86,81.47-48.32,7.31-4.18,14.36-9.34,21.35-14.05,1.22-.03.32,2.63.28,3.37Z"/>
        <path class="cls-13" d="M390.76,18.54c-2.11,5.5-5.42,13.53-8.71,18.26-2.19,3.15-16.28,18.34-19.38,18.26-2.64-.07-.28-2.21-2.81-1.12-.55.24-8.67,6.1-9.55,6.74-1.85,1.35-1.77,3.64-3.93,5.06-1.45.95-2.59-.16-2.81,0-9.36,6.97-17.33,15.61-27.81,22.19,12.73-19.33,31.47-33.7,48.6-49.16.63-.22,2.14,1.18,2.25,1.12,10.78-5.44,16.53-12.32,24.16-21.35Z"/>
        <path class="cls-13" d="M314.35,75.85c-3.44,7.66-12.26,13.89-16.57,20.51-1.78,2.72-3.62,9.1-5.62,12.36-1.02,1.66-2.22,3.42-3.65,4.78-.81-.58-.03-2.43-.28-3.65-.11-.55-1.52,0-1.69-.56-.4-1.37,2.52-3.85.28-4.21-10.27,4.46-25.72,15.17-35.96,17.98-1.9.52-3.56-1.18-3.93-1.12-1.33.19-5.57,4.89-6.46,4.21,4.13-8.98,13.53-13.75,22.19-18.26.58-.3,1.42.7,2.81,0,1.22-.61,6.83-6.1,7.3-6.18,1.57-.26,2.15,1.8,6.18,0l35.4-25.84Z"/>
        <path class="cls-13" d="M261.54,93.27c2.86-1.01,4.75,2.18,5.06,2.25,2.36.5,6.56-3.1,8.71-1.4.32,1.14-20.34,9.1-21.63,9.27-1.6.21-5.73-1.98-5.06-3.37.26-.54,9.68-3.84,11.24-4.49.15-.06.85-1.95,1.69-2.25Z"/>
      </g>
      <path class="cls-6" d="M326.99,189.34c-3.83,5.32-14.63,15.45-20.23,18.54-1.87,1.03-4.48,1.71-6.74,2.81h-28.09c3.03-1.09,6-2.19,8.99-3.37,6.11-2.4,38.29-19.11,40.45-23.6.07-.14-.06-.39,0-.56l5.06-2.53c.49,4.51,2.91,5.45.56,8.71Z"/>
      <path class="cls-6" d="M332.05,197.77l-2.25,1.69c-.02-3.11-1.63-2.55-1.69-2.81-.63-2.7-.23-4.91-1.12-7.3,2.34-3.26-.07-4.2-.56-8.71l-5.06,2.53c1.16-3.34.91-10.77,1.69-14.61.66-.17,1.01-1.05,1.69-.28.19,10.05,6.04,19.72,7.3,29.5Z"/>
      <path class="cls-5" d="M329.8,199.45c.01,1.4-2.74,7.2-3.65,7.87-.39.28-3.97.8-4.49,1.12-2.98,1.83-4.67,5.14-8.15,2.81,1.37-1.01,16.09-13.12,14.61-14.61.06.26,1.66-.3,1.69,2.81Z"/>
      <path class="cls-5" d="M280.92,207.32c-2.99,1.18-5.96,2.28-8.99,3.37-7.57,2.73-16.59,4.62-24.44,7.3-8.7,2.97-17.25,6.82-25.84,10.11-.86-.85.49-1.34,1.12-1.69,3.78-2.05,12.4-5.04,16.86-6.74,13.36-5.12,27.29-9.53,41.3-12.36Z"/>
      <path class="cls-5" d="M300.02,210.69c2.26-1.1,4.88-1.78,6.74-2.81.1,1.79-4.04,3.35-5.34,3.93-7.52,3.38-21.97,10.23-29.22,12.36-.33.1-2.25.79-1.97-.28,9.69-4.82,20.04-8.45,29.78-13.2Z"/>
      <path class="cls-5" d="M321.37,183.16c-.06.17.07.42,0,.56-2.52-1.55,1.43-12.1.28-12.92-6.13,2.57-9.36,8.89-12.92,14.05-1.84-1.87,5.29-7.23,3.37-8.43-.61,1.21-1.87.54-1.97.56,2.86-1.51,10.45-7.78,12.92-8.43-.78,3.83-.52,11.27-1.69,14.61Z"/>
      <path class="cls-5" d="M328.12,196.64c1.49,1.49-13.24,13.6-14.61,14.61-3.54,2.62-8.17,4.78-11.52,7.87,7.46-8.48,18.42-13.74,26.13-22.47Z"/>
      <g>
        <path class="cls-2" d="M755.12,237.66v1.69c-1.29.09-2.65-.13-3.93,0,1.44-1.57-3.17-3.89-4.21-4.49-10.69-6.17-23.76-9.83-34.27-15.73-13.75-7.71-37.52-29.94-49.44-34.83-.71-.29-2.57-1.06-3.09-.28,2.99,3.15,6.32,5.81,8.99,9.27.26,2.16,1.18,4.61,2.25,6.46,5.9,10.24,10.39,8.28,19.38,13.2,14.25,7.81,28,16.64,42.42,24.16.05.04.51,1.08.56,1.12-7.27-.16-21.85,2.11-28.37.56-1.63-.39-26.01-14.93-28.65-16.86-.66-.48-1.56-1.31-1.4-2.25,4.64,2.86,11.57,6.01,16.86,7.58-12.08-6.43-24.71-10.09-26.41-25.28,1.11,1.91,2.52,7.51,5.06,7.3-3.72-4.96-5.84-11.68-8.99-16.86-11.6-19.07-22.77-21.13-42.42-30.06-4.55-2.07-9.26-2.03-14.05-5.06-5.69-3.6-20.51-17.69-26.41-23.04-3.53-3.21-9.18-11.73-11.8-13.48-3.68-2.46-13.37-4.57-17.98-7.3-9.5-5.63-21.77-17.25-31.46-24.16-5.35-3.81-12.77-6.42-17.98-10.11-21.6-15.34-42.55-38.92-64.61-55.06-11.23-8.22-23.97-14.52-35.4-22.47-1.15-.02-.29,3.13-.28,3.93h-1.69c.03-.74.93-3.4-.28-3.37-6.99,4.7-14.04,9.87-21.35,14.05-25.3,14.46-58.86,30.62-81.47,48.32-6.95,5.44-17.49,18.23-24.16,21.91-10.77,5.95-30.66,11.57-38.49,21.91-.85-.06-1-.19-1.69-.56,15.3-10.86,25.34-14.28,40.17-23.04,6.01-3.55,15.19-14.75,21.35-19.66,24.23-19.36,54.74-33.48,81.47-48.88,8.78-5.06,16.98-11.33,25.84-16.29,12.12,7.98,26,15.03,37.64,23.6,21.93,16.14,42.93,39.81,64.61,55.06,4.94,3.48,11.38,5.48,16.29,8.99,9.86,7.04,21.81,18.21,31.46,24.16,5.12,3.15,15.83,5.65,19.66,8.43,2.3,1.66,8.27,10.29,11.8,13.48,5.19,4.69,22.39,21.04,26.97,23.6,14.03,7.84,36.06,13.04,51.13,21.91,17.84,10.5,36,28.32,54.5,38.77,12.8,7.23,29.09,11.68,41.86,19.66Z"/>
        <path class="cls-3" d="M424.75,209.01c-3.34-1.06-7.9-2.87-10.96-4.49-27.28-14.52-51.63-30.81-75.85-50l-1.4.28c4.63,8.06,11.18,14.8,17.42,21.63-6.43-4.76-13.62-8.93-19.38-14.61l-3.65,1.97c2.46,1.33,5.19,2.97,7.3,4.78,7.91,6.74,15.88,13.53,23.6,20.51l-35.4-21.35c-1.48,9.9,9.46,26.96,7.3,35.96-.39,1.61-9.37,10.44-9.55,11.24-.54,2.41,5.42,12.6,5.06,16.01-1.51-3.06-6.9-13.69-6.18-16.57.31-1.27,9.24-10.02,9.55-11.24.4-1.54-.35-3.72-.56-5.34-1.26-9.78-7.11-19.45-7.3-29.5-.68-.77-1.03.11-1.69.28-2.47.64-10.06,6.92-12.92,8.43-1.13.28-2.78,1.16-3.93,1.69-6.24-.46,2.98-5.72,4.49-6.74,8.29-5.6,18.82-8.79,23.6-18.54.55-.14,1.5-.71,1.97-1.12,15.84,10.19,30.82,24.38,46.63,34.27,12.14,7.59,28.87,15.86,41.86,22.47Z"/>
        <path class="cls-1" d="M310.7,171.92c-2.61-2.32-12.03,1.37-12.64,1.12-3.77-1.5,4.86-5.03.28-6.18,8.1-3.77,27.6-11.42,35.96-13.48-4.77,9.75-15.31,12.94-23.6,18.54Z"/>
        <path class="cls-1" d="M310.7,171.92c-1.51,1.02-10.73,6.28-4.49,6.74-1.7.77-3.97,3.44-6.18,3.65l3.65-10.39c-3,1.19-6.21,1.82-9.27,2.81-6.89,2.23-12.56,7.71-19.1,5.62,6.56-4.12,16.22-10.31,23.04-13.48,4.58,1.15-4.05,4.68-.28,6.18.61.24,10.03-3.45,12.64-1.12Z"/>
        <path class="cls-6" d="M377.56,143.83c1.39,3.13,1.75,6.56,2.81,8.99-2.12,1.29-5.48,9.21-8.43,7.3,2.35-5.36,2.63-11.8,5.62-16.29Z"/>
        <path class="cls-12" d="M751.18,239.35c-5.17.52-10,.52-15.17.56.44-1.55-1.95-1.42-2.25-1.69-.05-.05-.51-1.08-.56-1.12-11.22-9.35-31.42-19.17-44.67-26.41-2.08-1.14-8.26-2.56-9.55-3.37-3.39-2.13-7.17-10.58-9.83-14.05-2.67-3.46-6-6.12-8.99-9.27.52-.78,2.38-.01,3.09.28,11.92,4.89,35.7,27.12,49.44,34.83,10.51,5.9,23.58,9.56,34.27,15.73,1.04.6,5.65,2.92,4.21,4.49Z"/>
        <path class="cls-11" d="M530.94,239.35c-4.48-.02-9.09-.54-13.48-.56l-57.03-29.22c22.1,9.46,48.79,14.8,69.11,27.53,1.1.69,1.69.65,1.4,2.25Z"/>
        <path class="cls-2" d="M451.16,228.67c5.27,2.92,10.33,6.52,15.73,9.27l-10.68.28c-10.64-4.91-24.52-14.82-35.96-20.79-2.91-1.52-11.45-4.12-10.68-7.3,14.31,5.61,28.03,11.04,41.58,18.54Z"/>
        <path class="cls-14" d="M733.2,237.1c-14.42-7.52-28.17-16.35-42.42-24.16-8.99-4.93-13.48-2.96-19.38-13.2-1.07-1.86-1.99-4.3-2.25-6.46,2.67,3.46,6.44,11.92,9.83,14.05,1.29.81,7.47,2.23,9.55,3.37,13.25,7.24,33.45,17.06,44.67,26.41Z"/>
        <path class="cls-2" d="M414.08,115.18c-1.28-.32-.07,4.01,0,4.21.61,1.81,5.04,8.05-.84,7.02-.19-.03-2.5-2.16-2.81-2.25-.81-.24-1.54,1.19-1.69,1.12-1.39-.57-.71-1.06-.84-1.12-2.35-3.21-5.52-6-7.87-9.27-8.36-11.65-11.17-20.95-11.8-35.4,4.4,4.5,7.4,10.19,11.24,15.17,6.06,7.88,9.16,11.72,14.61,20.51Z"/>
        <g>
          <path class="cls-2" d="M458.46,137.09c1.88,3.81,3.79,7.7,5.62,11.52s3.7,9.85,5.06,13.48l11.52,22.19c-1.54-5.01-3.33-10.66-5.34-15.45-4.18-9.98-17.9-32.55-19.66-41.01-.02-.1.4-1.47.28-1.97l15.45,14.61c2.79,3.39,7.2,9.49,9.55,13.2,9.56,15.11,13.67,31.73,22.75,46.91-7.31-21.69-11.32-44.55-23.32-64.33l-2.53-12.64c5.49,5.46,16.05,9.72,21.35,14.61,11.73,10.82,17.87,31.01,25.56,44.67,5.73,10.17,13.44,19.28,19.95,28.93,1.67,0,.02-1.96-.28-2.53-11.81-22.11-24.08-30.49-28.09-58.71,3.88,4.42,4.74,12.4,7.87,17.14.9,1.37,11.84,12.3,13.2,13.2.18.12,2.25,1.64,1.97.28-1.35-.7-1.67-2.23-2.25-3.09,5.49,5.43,9.83,10.15,15.73,15.17,12.21,10.4,26.48,20.21,40.45,28.09,7.17,5.67,14.34,11.47,20.79,17.98-27.71-.04-55.45.09-83.15,0,.28-1.6-.31-1.56-1.4-2.25-20.31-12.73-47.01-18.07-69.11-27.53l57.03,29.22c-11.76-.05-54.2,2.69-61.24-.56l10.68-.28c-5.4-2.75-10.46-6.35-15.73-9.27-5.36-4.06-11.64-7.26-17.7-10.11-17.89-8.43-38.92-12.48-55.62-23.04-8.01-5.06-16.35-13.53-23.88-19.1-6.24-6.83-12.79-13.57-17.42-21.63l1.4-.28c24.22,19.19,48.57,35.48,75.85,50,3.06,1.63,7.62,3.44,10.96,4.49,14.51,7.39,28.99,15.03,44.67,19.66-2.79-3.89-9.26-5.81-13.48-8.43-5.88-3.65-11.49-7.82-17.14-11.8-19.96-14.06-45.05-30.87-53.38-54.78-1.26-3.63-.91-9.13-2.25-12.36-1.23-2.98-15.08-18.14-15.17-19.66-.04-.7,6.82-9.98,7.02-12.08,1.43,9.39,11.61,16.56,16.57,24.44,9.5,15.09,18.48,35.44,32.03,48.32,7.38,7.01,21.91,11.5,30.06,18.26-7.01-7.58-17.72-11.86-25.28-18.54s-13.26-17.96-20.51-25.56l-8.71-21.07,32.31,36.8c-7.85-9.84-12.77-22.35-19.66-32.59-5.85-8.68-15.39-16.89-20.23-26.97,5.7,3.29,10.3,8.62,16.29,11.52.13.06-.55.55.84,1.12.15.06.88-1.37,1.69-1.12.31.09,2.61,2.21,2.81,2.25,5.88,1.03,1.46-5.22.84-7.02-.07-.2-1.28-4.54,0-4.21,2.17,3.5,5.34,6.71,7.3,10.39,1.1,2.07,9.68,24.85,10.96,24.44-2.04-17.24-11.06-32.94-8.43-50.57,10.03,13.81,18.38,30.14,34.55,37.64Z"/>
          <g>
            <path class="cls-9" d="M353.96,176.42c7.53,5.57,15.87,14.04,23.88,19.1,16.71,10.55,37.73,14.6,55.62,23.04,6.06,2.86,12.34,6.05,17.7,10.11-13.55-7.5-27.27-12.93-41.58-18.54-8.35-3.27-17.22-5.26-25-10.68.1,1.1,2.29,3.17,3.09,3.93l-49.44-34.83c-2.12-1.8-4.85-3.45-7.3-4.78l3.65-1.97c5.76,5.67,12.95,9.85,19.38,14.61Z"/>
            <path class="cls-2" d="M379.52,126.41l29.78,49.44c-2.21-1.83-5.04-3.9-7.02-5.9-8.81-8.86-8.58-13.62-12.92-22.47-2.37-4.83-8.94-14.78-10.11-19.1-.28-1.05-.85-1.15.28-1.97Z"/>
            <path class="cls-10" d="M471.39,140.46l-15.45-14.61c.11.49-.3,1.87-.28,1.97,1.77,8.46,15.48,31.04,19.66,41.01,2.01,4.79,3.8,10.44,5.34,15.45l-11.52-22.19c-1.36-3.63-3.29-9.79-5.06-13.48s-3.74-7.71-5.62-11.52c-3.43-6.96-10.31-12.88-9.83-22.47,5.5,10.39,15.45,16.96,22.75,25.84Z"/>
            <path class="cls-10" d="M426.16,106.75l25.84,71.35-10.39-20.51c-4.45-15.17-13.5-32.5-15.73-46.63-.06-.36.17-3.59.28-4.21Z"/>
            <path class="cls-9" d="M425.6,194.4l41.86,23.88c-12.31-1.61-22.48-8.32-32.31-15.45-3.05-2.21-7.52-5.27-9.55-8.43Z"/>
            <path class="cls-10" d="M486.84,137.09l22.47,52.81c-.4-1.52-2.63-3-3.09-3.65-3.76-5.32-9.28-21.07-11.8-26.97s-4.91-9.95-6.74-17.98c-.05-.24-2.4-2.52-.84-4.21Z"/>
            <path class="cls-10" d="M511,201.7l19.1,32.59c-1.6-2.23-4.99-5.07-6.46-7.02-2.89-3.82-10.07-16.05-11.8-20.23-.18-.45-1.38-5.09-.84-5.34Z"/>
            <path class="cls-10" d="M415.48,130.91l16.29,25.84c-2.75-1.66-19.26-24.47-16.29-25.84Z"/>
          </g>
        </g>
        <path class="cls-2" d="M555.66,131.47c-1.87.98-.04,4.78.56,6.46,3.66,10.22,8.91,24.01,13.48,33.71,1.81,3.84,4.21,2.87,3.37,7.58-1.16-1.11-2.24-2.28-3.37-3.37l-29.22-48.88c-.09-.86-1.34-4.84-.84-5.06,4.93,3.84,10.96,5.97,16.01,9.55Z"/>
        <path class="cls-12" d="M569.71,175.86c-2.97-2.85-14.39-11.87-15.73-14.05-2.66-4.31-12.97-30.13-13.48-34.83l29.22,48.88Z"/>
        <path class="cls-2" d="M594.99,153.94c-.84-.03-.45.69-.56,1.12-4.9-2.72-12.42-8.48-17.42-6.74-1.46-3.95-2.43-8.22-4.78-11.8l3.65,13.2c-1.79-1.01-2.23-3.8-3.37-5.62-.09-.15-3.04-3.69-2.81-1.97-1.21-3.33-4.01-7.51-5.06-10.96-.32-1.07-1.39-2.93-.28-3.65,12.95,7.01,20.7,16.19,30.62,26.41Z"/>
        <path class="cls-6" d="M577.01,148.33c2.25,6.06,4.16,12.32,6.74,18.26,1.62,3.72,4.66,6.87,4.49,10.96-3.12-3.93-11.72-14.09-13.48-17.98s-3.36-12.74-5.06-17.42c-.23-1.72,2.72,1.82,2.81,1.97,1.14,1.82,1.58,4.61,3.37,5.62l-3.65-13.2c2.34,3.58,3.31,7.85,4.78,11.8Z"/>
        <g>
          <path class="cls-7" d="M675.34,219.68c-7.68-4.73-3.21-3.72-6.74-8.71-2.2-3.1-14.38-21.36-15.45-22.19s-7.36-2.67-9.55-3.93c-3.97-2.29-7.8-5.03-11.8-7.3-1.92-.07,5.43,18.77,4.49,19.1-8.67-9.56-13.56-22.83-24.72-29.78l5.06,20.79c-3.19-5.57-5.31-11.69-8.15-17.42-.45-.91-.78-2.13-1.12-2.81-4.37-8.55-6.21-7.15-12.36-13.48-9.92-10.22-17.67-19.4-30.62-26.41-1.11.72-.04,2.59.28,3.65,1.05,3.44,3.85,7.62,5.06,10.96,1.7,4.68,3.36,13.69,5.06,17.42-8.59-9.01-8.71-20.72-19.1-28.09-5.06-3.59-11.09-5.71-16.01-9.55-.5.21.75,4.19.84,5.06.52,4.71,10.82,30.52,13.48,34.83l-.56.56c-3.06-2.96-5.95-6.03-8.99-8.99-9.45-9.17-19.31-17.95-28.37-27.53-1.15.73.27,8.67.28,10.11.03,4.78-.68,9.79,0,14.61,4.01,28.22,16.28,36.61,28.09,58.71.3.57,1.95,2.53.28,2.53-6.51-9.65-14.21-18.77-19.95-28.93-7.7-13.66-13.83-33.85-25.56-44.67-5.3-4.88-15.86-9.14-21.35-14.61l2.53,12.64c11.99,19.78,16,42.64,23.32,64.33-9.09-15.19-13.19-31.8-22.75-46.91-2.35-3.71-6.76-9.81-9.55-13.2-7.3-8.88-17.25-15.45-22.75-25.84-.48,9.59,6.4,15.51,9.83,22.47-16.17-7.51-24.52-23.83-34.55-37.64-2.64,17.62,6.38,33.33,8.43,50.57-1.27.41-9.85-22.37-10.96-24.44-1.96-3.69-5.13-6.9-7.3-10.39-5.45-8.79-8.54-12.62-14.61-20.51-3.83-4.98-6.83-10.67-11.24-15.17.63,14.44,3.44,23.75,11.8,35.4,2.35,3.27,5.52,6.06,7.87,9.27-5.99-2.9-10.59-8.23-16.29-11.52,4.83,10.07,14.38,18.28,20.23,26.97,6.9,10.24,11.82,22.75,19.66,32.59l-32.31-36.8,8.71,21.07c7.25,7.6,12.68,18.64,20.51,25.56s18.28,10.96,25.28,18.54c-8.15-6.76-22.68-11.25-30.06-18.26-13.55-12.88-22.52-33.23-32.03-48.32-4.96-7.88-15.14-15.05-16.57-24.44-.2,2.1-7.06,11.38-7.02,12.08.09,1.52,13.94,16.68,15.17,19.66,1.33,3.23.98,8.73,2.25,12.36,8.32,23.91,33.42,40.72,53.38,54.78-5.33-3.06-10.89-6.17-16.01-9.55-20.36-13.43-32.46-23.21-42.42-46.07-1.06-2.43-1.42-5.86-2.81-8.99-.36-.8-.8-1.52-1.12-2.25-2.49-5.54-5.43-10.82-8.99-15.73-1.44-.67-6.41,3.84-7.87,4.49-.72.32-1.4,1.04-2.25.28,3.42-6.24,19.37-25.81,20.23-31.46.56-3.72-.56-14.58-.56-19.38v-6.18c1.5-1.36,17.45-17.61,17.98-18.82,1.88-4.33,2.14-18.2,2.81-23.6,1.42-11.43,1.83-13.51,1.69-25.56,0-.8-.87-3.96.28-3.93,11.42,7.95,24.17,14.26,35.4,22.47,22.06,16.14,43.01,39.72,64.61,55.06,5.21,3.7,12.63,6.3,17.98,10.11,9.69,6.91,21.96,18.53,31.46,24.16,4.61,2.73,14.3,4.84,17.98,7.3,2.62,1.75,8.26,10.28,11.8,13.48,5.9,5.35,20.72,19.44,26.41,23.04,4.79,3.03,9.49,2.99,14.05,5.06,19.65,8.93,30.82,10.99,42.42,30.06,3.15,5.17,5.27,11.89,8.99,16.86-2.53.21-3.95-5.4-5.06-7.3,1.7,15.2,14.32,18.85,26.41,25.28-5.28-1.58-12.22-4.72-16.86-7.58Z"/>
          <path class="cls-14" d="M407.06,8.99l32.59,37.64c3.15.42-8.5-10.85-5.62-11.8,12.95,14.04,27.13,26.61,37.64,42.7,1.16-2.01-10.08-12.56-3.37-9.55l47.48,41.3-11.8,2.81c-1.57,4.23,4.74,7.84,5.62,10.68.34,1.09,1.63,16.62.28,16.57-1.88-2.6-1.43-7.3-2.53-9.83s-4.95-5.57-6.18-7.87c-6.32-11.86-11.09-23.01-21.91-32.03l10.39,21.07c-16.56-20.03-37.3-37.55-54.22-57.03-4.25-4.89-12.31-14.12-15.73-19.1-4.76-6.94-7.9-17.02-13.2-23.88l.56-1.69Z"/>
          <path class="cls-14" d="M408.74,53.94l29.78,38.21-27.53-25.28,4.21,29.5c-6.86-7.1-12.54-16.01-13.77-25.56l2.53,2.53,1.12-.56,3.65-18.82Z"/>
          <path class="cls-14" d="M448.07,107.87c2.61-.73,13.85,5.19,14.61,5.06s.95-2.54,2.25-2.25c.64.14,5.96,9.94,6.46,11.52l-23.32-14.33Z"/>
          <path class="cls-14" d="M521.11,109l11.8,17.42c-4.81-6.83-13.87-7.72-11.8-17.42Z"/>
        </g>
        <g>
          <path class="cls-12" d="M338.23,168.55l49.44,34.83c.61.58,1.47,2.77,2.81,1.97l-2.81-1.97c-.8-.76-2.99-2.83-3.09-3.93,7.78,5.41,16.66,7.4,25,10.68-.78,3.18,7.77,5.79,10.68,7.3l33.99,21.91c-40.34.61-80.79-.56-121.08-.56-1.31-2.62-2.64-5.24-3.93-7.87.37-3.41-5.6-13.6-5.06-16.01.18-.79,9.17-9.63,9.55-11.24,2.16-8.99-8.78-26.06-7.3-35.96l35.4,21.35c-7.72-6.98-15.68-13.76-23.6-20.51Z"/>
          <g>
            <path class="cls-1" d="M333.17,183.16c12.81,11.19,23.29,26.77,37.64,36.8-11.49-6.28-19.58-17.75-29.22-26.41-2.29-3.95-6.2-6.38-8.43-10.39Z"/>
            <path class="cls-11" d="M346.1,219.12c.55.15,1.91.86,1.69-.28l-5.9-13.77c3.05,3.97,4.97,12.37,7.58,16.01,3.18,4.42,12.32,8.22,16.29,12.36-7.58-3.27-13.65-8.93-19.66-14.33Z"/>
            <path class="cls-1" d="M364.36,225.3c6.04,2.14,11.7,5.38,17.14,8.71-5.91-2.33-11.99-4.95-17.14-8.71Z"/>
            <path class="cls-11" d="M346.1,219.12c-2.42-.65-5.35-4.75-7.87-5.9l4.21,1.97c1.37.81,2.73,3.1,3.65,3.93Z"/>
            <path class="cls-9" d="M387.67,203.39l2.81,1.97c-1.34.81-2.2-1.38-2.81-1.97Z"/>
            <path class="cls-1" d="M333.17,183.16c-.03-.06-1.49-.5-.84-1.12,1.19-.25.75,1.04.84,1.12Z"/>
          </g>
        </g>
        <path class="cls-10" d="M594.43,155.07c-.41,1.61-.28,1.28,0,2.81,2.08,11.48,9.19,26.84,14.05,37.64,1.2,2.67.47,4.15,2.25,7.3-7.55-8.34-15.47-16.46-22.47-25.28.17-4.09-2.88-7.24-4.49-10.96-2.58-5.94-4.5-12.2-6.74-18.26,5-1.74,12.51,4.03,17.42,6.74Z"/>
        <g>
          <path class="cls-12" d="M574.77,159.56c1.77,3.89,10.37,14.05,13.48,17.98,7,8.82,14.93,16.94,22.47,25.28,1.79,3.18,12.5,15.28,15.45,17.98,6.91,6.31,17.53,11.16,23.88,18.54-11.98-.03-23.98.02-35.96,0-6.45-6.51-13.61-12.31-20.79-17.98-12.61-9.97-26.26-20.67-40.45-28.09-5.9-5.02-10.24-9.74-15.73-15.17-.7-1.04-1.09-2.56-2.53-3.37-.65,1.53,1.76,2.62,2.53,3.37.58.86.9,2.39,2.25,3.09.28,1.36-1.79-.16-1.97-.28-1.37-.9-12.3-11.84-13.2-13.2-3.13-4.73-3.99-12.72-7.87-17.14-.68-4.82.03-9.83,0-14.61,12.45,22.29,29.44,40.56,48.04,57.87l-19.95-40.45c3.04,2.96,5.93,6.03,8.99,8.99,14.21,13.72,27.06,28.83,43.82,39.61-7.54-8.13-16.16-15.12-24.16-22.75.84-4.72-1.56-3.75-3.37-7.58-4.58-9.7-9.82-23.49-13.48-33.71-.6-1.68-2.43-5.48-.56-6.46,10.4,7.37,10.51,19.08,19.1,28.09Z"/>
          <path class="cls-9" d="M593.31,221.37c-13.97-7.88-28.24-17.69-40.45-28.09,14.19,7.43,27.84,18.12,40.45,28.09Z"/>
          <path class="cls-14" d="M569.71,175.86c1.13,1.09,2.21,2.26,3.37,3.37,8,7.63,16.61,14.63,24.16,22.75-16.76-10.78-29.62-25.89-43.82-39.61l.56-.56c1.34,2.17,12.76,11.2,15.73,14.05Z"/>
          <path class="cls-9" d="M578.42,194.4c7.96,7.41,17.13,13.56,23.88,22.19-8.87-6.27-16.8-13.97-23.88-22.19Z"/>
          <path class="cls-2" d="M537.12,178.1c-.76-.75-3.18-1.85-2.53-3.37,1.43.81,1.83,2.34,2.53,3.37Z"/>
        </g>
        <g>
          <path class="cls-2" d="M607.35,167.43c-1.59-.29-1.21,1.59-1.12,2.53.33,3.59,2.68,15.28,3.93,18.54.18.48.93,2.02,1.69,1.12l-3.37-19.38c2.84,5.73,4.95,11.85,8.15,17.42l-5.06-20.79c11.16,6.94,16.05,20.22,24.72,29.78.93-.33-6.42-19.17-4.49-19.1,4,2.28,7.83,5.02,11.8,7.3,2.19,1.26,8.43,3.07,9.55,3.93s13.25,19.09,15.45,22.19c3.53,4.98-.93,3.97,6.74,8.71-.15.94.74,1.76,1.4,2.25,2.65,1.93,27.03,16.47,28.65,16.86,6.52,1.55,21.11-.72,28.37-.56.3.26,2.68.13,2.25,1.69-28.61.21-57.33-.49-85.96-.56-6.35-7.38-16.97-12.23-23.88-18.54-2.95-2.7-13.66-14.8-15.45-17.98s-1.05-4.63-2.25-7.3l-14.05-37.64c-.28-1.53-.41-1.2,0-2.81.11-.43-.28-1.15.56-1.12,6.15,6.34,7.99,4.93,12.36,13.48Z"/>
          <g>
            <path class="cls-6" d="M607.35,167.43c.35.68.67,1.9,1.12,2.81l3.37,19.38c-.76.89-1.5-.65-1.69-1.12-1.25-3.26-3.61-14.95-3.93-18.54-.09-.94-.47-2.81,1.12-2.53Z"/>
            <path class="cls-6" d="M608.48,195.52c-4.85-10.81-11.97-26.16-14.05-37.64l14.05,37.64Z"/>
            <path class="cls-6" d="M640.22,206.2l8.43,21.91c-3.21-6.85-7.81-14.27-8.43-21.91Z"/>
            <path class="cls-6" d="M644.15,200.02c3.25,6.89,6.3,14.03,8.43,21.35-1.09.42-9.09-19.23-8.43-21.35Z"/>
            <path class="cls-6" d="M618.31,188.78c1.69,6.68,4.47,13.3,5.06,20.23-2.3-6.34-5.2-13.33-5.06-20.23Z"/>
            <path class="cls-6" d="M650.33,230.36c.65,1.06,2.52,2.42,1.69,3.93-.21.07-2.38-3.18-1.69-3.93Z"/>
          </g>
        </g>
        <g>
          <path class="cls-2" d="M544.43,153.38l19.95,40.45c-18.6-17.31-35.59-35.58-48.04-57.87,0-1.45-1.43-9.39-.28-10.11,9.06,9.58,18.92,18.36,28.37,27.53Z"/>
          <path class="cls-6" d="M541.9,157.88l3.93,12.92c-1.99-3.65-4.19-8.77-3.93-12.92Z"/>
        </g>
      </g>
    </g>
  </g>
</svg>