<?xml version="1.0" encoding="UTF-8"?>
<svg id="Layer_1" data-name="Layer 1" xmlns="http://www.w3.org/2000/svg" viewBox="0 0 542.25 542.25">
  <defs>
    <style>
      .cls-1 {
        fill: #fefad1;
      }

      .cls-2 {
        fill: #fdeb7d;
      }

      .cls-3 {
        fill: #fed2ea;
      }

      .cls-4 {
        fill: #f5c2de;
      }
    </style>
  </defs>
  <path class="cls-3" d="M405.93,39.7c-6.84,23.51-17.01,47.94-20.12,72.37-5.08,39.86,11.93,48.57,48.73,42.74,23.34-3.7,45.46-12.69,68.02-19.23-17.88,17.29-38.76,33.77-53.49,53.98-22,30.2-15.1,47.35,17.78,61.48,23.06,9.91,48.81,14.37,73.15,20.1l-49.59,12.19c-18.01,5.6-56.36,16.99-54.42,41.26,2.17,27.18,45.32,61.33,64.09,79.71.75.73,2.12.73,1.72,2.39-24.04-7.25-47.94-17.15-73.12-20.12-42.85-5.06-47.97,15.93-41.11,53.1,3.97,21.52,11.89,42.1,18.36,62.89-1.66.4-1.66-.97-2.39-1.72-18.93-19.3-41.09-48.45-66-59.82-37.21-16.99-49.84,30.95-57.21,57.64-3.81,13.79-7.15,27.96-9.21,42.1-1.46-.26-1.22-1.59-1.52-2.59-4.35-14.37-6.49-30.5-10.83-45.34-11.33-38.79-25.42-75.26-70.26-42.56-20.39,14.87-36.26,35.02-53.68,53.04,7.14-25.92,19.44-53.35,20.99-80.48,2.63-45.84-33.95-39.63-66.26-31.81-17.17,4.16-33.75,10.54-50.61,15.67,17.46-17.76,38.79-34.46,53.49-54.73,20.07-27.69,15.34-45.18-15.53-59.24-23.36-10.64-51.06-15.78-76.15-20.85-.18-1.08,1.32-1.05,2.09-1.26,27.35-7.68,57.06-10.55,82.29-24.82,52.26-29.54-16.73-80.46-40.21-103.85l-5.98-6.37c23.47,7.03,47.89,17.16,72.36,20.13,39.99,4.86,48.61-11.6,42.76-48.75-3.69-23.39-12.76-45.39-19.25-68,18.15,18.83,35.71,41.16,57.43,56.03,45.07,30.87,56.94-15.34,68.02-50.04l10.49-43.44c5.56,25.03,10.07,51.04,20.46,74.65,13.86,31.5,30.39,37.92,59.53,17.33,20.84-14.72,37.28-35.86,55.18-53.79ZM369.98,93.62c-1.3-.34-1.5.54-2.25,1.11-2.96,2.28-5.64,6.1-8.63,8.6-17.42,14.55-40.63,20.24-61.53,9.14-16.82-8.93-16.19-23.95-20.11-40.56l-4.09-23.23c-1.08,11.43-2.4,23.25-4.85,34.47-1.4,6.4-3.46,22.44-12.39,12.34l-3.73-9.36c-2.36,11.64-8.66,24.85-20.24,29.57-14.57,5.95-39.23-5.78-51.17-14.73-3.62-2.71-6.9-6.69-10.23-9.24-.75-.58-.95-1.45-2.25-1.12,5.18,22.11.26,43.81-10.36,63.41-4.93,9.09-8.87,17.34-20.06,18.89-13.11,1.81-26.66-.98-38.49-6.66l15.72,15.35c1.25,1.69,3.29,5.67,3.59,7.68,1.3,8.86-4.03,3.89-9.58,3.94,20.32,31.01-2.73,67.63-35.04,76.92l-11.39,3.2c10.38,1.43,20.92,5.52,29.89,10.93,10.1,6.09,28.63,23.39,32.05,34.6,4.52,14.81-.49,27.76-9.55,39.46-1.61,2.08-4.78,3.44-4.47,6.38,11.89-3.88,24.2-4.58,35.93.39,1.63.69,8.75,4.56,9.41,5.61,1.76,2.81-5.78,12.54-7.9,14.96,9.15-2.4,18.24,2.36,23.95,9.39,8.45,10.38,8.14,23.18,5.79,35.71-.93,4.98-2.99,9.76-3.52,14.83,10.07-8.64,16.42-28.95,32.55-28.49,8.97.26,2.71,8.22,4.15,9.76,4.54-1.47,7.56-3.67,12.56-4.28,25.44-3.1,40.96,17.82,45.86,40.23l5.37-12.97c4.56-9.24,19.11-27.01,29.63-28.79,5.33-.9,14.4-.02,19.95.66,16.31,2.02,31.37,8.53,41.65,21.63-.7-17.37,1.72-34.92,8.65-50.9,5.6-12.92,15.3-25.96,31.05-18.75,1.41-21.32,24.56-4.13,35.2-.75.34-1.3-.53-1.5-1.12-2.25-2.09-2.7-4.78-4.89-6.98-8-20.34-28.77-14.69-73.17,21-85.83l16.31-2.78c-16.59-4.61-34.3-13.87-40.45-31.08-5.38-15.06-2.66-41.71,1.13-57.32,1.23-5.09,3.64-8.6,4.87-13.47-21.62,1.68-49.83-1.02-64.39-19.12s-7.44-40.24-1.52-59.52ZM168.14,89.13v.75c.49-.25.49-.5,0-.75ZM370.36,92.12v.75c.49-.25.49-.5,0-.75ZM437.02,171.51v.75c.49-.25.49-.5,0-.75ZM442.26,372.98v.75c.49-.25.49-.5,0-.75Z"/>
  <path class="cls-3" d="M406.31,38.2c.49.25.49.5,0,.75v-.75Z"/>
  <path class="cls-3" d="M37.82,134.81c.49.25.49.5,0,.75v-.75Z"/>
  <path class="cls-3" d="M37.82,406.69c.49.25.49.5,0,.75v-.75Z"/>
  <path class="cls-3" d="M502.93,406.69c.49.25.49.5,0,.75v-.75Z"/>
  <path class="cls-3" d="M406.31,503.3c.49.25.49.5,0,.75v-.75Z"/>
  <path class="cls-4" d="M369.98,93.62c-5.92,19.28-12.51,42.08,1.52,59.52s42.77,20.8,64.39,19.12c-1.23,4.87-3.64,8.38-4.87,13.47-3.79,15.6-6.52,42.25-1.13,57.32,6.15,17.21,23.86,26.47,40.45,31.08l-16.31,2.78c-35.69,12.65-41.34,57.06-21,85.83,2.2,3.11,4.89,5.3,6.98,8,.58.75,1.45.95,1.12,2.25-10.64-3.38-33.79-20.57-35.2.75-15.75-7.21-25.46,5.84-31.05,18.75-6.93,15.98-9.34,33.54-8.65,50.9-10.28-13.1-25.34-19.61-41.65-21.63-5.55-.69-14.62-1.56-19.95-.66-10.52,1.78-25.07,19.55-29.63,28.79l-5.37,12.97c-4.9-22.41-20.42-43.33-45.86-40.23-5,.61-8.02,2.81-12.56,4.28-1.44-1.54,4.82-9.51-4.15-9.76-16.12-.46-22.48,19.85-32.55,28.49.52-5.06,2.58-9.85,3.52-14.83,2.35-12.53,2.66-25.33-5.79-35.71-5.72-7.03-14.8-11.79-23.95-9.39,2.12-2.42,9.66-12.15,7.9-14.96-.66-1.05-7.78-4.92-9.41-5.61-11.73-4.97-24.04-4.27-35.93-.39-.32-2.94,2.85-4.3,4.47-6.38,9.06-11.71,14.07-24.65,9.55-39.46-3.42-11.21-21.95-28.51-32.05-34.6-8.97-5.41-19.52-9.5-29.89-10.93l11.39-3.2c32.31-9.29,55.36-45.92,35.04-76.92,5.55-.05,10.88,4.93,9.58-3.94-.3-2.01-2.34-5.99-3.59-7.68l-15.72-15.35c11.82,5.67,25.38,8.47,38.49,6.66,11.18-1.55,15.13-9.8,20.06-18.89,10.62-19.61,15.54-41.31,10.36-63.41,1.3-.34,1.5.54,2.25,1.12,3.33,2.55,6.61,6.53,10.23,9.24,11.94,8.94,36.6,20.68,51.17,14.73,11.57-4.73,17.88-17.93,20.24-29.57l3.73,9.36c8.93,10.1,10.99-5.94,12.39-12.34,2.45-11.23,3.77-23.05,4.85-34.47l4.09,23.23c3.92,16.61,3.29,31.63,20.11,40.56,20.89,11.1,44.1,5.41,61.53-9.14,2.99-2.5,5.67-6.32,8.63-8.6.75-.58.95-1.45,2.25-1.11ZM256,130.54c-93.96,7.34-153.07,110.09-115.83,196.27,49.01,113.44,211.53,114.55,260.13,1.21,43.46-101.36-36.06-205.94-144.3-197.48Z"/>
  <path class="cls-4" d="M168.14,89.13c.49.25.49.5,0,.75v-.75Z"/>
  <path class="cls-4" d="M370.36,92.12c.49.25.49.5,0,.75v-.75Z"/>
  <path class="cls-4" d="M437.02,171.51c.49.25.49.5,0,.75v-.75Z"/>
  <path class="cls-4" d="M442.26,372.98c.49.25.49.5,0,.75v-.75Z"/>
  <path class="cls-2" d="M256,130.54c108.25-8.46,187.76,96.12,144.3,197.48-48.6,113.35-211.13,112.23-260.13-1.21-37.23-86.18,21.87-188.93,115.83-196.27ZM259.74,191.95c-73.38,4.79-118.04,84.33-84.61,150.08,29.62,58.25,108.26,75.17,158.52,32.42,76.37-64.95,26.71-189.08-73.91-182.5Z"/>
  <path class="cls-1" d="M259.74,191.95c100.62-6.57,150.28,117.55,73.91,182.5-50.26,42.74-128.9,25.83-158.52-32.42-33.43-65.75,11.23-145.29,84.61-150.08Z"/>
</svg>