<?xml version="1.0" encoding="UTF-8"?>
<svg id="Layer_1" data-name="Layer 1" xmlns="http://www.w3.org/2000/svg" viewBox="0 0 226.65 221.95">
  <defs>
    <style>
      .cls-1 {
        fill: #fff7ad;
      }
    </style>
  </defs>
  <path class="cls-1" d="M65.01,155.65c9.19,13.6,24.85,11.83,28.54,12.9,9.55,2.76,9.19.21-10.66,4.95-5.88,1.4-14.63-2.72-16.5-5.8-3.3-5.43-6.86-4.62-7.4-2.81-.97,3.27,5.45,3.13,7.42,4.68,7.04,5.55,12.61,4.81,11.29,5.21-10.27,3.17-9.09,3.06-9.59,3.01-9.41-.9-14.42-11.55-27.4-11.21-1.8.05-8.54.23-7.89,1.89,1.21,3.02,9.03,10.14,18.65,10.2,6.05.04,8.96-.91,13.32.54-11.18,4.41-17.41,9.78-30.21,8.43-11.05-1.17-23.03.65-34.14,11.59-1.35,1.33.28,1.64,6.32,3.15,25.58,6.39,34.08-14.16,53.04-18.86-4.89,5.16-5.36,7.48-5.83,7.49-.91.02-1.53.58-2.13,1.15-4.27,4.03,4.28,6.59,3.45-.4-.16-1.35,3.67-6.26,7.05-9,.47-.39.19-.39,9.97-3.68,13.05-4.38-6.81,2.71-12.85,16.76-.67,1.57-3.8,10.85-1.4,10.13,13.38-3.97,16.23-17.02,16.98-19.46,3.41-11.05,4.77-9.8,16.58-12.14,8.42-1.67,2.12-1.08-2.84,6.49-1.48,2.26-2.92,2.55-5.2,4.67-1.05.97-.66,3.21.95,2.84,5.69-1.31,2.68-21.93,40.13-16.26-4.3,3.78-16.16,2.22-24.68,7.6-3.69,2.33-12.78,12.47-8.28,11.74,37.02-6.04,15.57-25.03,51.77-15.78-12.03,3.66-10.23,5.06-14.46,6.25-1.54.44-3.6,0-4.6,1.89-.52.98.16,1.89,2.07,1.47,11.2-2.5,7.86-17.04,38.91-1.95,2.08,1.01-20.44,1.05-29.27,4.94-1.3.57-12.74,6.65-12.49,8.04.23,1.28,10.2,2.49,11.49,2.59,17.39,1.31,23.47-20.11,37.81-11.57,13.55,8.09,6.17.35-11.61,8.92-5.91,2.85,1.35,7.26,2.47,1.95.33-1.56.22-1.98.97-2.26,16.59-6.15,18.09-2.77,21.9.09,2.39,1.79,3.9,3.97,5.08,2.04,3.75-6.09-9.35-5.25-11.99-18.45-1.13-5.63.29-9.53-.37-16.27-.63-6.35-6.1-15.08-7.45-12.96-7.89,12.42,4.4,28.67,10.36,37.49-.48-.03-16.73-7.49-17.51-8.3-10.64-11.11-8.18-14.77-7.96-17.06.19-2.03-1.58-3.48-2.71-2.35-3.98,3.93,8.94,18.94,8.27,18.68-9.89-3.63-16.44-2.37-22.3-17.37-3.34-8.53-7.46-17.49-17.84-21.53-1.49-.58-1.26.98-1.04,2.06,3.71,19.51,9.54,23.41,23.38,31.45-2.44.67,7.81.42-21.85-3.96-7.82-1.15-14.16-13.13-14.74-13.78-2.14-2.4-5.07-1.04-3.81.98,1.51,2.43,3.79,1.46,7.24,5.88,7.92,10.14,13.24,5.05-2.12,6.54-21.65,2.1-22.92-15.74-37.61-17.73-10.72-1.45-8.84.98-6.66,4.21ZM61.07,166.62c-3.19-1.71,1.03-3.82,3.84,1.02-1.34-.33-2.67-.39-3.84-1.02ZM54.89,174.78c-4.18-1.08-5.65-.51-5.97-5.39,5.88,2.22,5.21,3.01,5.97,5.39ZM49.32,173.35c-5.45-1.29-5.18-.95-5.73-5.4,5.58,1.39,4.14.02,5.73,5.4ZM43.64,171.74c-5.05-1.83-4.07-.73-4.9-3.89,5.02-.21,3.97-.51,4.9,3.89ZM34.54,169.25c.08-.06,1.76.81,1.84.86-.8.58-.4.73-1.84-.86ZM35.19,168.19c3.38-.4,2.69-.87,3.36,1.68-1.22-.61-2.35-1.17-3.36-1.68ZM36.21,171.13c1.26-.92.27-.94,4.81.84-2.04,1.71-.97,1.76-4.81-.84ZM40.22,173.7c-.24-.11,1.55-1.5,1.81-1.42,5.55,1.66,5.3.89,2.46,3.21-.23.19-.19.15-4.27-1.79ZM45.18,175.99c0-.17-.26.05,2.19-1.98.14-.12.03-.11,4.55,1.1-2.47,2.2-1.5,1.96-6.74.89ZM51.02,176.84c2.29-2,.74-1.81,7.05-.17-.03.2-7,.38-7.05.17ZM54.97,172.65c5.06,3.66,4.93,3.43,4.89,3.6-5.04-1.53-4.01-.5-4.89-3.6ZM42.91,189.32c-4.93,1.95-3.64,2.07-5.68.25,1.96-.09,3.97-.17,5.68-.25ZM35.42,189.34c.24.03-.13-.2,2.68,1.81-.23.14-7.25,3.01-7.67,2.69-.17-.13-5.9-4.43-6.08-4.72,4.7-.32,4.78-.46,11.07.21ZM23.57,189.55c7.57,5.63,7.17,4.55,3.09,5.67-2.79.77-2.85.8-3.24.49-6.56-5.29-5.93-4.69-6.05-4.9.78-.39,5.42-1.85,6.2-1.27ZM22.67,196.02c.2.16.76.15-5.13.99-.47.07-.09.25-5.79-3.86,5.82-2.77,3.42-3.15,10.92,2.86ZM16.08,197.2c-7.05.84-5.31,1.1-8.73-1.44,4.77-2.92,2.83-2.94,8.73,1.44ZM3.27,198.89c.46-.57.57-.59.93-.19-.31.07-.6.13-.93.19ZM4.33,197.94c3.02-2.16,1.8-2.18,4.85.06-4.78.69-3.46.65-4.85-.06ZM3.43,200.08c.02-.18-.31-.08,3.06-.54-.67,1.45.01,1.26-3.06.54ZM6.63,200.9c.98-1.98-.31-1.33,6.8-2.16-1.57,3.81-.28,3.24-6.8,2.16ZM12.92,201.88c1.63-4.01.12-3.05,6.92-3.89-.06-.17.11-.15-1.42,3.66-.24.59-4.83.3-5.49.22ZM24.86,200.52c-7.18,2.47-5.66.95-5.03-.61,1.08-2.71.08-1.95,6.43-3.39-.03.17-1.02,3.88-1.4,4.01ZM40.76,191.11c.89-.34-4.35,3.8-7.84,5.85.77-3.78.24-2.8,7.84-5.85ZM32.97,194.29c-.78,2.5-.06,3.69-7.1,5.9.43-1.35.82-2.59,1.23-3.82.11-.35,5.67-2.1,5.86-2.07ZM54.26,192.22c.24.92-.29,2.65-1.4,2.98-1.54.44-.78-2.97,1.4-2.98ZM70.12,186.43c-2.24,3.79-1.12,3.06-5.42,3.46,3.27-3.67,2.34-3.08,5.42-3.46ZM61.35,194.65c3.04-4.73,2.17-3.93,6.34-4.32.04.03.09.06.13.09-4.23,4.31.52,3.57-6.47,4.23ZM59.65,199.23c.05-.43,1.14-3.2,1.29-3.59.15-.38,3.79-.66,3.88-.48-3.32,4.52-1.99,3.69-5.16,4.08ZM58.76,202.83c.79-3.41.06-2.79,2.63-3.1-2.82,3.5-2.46,3.17-2.63,3.1ZM58.59,204.62c-.1-.13-.3.17,1.91-2.31.38,1.41.65.96-1.91,2.31ZM64.63,200.77c-.27.19-3.03,2.2-3.22,2.21-.45-1.76-.9-.68,2.64-4.88.7,2.4.78,2.53.59,2.66ZM67.95,197.71c-.14.13-2.34,2.34-2.56,2.39-1.16-3.43-1.51-1.82,1.46-5.98.32.83,1.35,3.34,1.09,3.6ZM68.66,196.87c-.57-1.45-1.39-3.41-1.22-3.7.11-.19,2.04-3.49,2.27-3.65,1.32,3.34,2.53,2.66-1.05,7.35ZM72.99,187.61c-1.73,5.34-1.06,5.04-2.84,1.31-.11-.24-.14-.11,1.89-3.44,1.05,1.99,1.04,1.89.96,2.13ZM73.31,186.36c-1.03-1.82-1.31-.79,1.4-4.52.17.08.13-.19-1.4,4.52ZM73.16,182.1c-2.44,4.26-2.93,3.59-4.6,3.83-.13-.2,4.45-3.97,4.6-3.83ZM86.89,184.45c-1.35,3.86-3.51,3.53-2.6,2.06.34-.56,2.43-2.23,2.6-2.06ZM129.15,182.97c-1.17.89-2.68,1.96-4.08,1.51.64-1.21,1.25-1.16,4.08-1.51ZM162.87,196.84c-.51,1.69-.74,3.67-2.47,2.88-1.92-.88,1.53-2.76,2.47-2.88ZM178.44,164.46c.09,7.77.24,6.16-2.01,8.62-1.27-5.58-1.19-5.61-.84-5.94,3.08-2.99,2.63-2.73,2.85-2.68ZM175.28,166.5s-.08-.03-.12-.04c-.83-6.56-1.18-4.77,2.02-8.28,1.66,5.98,1.72,4.59-1.9,8.32ZM176.72,157.2c.13.28-.05.37-2.27,3.01-1.72-7.46.25-7.79,2.27-3.01ZM174.31,153.25c-1.02,1.09-.72,1.32-1.22-1.28.1-.07,1.14,1.19,1.22,1.28ZM171.92,152.34c.26.03.12-.49.77,4.68-2.31-.84-2.05.13-.77-4.68ZM170.64,162.43c-.13-1.78-.13-3.54.15-5.36,2.41.88,1.8-.48,2.55,6.32.02.21-2.67-.58-2.7-.96ZM170.76,163.43c2.74.86,2.68.79,2.71,1.02,1.04,6.36,1.2,4.93-.51,4.67-1.51-.23-2.19-5.52-2.2-5.69ZM172.47,169.72c2.14.56,2,.48,2.08.74,2.12,6.74,1.9,6.04,1.91,6.26-1.49-2.26-2.95-4.45-3.99-6.99ZM178.16,172.24v5.55c-1.86-4.73-1.71-3.69,0-5.55ZM179.49,188.88c.82.41,11.97,5.76,10.83,7.79-5.39-4.73-13.03-8.91-10.83-7.79ZM149.43,189.26c-.69.27-3.08-1.84-2.96-2.19,12.71-.76,12.72-1.62,2.96,2.19ZM145.16,187.37c.4-.06.2-.16,3.03,2.43-7.18,2.55-5.04,2.7-9.74-.61.9-.49,3.8-1.39,6.71-1.82ZM130.76,192.99c7.47-4.44,6.76-3.95,10.7-.77-8.95,2.93-7.48,2.5-10.7.77ZM128.12,194.65c2.13-1.35,1.74-1.76,4.18.14-6.71,1.15-6.45,1.3-4.18-.14ZM155.24,188.1c-12.84,11.15-10.66,7.77-9.77,4.13.08-.35,9.45-4.07,9.77-4.13ZM144.7,192.32c-.76,3.43,0,4.78-6.61,5.15,1.41-3.67.38-3.05,6.61-5.15ZM137.07,197.52c-3.59,0-7.96-.82-8.15-1.02,3.23-.38,6.37-1.04,9.52-1.98-1.08,3.13-1.07,2.99-1.38,2.99ZM154.54,161.5c.12-1.24,1.13-.47,1.15.61.11,6.35-1.31,1.36-1.15-.61ZM142.42,169.73c-2.6-2.66-2.42-2.11-2.1-3.53,2.12,3.46,2.23,3.35,2.1,3.53ZM136.96,158.17c4.55,11.53,3.06,9.24-.99,4.33-.33-.4.82-4.31.99-4.33ZM136.36,157.28c-.05.21-1,3.89-1.18,4.17-4.13-6.3-3.61-4.48-1.88-9.81.28-.9,3.17,5.22,3.06,5.65ZM132.41,149.78c1.07,1.34-.57,2.68-.95,5.38-.15-.02-3.06-5.19-2.98-5.46,1.09-3.67.55-4.11,3.93.08ZM127.92,149.04c-2.58-4.01-3.09-4.2-2.35-5.38,3.27,3.06,4.02.82,2.35,5.38ZM123.53,142.39c1.61,1.06,1.4.68,1.12,1.65-1.3-1.74-1.2-1.54-1.12-1.65ZM122.82,143.44c.17-.09-.11-.4,2.24,3.18-2.04-.17-1.51.44-2.24-3.18ZM125.42,152.73c-.37-1.13-1.71-5.17-1.76-5.52,1.45.13,1.77.11,1.89.33.46.82,3.06,5.4,3.08,5.63-3.18-.22-3.12-.16-3.21-.44ZM128.85,159.52c-4.67-7.22-2.66-5.7-.55-5.69.78,0,.85-.15,4.13,5.74-3.39.09-3.45.14-3.58-.05ZM133.35,164.53c-5.73-4.97-3.79-4.16-.68-4.31.27-.02.09-.17,3.24,4.14-2.42.32-2.35.35-2.56.17ZM134.22,165.31c2.97-.45,1.4-1.28,7.49,5.06-2.63-1.46-5.07-3.15-7.49-5.06ZM98.64,182.87c0-.06,0-.13-.01-.19,4.66-3.2,2.93-2.77,8.24-.68-5.09,3.14-3.35,2.85-8.23.86ZM101.87,184.99c-6.19,3.17-5.15,2.88-7.07,1.83,4.01-4.43,2.22-3.98,7.07-1.83ZM93.31,188.94c1.34-1.8.83-1.63,2.2-.95-2.39,1.14-2.12,1.07-2.2.95ZM93.67,189.96c6.67-2.9,5.8-2.96,5.72-1.04-.01.38-5.55,1.09-5.72,1.04ZM100.12,188.95c0-.59-.02-1.13,0-1.67.01-.32,4.64-2.79,4.81-2.83.4,2.33,1.6,2.84-4.81,4.5ZM109.94,183.9c-4.19,3.04-3.75,2.77-3.93,2.64-.58-3.32-1.27-2.03,3.75-5.19.18-.11.47,2.34.18,2.56ZM110.78,183.13c-.33-3.03-1.46-1.61,6.02-5.88.2.27-5.81,5.95-6.02,5.88ZM103.86,180.02c-.8-.33-1.36-.05,6.09-2.53.32-.11.25-.09,2.44,1.03-5.68,3.53-4.02,3.39-8.54,1.51ZM116.88,176.24c-4.37,2.22-3.15,2.11-5.43,1.01.02-.23,5.41-1.15,5.43-1.01ZM105.67,156.96c-2.02-1.37.58-2.42,2.91,1.61-.15.24-2.74-1.5-2.91-1.61ZM64.85,153.41c.18-.21,3.55,1.81,3.51,1.95-2.38.6-1.62.97-3.51-1.95ZM69.83,159.43c-3.82-3.82-3.22-2.7-1.36-3.38.97-.35,1.13-.01,4.92,2.34-1.22.35-2.34.68-3.56,1.03ZM70.57,159.94c4.52-1.32,2.48-1.8,8.14,1.6-3.23,1.28-3.59,2.38-8.14-1.6ZM81.08,165.27c-.33.13-4.89-1.71-5.12-1.89,3.21-1.27,3.42-1.42,3.7-1.27,5.18,2.59,4.7,1.9,1.42,3.16ZM84.86,164.7c4.67,1.81,4.16,1.62,4.38,1.76-12.19-.93-4.55-1.83-4.38-1.76ZM90.65,166.05c-3.73-1.48-3.1-.73-3.23-2.89,3.43,2.96,3.33,2.71,3.23,2.89ZM86.81,164.55c-4.98-2.45-4.04-1.09-3.89-5.49,4.35,3.32,3.72,3.54,3.89,5.49ZM77.92,155.14c5.06,3.82,4.22,2.26,4.24,6.98-.2.1.24.36-4.21-2.36-.23-.14-.58-5.03-.03-4.61ZM76.56,154.3c.48.27.54,4.22.53,4.89-.18-.09-4.74-2.59-4.77-3.18-.12-3.14-1.19-4.71,4.23-1.71ZM71.42,152.47c.26,3.9.37,3.56-.14,3.26-3.02-1.78-3.24-1.73-3.24-2.29-.01-1.64-.83-1.3,3.39-.97ZM67.24,152.26c.13,1.45.46,1.34-1.72.22,0-.13-.17-.07,1.72-.22Z"/>
  <path class="cls-1" d="M204.39.44c-10.8,10.8-12.97,22.65-11.84,34.05,1.26,12.8-4.17,19.04-8.65,30.15-1.41-4.38-.45-7.28-.44-13.32.01-9.63-7.05-17.5-10.07-18.72-1.65-.67-1.88,6.08-1.94,7.88-.43,12.95,10.18,18.11,11.01,27.48.05.53.24-.91-3.08,9.57-.46,1.43.54-4.03-5.13-11.33-1.53-1.97-1.38-8.4-4.63-7.45-1.81.53-2.64,4.08,2.76,7.42,3.04,1.88,7.13,10.64,5.68,16.54-4.96,20.11-2.4,20.01-5.03,10.63-1.04-3.7.84-19.35-12.69-28.64-3.21-2.2-5.63-4.11-4.26,6.63,1.88,14.69,19.71,16.13,17.45,37.74-1.6,15.3,3.51,10.06-6.56,2.07-4.33-3.44-3.44-5.79-5.82-7.29-1.98-1.25-3.43,1.63-1.02,3.8.57.52,12.6,7.15,13.68,14.85,4.3,30.69,4.56,19.18,3.8,21.87-7.81-13.69-11.46-19.69-31.27-23.61-1.15-.23-2.65-.49-2.07,1.03,3.92,10.22,12.49,14.44,21.4,17.99,22.24,8.88,8.65,18.74,31.72,51.19,2.19,3.06,6.29.54,4.88-1.32-5.73-7.54-6.9-7.02-5.1-16.08,2.86-14.46,4.99-7.4,7.26-11.16,2.09-3.48-6.62-10.21-8.99,17.47-5.95-7.9-8.59-16.42-2.02-23.85,10.42-11.78,11.47-16.09,7.89-31.64-.24-1.03-1.24-1.05-1.7-.32-13.82,22.06-7.4,14.27-12.14,41.43-15.35-25.43.76-33.38,2.08-39.14.44-1.91-.47-2.59-1.45-2.08-1.9.98-1.47,3.04-1.92,4.58-1.22,4.19-4.72,5.89-6.28,14.16-.13.69-2-9.47-2.32-11.2-1.77-9.24,2.28-11.04,10.86-20.4,7.42-8.08,7.76-20.61,7.21-20.96-.78-.5-10.85,4.71-14.31,15.7-1.89,5.99-2.15,15.15-4.95,18.29-1.37-9.51-.03-15.43,1.26-25.6.74-5.81,14.15-12.47,14.58-13.02,2.08-2.65-.78-4.78-3.72-.43-2.92,4.32-5.79,3.75-10.17,10.03-.61.87,2.59-14.4,3.01-14.86,7.5-8.45,16.44-3.58,24.51-14.21,7.99-10.53,4.48-9.51,1.21-8.8-16.87,3.68-22.38,17.37-24.68,18.94.48-1.55,4.07-13.04,5.1-14.29,8.97-10.89,13.19-5,13.51-9.6.22-3.13-5.11-1.68-5.2,1.29,0,.47-2.31.9-7.54,5.78,4.74-18.72,25.44-27.34,19.24-52.9-1.46-6.05-1.76-7.68-3.1-6.34ZM181.4,57.9c-1.59-6.33-1.79-4.78.22-7.05.2.05-.02,7.02-.22,7.05ZM180.82,45.01c1.04,5.24,1.28,4.28-.93,6.73-1.18-4.53-1.19-4.42-1.07-4.56,2.05-2.43,1.83-2.18,2-2.17ZM178.57,40.03c2.4,5.15,2.37,3.57-.04,6.38-.14-.19-1.11-3.59-1.4-4.58-.07-.26,1.32-2.04,1.44-1.8ZM176.83,40.81c-1.75-4.56-1.73-3.57-.8-4.82,2.56,3.86,2.52,2.79.8,4.82ZM174.16,34.31c1.58,1.46,1.44,1.05.85,1.85-.05-.09-.91-1.77-.85-1.85ZM173.1,34.95c.49,1.02,1.05,2.15,1.65,3.38-2.55-.69-2.07,0-1.65-3.38ZM172.73,38.51c3.15.84,2.05-.14,3.85,4.92-4.38-.95-4.09.09-3.85-4.92ZM173.83,47.65c-1.31-5.33-1.97-4.54,2.64-3.44.59.14,1.64,4.75,1.68,4.92-4.41-1.34-4.26-1.25-4.31-1.47ZM176.59,53.49c-2.7-5.22-2.46-4.85-2.21-4.79,4.96,1.43,3.67.11,5.16,5.99-2.42-.78-2.74-.82-2.95-1.2ZM177.41,54.77c3.09.9,2.07-.14,3.56,4.91-.17.03.11.26-3.56-4.91ZM171.33,60.82c.63,1.18.68,2.52.99,3.85-4.82-2.85-2.67-7.05-.99-3.85ZM170.97,88.99c-.14-.21-1.85-4.47-1.77-4.71.9-2.31,1.1-5.01,1.77,4.71ZM169.85,80.51c.08.21.07.15-1.06,2.93-.21-.21-2-3.84-2.1-4.06-.13-.27.03-.54.69-2.18.84-2.1.29-2.62,2.47,3.31ZM166.13,78.42c-3.36-5.68-2.9-3.64-1.54-8.15,4.06,4.76,2.84,4.9,1.54,8.15ZM164.08,69.53c-1.42,4.77-.45,4.19-3.11.2-.57-.85-.38-1.02.17-3.19,1.06,1.07,2.03,2.05,2.94,2.98ZM158.1,64.51c2.9,1.92,2.54,1.15,1.92,3.53-.15.03-2.14-3.36-1.92-3.53ZM156.93,66.89c.17-1.87.06-1.71.23-1.72,1.11,2.22,1.23,1.86-.23,1.72ZM157.1,71.07c-.29-4.22-.66-3.4.99-3.38.52,0,.4.02,2.27,3.27.3.52.61.4-3.27.11ZM159.15,76.42c-.63-.11-1.69-3.69-1.86-4.62,3.74.23,3.66.11,3.91.54,2.81,4.85,4.26,5.21-2.05,4.08ZM162.72,81.59c-.16-.2-2.86-3.78-3.16-4.27,5.86.19,4.06-.9,7.19,4.42-.11.23-3.73.27-4.04-.15ZM166.65,86.05c-3.81-4.13-3.81-3.46.22-3.52.38,0,.29.06,2.2,4.02-1.52-.15-2.09-.12-2.43-.49ZM167.69,87.14c2.15.15,1.4-.49,2.86,3.26-.17.09.08.2-2.86-3.26ZM160.56,106.23c-.8-1.3-.85-3.64,2.53,1.95-.49.3-2.21-1.43-2.53-1.95ZM168.72,133.09c.18.2.15.14-.19,2.56-5.18-3.85-4.19-2.23-3.92-6.43.22.04,2.02,1.42,4.11,3.87ZM163.76,132.13c-6.58-3.72-5.63-2.84-5.84-6.69,7.44,3.22,5.96,3.14,5.84,6.69ZM151.68,123.3c5.52,1.84,5.49,1.78,5.51,1.98.22,3.03.23,3.08.06,2.98-5.86-3.32-5.6-3.11-5.64-3.4-.19-1.74-.17-1.65.08-1.57ZM146.65,123.11c.12-.07-.1-.19,1.64,1.13-.96.28-.58.49-1.64-1.13ZM150.56,123.01c.24.06.22.38.31,1.66-4.1-2.73-4.35-2.57-.31-1.66ZM150.11,128.26c-2.21-3.22-4.26-5.57,3.15-.71-2.9,1.03-2.94,1.03-3.15.71ZM153.98,132.04c-4.18-3.41-3.74-2.86-.06-3.93.27-.07,5.42,2.88,5.44,3.02-2.62.35-4.06,1.99-5.38.91ZM155.82,132.95c5.34-1.7,3.5-2.24,9.8,1.95-.28.17-3.96,1.09-4.18,1.15-.42.1-6.52-2.81-5.62-3.1ZM162.33,136.65c.02-.17,3.93-1.3,4.33-.96,4.82,4.03,7.32,5.66-4.33.96ZM169.49,133.96c1.89,2.44,3.56,4.89,5,7.53-6.29-6.15-5.48-4.56-5-7.53ZM170.34,140.07c1.42-.31.88-.49,3.51,2.13-.17.11.06.09-3.51-2.13ZM203.7,160.4c.78,1.73-1.24,1.96-2.9,2.45.11-.83,1.99-4.46,2.9-2.45ZM200.44,190.29c-1.97,1.09-8.04-11.05-7.72-11.23,2.25,3.96,4.72,7.77,7.72,11.23ZM192.12,155.15c.06-.32,3.84-9.65,4.2-9.73,3.72-.9,7.45-3.49-4.2,9.73ZM196.42,144.64c2.15-6.22,1.52-5.19,5.19-6.57-.42,6.62-1.76,5.84-5.19,6.57ZM201.68,137.05c0,.31.13.29-3,1.35.96-3.15,1.64-6.28,2.05-9.51.2.18.99,4.56.95,8.15ZM199.97,126.7c-1.24,6.94-.6,6.23-2.21,3.71-.33-.52,2.01-3.78,2.21-3.71ZM197.19,130.7c1.71,3.23,2.15,1.77-.85,10.7-3.15-3.97-3.83-2.95.85-10.7ZM191.46,145.06c.46-2.92,1.38-5.81,1.87-6.71,3.28,4.73,3.14,2.59.54,9.75-2.57-2.85-2.47-2.65-2.41-3.04ZM191.39,146.29c2.69,3.31,2.75,1.21-.8,10.04-.16-.05.4-9.91.8-10.04ZM188.72,124.95c.45,1.4-.64,2.9-1.54,4.07.37-2.83.32-3.43,1.54-4.07ZM188.55,105.48c2.57.43,2.35.39,2.46.56-3.44,4.72-2.1,4.06-5.3,3.69-.02-.17,2.54-4.3,2.83-4.25ZM193.38,100.04c-1.7,6.37-2.2,5.2-4.54,4.78.05-.17,2.55-4.79,2.87-4.79.54-.01,1.08,0,1.67.02ZM193.61,99.12c-.05.26-.39.2-1.7.19,3.17-7.17,3-7.99,1.7-.19ZM191.92,94.32c1.67-1.22,1.46-1.13,1.57-1.04-1.25,2.58-.91,2.43-1.57,1.04ZM191.3,94.69c1.02,1.93,1.32.9-1.89,7.06-2.11-4.86-2.58-3.09,1.89-7.06ZM187.13,98.5c.06,0,.13,0,.19.01,1.95,4.89,2.25,3.16-.93,8.22-2.05-5.32-2.49-3.6.74-8.23ZM184.42,103.71c1.25,3.05,1.72,3.52.9,4.67-3.04,4.21-2.02,4.91-3.47,1.81-.1-.2,2.11-7.64,2.58-6.48ZM181.59,111.28c1.09,2.28,1.2,1.07-1.05,5.42-.11-.03.82-5.4,1.05-5.42ZM181.56,116.63c4.33-7.46,2.9-6.32,5.93-5.97.07.21-5.66,6.17-5.93,5.97ZM188.89,86.68c3.27-4.28,3.48-2.45,2.93-1.67-.82,1.16-2.77,1.84-2.93,1.67ZM192.24,72.9c-.24.08-.13.09-2.12-.97,3.35-1.99,3.22-1.97,3.45-1.86,3.71,1.81,4.02,1.14-1.33,2.83ZM201.53,68.63c-4.72,3.54-4.03,2.34-7.36,1,.16-.23,3.48-2.14,3.67-2.24.29-.17,1.7.44,3.69,1.24ZM202.37,67.93c-.26.26-3.24-.98-3.59-1.12,4.19-2.94,2.57-2.6,6-1.42-.05.21-2.28,2.41-2.41,2.54ZM205.18,64.73c-.78-.22-1.55-.45-2.38-.7,8.66-7.18,2.83.83,2.38.7ZM209.35,58.62c-1.38,2.55-.92,2.29-2.33,1.9,2.5-2.19,2.2-2,2.33-1.9ZM207.56,58.77c.07.17.4-.17-3.12,2.61.33-2.57-.3-1.84,3.12-2.61ZM200.35,60.9c.4-.15,3.18-1.21,3.6-1.26-.42,3.17.43,1.84-4.12,5.14-.17-.09.14-3.73.52-3.88ZM199.36,61.31c-.7,6.89.11,2.19-4.28,6.44-.03-.04-.06-.09-.09-.13.43-4.16-.39-3.31,4.37-6.31ZM194.58,64.63c-.43,4.3.3,3.17-3.5,5.4.4-3.08-.19-2.16,3.5-5.4ZM190.59,68.45c-.25,1.67.42,2.16-3.86,4.57-.09-.09,3.64-4.71,3.86-4.57ZM186.45,74.58c3.75-2.68,2.72-2.41,4.53-1.37-4.77,1.51-4.43,1.54-4.53,1.37ZM196.98,54.2c.03-2.46,4.14-2.93,2.8-.97-.49.72-1.91,1.21-2.8.97ZM201.41,6.61c2.8-3.93,2.3-1.48,1.69,2.55-1.73-2.39-1.79-2.41-1.69-2.55ZM200.88,7.31c2.52,3.44,2.27,1.7,1.38,8.74-4.33-5.93-4.33-3.99-1.38-8.74ZM196.22,16.17c.7-1.9.82-2.04,2.01-4.47,4.74,6.67,4.22,4.22,2.93,11.07-.17-.15-5.1-6.16-4.94-6.59ZM195.71,17.57c.19-.54-.24-.78,4.99,5.81.36.45.33.4-1.45,6.41-5.77-6.63-5.46-6.77-3.54-12.22ZM194.24,35.35c-1.59-15.79-.32-11.47,4.54-4.96.31.42-2.61,7.42-2.75,7.65-1.97-2.78-1.77-2.45-1.79-2.68ZM194.46,37.15c1.8,2.06,1.69.77-.29,5.68.09-1.71.19-3.72.29-5.68ZM195.97,40.69c3.31-8.1,2.1-6.73,5.53-7.72,1.46-.42-5.78,8.33-5.53,7.72ZM202.85,31.11c-.46,1.05-.83.96-3.64,1.82-.02-.2,1.77-5.74,2.12-5.85,4.99-1.61,4.38-2.48,1.52,4.04ZM205.51,24.87c-.14.38-3.84,1.34-4.02,1.37,1.56-6.64.34-5.28,5.31-7.09,0,.7-.32,2.97-1.29,5.72ZM206.68,18.42c-3.84,1.52-3.84,1.35-3.67,1.4.9-6.85-.07-5.3,3.93-6.89.07.67.33,5.26-.26,5.49ZM203.81,13.42c.88-7.1.21-5.81,2.2-6.78,1.04,6.55,1.61,5.24-2.2,6.78ZM204.66,6.49c.49-3.48.38-3.04.56-3.06.7,3.08.89,2.4-.56,3.06ZM203.83,4.19c-.4-.37-.38-.47.2-.93-.07.33-.14.62-.2.93Z"/>
  <path class="cls-1" d="M80.94,171.57c9.19,13.6,24.85,11.84,28.54,12.9,9.55,2.76,9.19.22-10.66,4.95-5.89,1.41-14.63-2.71-16.5-5.8-3.3-5.42-6.86-4.62-7.4-2.81-.97,3.27,5.44,3.13,7.42,4.68,7.04,5.55,12.61,4.8,11.29,5.21-10.27,3.18-9.1,3.06-9.59,3.01-9.41-.9-14.42-11.54-27.4-11.21-1.8.05-8.55.23-7.89,1.89,1.21,3.03,9.03,10.15,18.65,10.2,6.05.04,8.95-.91,13.32.54-11.17,4.41-17.41,9.78-30.21,8.42-11.05-1.17-23.03.66-34.14,11.6-1.35,1.33.28,1.64,6.32,3.15,25.58,6.39,34.08-14.16,53.04-18.86-4.89,5.16-5.36,7.48-5.83,7.49-.91.02-1.53.58-2.13,1.15-4.28,4.03,4.28,6.6,3.45-.4-.16-1.34,3.67-6.25,7.05-8.99.47-.39.19-.39,9.97-3.68,13.05-4.38-6.82,2.71-12.85,16.76-.67,1.57-3.8,10.85-1.4,10.14,13.37-3.97,16.22-17.02,16.98-19.46,3.41-11.05,4.77-9.8,16.57-12.14,8.42-1.67,2.12-1.09-2.84,6.49-1.48,2.26-2.92,2.55-5.21,4.67-1.05.97-.66,3.22.96,2.85,5.69-1.31,2.67-21.93,40.13-16.26-4.3,3.78-16.16,2.21-24.69,7.6-3.69,2.33-12.78,12.47-8.28,11.74,37.02-6.04,15.57-25.03,51.77-15.78-12.03,3.65-10.23,5.05-14.46,6.25-1.55.44-3.6,0-4.6,1.89-.52.97.16,1.89,2.07,1.46,11.19-2.5,7.86-17.03,38.9-1.95,2.08,1-20.44,1.05-29.27,4.94-1.29.57-12.74,6.65-12.49,8.04.23,1.27,10.19,2.49,11.49,2.59,17.38,1.31,23.47-20.11,37.81-11.57,13.54,8.09,6.17.34-11.61,8.92-5.91,2.84,1.35,7.26,2.47,1.94.33-1.55.22-1.97.97-2.26,16.59-6.15,18.08-2.77,21.9.09,2.39,1.79,3.9,3.96,5.08,2.04,3.76-6.09-9.34-5.24-11.99-18.45-1.13-5.62.29-9.53-.37-16.27-.63-6.35-6.11-15.08-7.45-12.95-7.88,12.42,4.4,28.67,10.36,37.49-.48-.03-16.73-7.49-17.51-8.31-10.64-11.11-8.17-14.76-7.95-17.06.19-2.03-1.58-3.47-2.71-2.35-3.99,3.93,8.94,18.94,8.26,18.68-9.88-3.64-16.44-2.38-22.3-17.37-3.33-8.53-7.46-17.49-17.84-21.53-1.49-.58-1.25.97-1.04,2.06,3.71,19.51,9.54,23.41,23.38,31.45-2.44.67,7.81.41-21.84-3.96-7.82-1.15-14.16-13.13-14.74-13.79-2.13-2.4-5.07-1.04-3.81.99,1.51,2.43,3.79,1.46,7.24,5.88,7.92,10.14,13.24,5.05-2.11,6.54-21.66,2.1-22.93-15.74-37.61-17.73-10.72-1.45-8.84.98-6.66,4.21ZM77,182.55c-3.19-1.7,1.04-3.82,3.85,1.03-1.34-.33-2.67-.4-3.85-1.03ZM70.81,190.7c-4.18-1.08-5.65-.51-5.96-5.39,5.88,2.22,5.21,3.01,5.96,5.39ZM65.25,189.28c-5.45-1.29-5.17-.95-5.73-5.4,5.59,1.39,4.14.01,5.73,5.4ZM59.57,187.66c-5.05-1.83-4.07-.73-4.9-3.89,5.01-.2,3.97-.51,4.9,3.89ZM50.47,185.18c.08-.06,1.75.82,1.84.86-.8.58-.4.72-1.84-.86ZM51.12,184.13c3.38-.4,2.69-.87,3.36,1.68-1.22-.61-2.35-1.17-3.36-1.68ZM52.14,187.06c1.26-.93.27-.94,4.81.84-2.04,1.7-.96,1.75-4.81-.84ZM56.16,189.64c-.24-.11,1.55-1.5,1.81-1.42,5.55,1.65,5.3.89,2.46,3.21-.22.19-.18.15-4.27-1.79ZM61.11,191.91c0-.17-.26.05,2.19-1.98.14-.12.03-.11,4.55,1.1-2.47,2.2-1.5,1.96-6.74.88ZM66.95,192.77c2.29-2,.74-1.81,7.05-.18-.04.21-7,.38-7.05.18ZM70.9,188.58c5.06,3.66,4.93,3.43,4.89,3.59-5.05-1.53-4.01-.5-4.89-3.59ZM58.84,205.26c-4.93,1.94-3.64,2.07-5.69.24,1.97-.08,3.97-.17,5.69-.24ZM51.35,205.27c.24.03-.14-.2,2.67,1.81-.22.14-7.25,3.01-7.67,2.69-.16-.12-5.89-4.43-6.08-4.72,4.71-.32,4.79-.46,11.07.22ZM39.49,205.48c7.58,5.63,7.18,4.54,3.09,5.67-2.79.77-2.85.8-3.24.49-6.56-5.29-5.93-4.69-6.05-4.9.78-.38,5.42-1.84,6.2-1.26ZM38.59,211.94c.21.16.76.16-5.13.99-.47.07-.09.26-5.79-3.86,5.82-2.77,3.42-3.15,10.92,2.86ZM32.01,213.14c-7.05.84-5.31,1.1-8.73-1.44,4.76-2.92,2.82-2.95,8.73,1.44ZM19.2,214.82c.46-.57.57-.59.93-.19-.31.06-.6.13-.93.19ZM20.26,213.87c3.01-2.16,1.8-2.18,4.85.06-4.78.69-3.46.65-4.85-.06ZM19.36,216.01c.01-.18-.32-.08,3.06-.54-.67,1.44.01,1.26-3.06.54ZM22.56,216.84c.98-1.98-.31-1.33,6.8-2.16-1.56,3.81-.28,3.23-6.8,2.16ZM28.85,217.81c1.63-4.02.13-3.05,6.92-3.89-.06-.17.11-.16-1.42,3.66-.24.59-4.83.3-5.49.22ZM40.79,216.45c-7.19,2.47-5.66.95-5.03-.61,1.08-2.71.08-1.95,6.43-3.4-.04.17-1.02,3.88-1.4,4.01ZM56.69,207.04c.89-.35-4.35,3.8-7.84,5.84.77-3.78.24-2.8,7.84-5.84ZM48.9,210.22c-.78,2.51-.07,3.69-7.1,5.9.43-1.35.82-2.59,1.23-3.82.12-.35,5.67-2.1,5.87-2.08ZM70.19,208.15c.24.92-.29,2.65-1.41,2.97-1.54.45-.78-2.96,1.41-2.97ZM86.05,202.36c-2.25,3.79-1.12,3.07-5.42,3.46,3.27-3.67,2.34-3.08,5.42-3.46ZM77.28,210.58c3.04-4.73,2.17-3.93,6.34-4.32.04.03.09.06.13.09-4.24,4.31.52,3.57-6.47,4.23ZM75.58,215.16c.05-.43,1.13-3.2,1.29-3.6.14-.37,3.79-.66,3.88-.48-3.32,4.52-1.99,3.69-5.16,4.08ZM74.68,218.76c.8-3.41.06-2.79,2.64-3.1-2.82,3.49-2.46,3.17-2.64,3.1ZM74.52,220.54c-.1-.13-.29.18,1.92-2.31.38,1.42.64.96-1.92,2.31ZM80.56,216.7c-.27.19-3.02,2.2-3.22,2.21-.45-1.76-.9-.69,2.64-4.88.7,2.41.78,2.53.58,2.67ZM83.89,213.64c-.14.14-2.35,2.34-2.56,2.39-1.16-3.44-1.51-1.82,1.46-5.98.33.83,1.35,3.34,1.1,3.59ZM84.59,212.8c-.57-1.45-1.39-3.42-1.22-3.7.11-.19,2.04-3.49,2.27-3.65,1.32,3.34,2.53,2.66-1.05,7.35ZM88.93,203.54c-1.74,5.35-1.06,5.04-2.84,1.32-.11-.24-.14-.11,1.89-3.44,1.05,2,1.04,1.89.96,2.13ZM89.24,202.29c-1.03-1.82-1.31-.79,1.4-4.52.17.09.13-.18-1.4,4.52ZM89.08,198.03c-2.44,4.26-2.92,3.59-4.59,3.83-.13-.2,4.45-3.96,4.59-3.83ZM102.81,200.38c-1.35,3.87-3.51,3.53-2.6,2.06.35-.56,2.43-2.23,2.6-2.06ZM145.07,198.9c-1.17.89-2.68,1.96-4.08,1.51.65-1.21,1.26-1.16,4.08-1.51ZM178.8,212.77c-.52,1.69-.74,3.67-2.47,2.88-1.93-.88,1.53-2.76,2.47-2.88ZM194.36,180.39c.09,7.77.24,6.17-2.01,8.62-1.27-5.57-1.19-5.61-.85-5.94,3.08-2.99,2.63-2.73,2.85-2.68ZM191.2,182.43s-.08-.03-.12-.04c-.82-6.56-1.17-4.78,2.02-8.28,1.66,5.98,1.72,4.59-1.9,8.32ZM192.65,173.13c.12.28-.05.37-2.27,3.01-1.73-7.46.24-7.79,2.27-3.01ZM190.24,169.18c-1.02,1.09-.72,1.31-1.22-1.29.1-.07,1.14,1.19,1.22,1.29ZM187.85,168.27c.26.03.12-.49.77,4.67-2.31-.84-2.05.14-.77-4.67ZM186.57,178.36c-.14-1.77-.13-3.54.15-5.35,2.41.87,1.8-.48,2.55,6.32.02.21-2.67-.58-2.7-.97ZM186.68,179.36c2.75.86,2.68.79,2.72,1.03,1.04,6.36,1.2,4.93-.51,4.67-1.51-.23-2.19-5.52-2.21-5.69ZM188.41,185.65c2.13.56,1.99.48,2.08.74,2.13,6.74,1.9,6.04,1.92,6.25-1.5-2.26-2.95-4.45-3.99-6.99ZM194.09,188.17v5.56c-1.87-4.73-1.71-3.69,0-5.56ZM195.43,204.8c.82.42,11.97,5.76,10.83,7.8-5.39-4.73-13.03-8.91-10.83-7.8ZM165.36,205.19c-.69.27-3.08-1.84-2.96-2.19,12.71-.76,12.72-1.61,2.96,2.19ZM161.09,203.29c.4-.06.2-.16,3.03,2.44-7.18,2.55-5.03,2.7-9.74-.61.9-.49,3.8-1.39,6.72-1.82ZM146.69,208.92c7.47-4.44,6.76-3.94,10.7-.77-8.95,2.94-7.48,2.5-10.7.77ZM144.05,210.58c2.13-1.35,1.74-1.76,4.18.14-6.71,1.14-6.45,1.3-4.18-.14ZM171.17,204.03c-12.83,11.15-10.66,7.76-9.77,4.13.09-.35,9.45-4.07,9.77-4.13ZM160.63,208.25c-.76,3.43,0,4.79-6.6,5.15,1.41-3.67.37-3.05,6.6-5.15ZM153,213.45c-3.59.01-7.96-.82-8.15-1.02,3.23-.38,6.37-1.04,9.52-1.97-1.08,3.13-1.06,2.99-1.38,2.99ZM170.47,177.42c.11-1.24,1.13-.47,1.14.61.11,6.35-1.31,1.36-1.14-.61ZM158.35,185.66c-2.6-2.66-2.41-2.11-2.1-3.53,2.12,3.46,2.22,3.36,2.1,3.53ZM152.9,174.1c4.55,11.53,3.06,9.25-1,4.33-.32-.4.82-4.3,1-4.33ZM152.3,173.21c-.06.21-1.01,3.89-1.18,4.17-4.13-6.3-3.62-4.48-1.88-9.81.28-.9,3.16,5.22,3.06,5.65ZM148.34,165.72c1.07,1.33-.57,2.68-.95,5.37-.15-.02-3.06-5.19-2.98-5.46,1.09-3.67.55-4.11,3.93.09ZM143.85,164.97c-2.58-4-3.08-4.2-2.34-5.37,3.27,3.06,4.02.82,2.34,5.37ZM139.46,158.32c1.61,1.06,1.41.69,1.12,1.65-1.29-1.74-1.19-1.54-1.12-1.65ZM138.76,159.37c.17-.08-.11-.4,2.24,3.19-2.05-.17-1.52.43-2.24-3.19ZM141.35,168.65c-.38-1.13-1.71-5.17-1.76-5.51,1.45.13,1.76.11,1.89.32.46.82,3.05,5.4,3.08,5.63-3.18-.22-3.11-.15-3.21-.44ZM144.79,175.44c-4.67-7.22-2.66-5.7-.56-5.69.79,0,.86-.14,4.13,5.75-3.39.08-3.45.14-3.57-.06ZM149.28,180.47c-5.73-4.97-3.79-4.16-.68-4.32.28-.01.09-.17,3.24,4.14-2.42.32-2.36.35-2.56.18ZM150.15,181.25c2.97-.46,1.4-1.28,7.49,5.05-2.63-1.46-5.07-3.15-7.49-5.05ZM114.56,198.8c0-.06,0-.13,0-.19,4.65-3.2,2.93-2.77,8.23-.68-5.09,3.15-3.35,2.86-8.23.87ZM117.8,200.92c-6.19,3.17-5.16,2.88-7.08,1.84,4.01-4.44,2.22-3.99,7.08-1.84ZM109.24,204.88c1.34-1.81.83-1.64,2.2-.96-2.39,1.15-2.12,1.07-2.2.96ZM109.6,205.89c6.67-2.9,5.8-2.96,5.72-1.04-.02.38-5.55,1.09-5.72,1.04ZM116.05,204.88c0-.59-.02-1.14,0-1.67,0-.32,4.64-2.79,4.81-2.83.41,2.33,1.6,2.84-4.81,4.51ZM125.87,199.83c-4.19,3.04-3.75,2.77-3.93,2.64-.58-3.33-1.27-2.03,3.76-5.19.18-.11.47,2.34.18,2.55ZM126.71,199.06c-.33-3.04-1.46-1.61,6.02-5.89.19.27-5.81,5.95-6.02,5.89ZM119.79,195.95c-.8-.34-1.37-.06,6.09-2.54.32-.1.24-.09,2.44,1.03-5.68,3.53-4.03,3.39-8.54,1.51ZM132.8,192.17c-4.36,2.22-3.15,2.11-5.43,1.01.03-.23,5.41-1.15,5.43-1.01ZM121.59,172.89c-2.01-1.37.58-2.41,2.91,1.62-.15.24-2.74-1.5-2.91-1.62ZM80.78,169.35c.18-.21,3.55,1.81,3.52,1.95-2.39.6-1.63.97-3.52-1.95ZM85.76,175.36c-3.82-3.82-3.22-2.7-1.35-3.38.97-.35,1.13,0,4.92,2.35-1.22.35-2.34.68-3.56,1.03ZM86.5,175.87c4.52-1.33,2.47-1.8,8.13,1.59-3.23,1.28-3.59,2.38-8.13-1.59ZM97.01,181.2c-.33.13-4.89-1.71-5.13-1.89,3.21-1.27,3.42-1.42,3.71-1.28,5.17,2.59,4.7,1.9,1.42,3.17ZM100.79,180.63c4.68,1.81,4.16,1.62,4.38,1.77-12.2-.93-4.55-1.83-4.38-1.77ZM106.58,181.98c-3.73-1.48-3.1-.73-3.24-2.88,3.43,2.96,3.33,2.71,3.24,2.88ZM102.74,180.48c-4.98-2.45-4.05-1.09-3.89-5.49,4.35,3.33,3.72,3.55,3.89,5.49ZM93.85,171.07c5.06,3.82,4.21,2.26,4.24,6.97-.2.1.24.37-4.22-2.36-.22-.14-.58-5.03-.03-4.61ZM92.49,170.23c.48.26.54,4.21.53,4.89-.17-.09-4.74-2.59-4.77-3.18-.11-3.14-1.19-4.71,4.24-1.71ZM87.35,168.39c.26,3.9.37,3.56-.14,3.27-3.02-1.78-3.25-1.73-3.25-2.29,0-1.65-.83-1.3,3.39-.97ZM83.18,168.19c.13,1.45.46,1.34-1.72.22,0-.13-.17-.07,1.72-.22Z"/>
  <path class="cls-1" d="M220.32,16.37c-10.8,10.8-12.97,22.65-11.85,34.05,1.26,12.8-4.17,19.04-8.65,30.15-1.41-4.37-.45-7.28-.44-13.32.01-9.62-7.05-17.49-10.06-18.72-1.65-.67-1.89,6.08-1.94,7.88-.43,12.95,10.18,18.11,11.01,27.48.05.53.24-.91-3.08,9.57-.46,1.43.54-4.03-5.13-11.33-1.53-1.97-1.37-8.4-4.63-7.45-1.81.53-2.64,4.08,2.76,7.42,3.05,1.89,7.13,10.64,5.68,16.55-4.96,20.11-2.4,20-5.03,10.62-1.04-3.7.84-19.35-12.69-28.63-3.2-2.2-5.63-4.11-4.26,6.63,1.88,14.69,19.72,16.13,17.46,37.74-1.6,15.31,3.51,10.06-6.56,2.07-4.32-3.44-3.44-5.79-5.82-7.29-1.98-1.25-3.43,1.63-1.02,3.81.57.51,12.59,7.14,13.68,14.84,4.3,30.69,4.55,19.19,3.8,21.88-7.81-13.69-11.46-19.69-31.28-23.61-1.15-.23-2.65-.49-2.07,1.03,3.92,10.22,12.49,14.44,21.4,17.99,22.24,8.88,8.66,18.74,31.72,51.19,2.19,3.07,6.29.54,4.88-1.32-5.72-7.54-6.89-7.01-5.1-16.08,2.86-14.46,4.99-7.4,7.25-11.16,2.09-3.48-6.61-10.21-8.99,17.48-5.95-7.9-8.59-16.42-2.02-23.85,10.42-11.78,11.47-16.1,7.89-31.64-.23-1.03-1.23-1.05-1.7-.31-13.82,22.06-7.4,14.26-12.14,41.43-15.36-25.44.75-33.39,2.08-39.15.44-1.91-.47-2.59-1.45-2.08-1.9.99-1.47,3.04-1.92,4.58-1.22,4.2-4.72,5.9-6.28,14.16-.14.69-2-9.46-2.32-11.2-1.78-9.24,2.28-11.03,10.86-20.39,7.42-8.08,7.76-20.61,7.2-20.96-.78-.5-10.84,4.71-14.3,15.69-1.89,5.99-2.15,15.16-4.95,18.29-1.37-9.51-.04-15.44,1.26-25.6.74-5.81,14.16-12.47,14.58-13.02,2.08-2.65-.78-4.78-3.72-.43-2.93,4.32-5.79,3.75-10.17,10.03-.61.87,2.59-14.4,3.01-14.86,7.5-8.45,16.43-3.58,24.51-14.21,7.99-10.52,4.47-9.51,1.21-8.8-16.87,3.68-22.38,17.37-24.68,18.94.47-1.55,4.07-13.04,5.1-14.29,8.97-10.89,13.18-5.01,13.51-9.6.22-3.13-5.11-1.68-5.2,1.29-.01.47-2.32.9-7.54,5.78,4.74-18.72,25.43-27.34,19.24-52.9-1.46-6.05-1.76-7.68-3.1-6.34ZM197.33,73.83c-1.59-6.32-1.79-4.78.22-7.05.2.06-.02,7.02-.22,7.05ZM196.75,60.93c1.03,5.25,1.28,4.28-.93,6.73-1.18-4.53-1.19-4.42-1.07-4.56,2.05-2.44,1.83-2.18,2-2.18ZM194.51,55.96c2.4,5.16,2.37,3.58-.04,6.39-.15-.2-1.11-3.6-1.4-4.59-.07-.26,1.32-2.04,1.44-1.8ZM192.76,56.74c-1.75-4.56-1.74-3.57-.81-4.82,2.56,3.87,2.53,2.8.81,4.82ZM190.09,50.24c1.58,1.46,1.44,1.05.85,1.85-.05-.09-.91-1.77-.85-1.85ZM189.03,50.89c.49,1.02,1.05,2.15,1.65,3.38-2.54-.69-2.07,0-1.65-3.38ZM188.66,54.44c3.15.84,2.06-.14,3.85,4.92-4.39-.95-4.09.09-3.85-4.92ZM189.77,63.58c-1.31-5.33-1.97-4.54,2.63-3.45.59.14,1.65,4.75,1.68,4.92-4.41-1.34-4.26-1.25-4.31-1.47ZM192.52,69.42c-2.71-5.22-2.47-4.85-2.21-4.78,4.96,1.42,3.67.1,5.16,5.99-2.42-.78-2.75-.82-2.95-1.21ZM193.34,70.7c3.09.9,2.07-.15,3.56,4.91-.17.03.11.25-3.56-4.91ZM187.27,76.75c.62,1.19.68,2.52.99,3.86-4.82-2.85-2.68-7.06-.99-3.86ZM186.9,104.92c-.14-.2-1.85-4.47-1.77-4.7.9-2.31,1.1-5.02,1.77,4.7ZM185.78,96.43c.08.21.06.15-1.06,2.94-.21-.21-2-3.85-2.1-4.06-.13-.27.03-.54.69-2.19.84-2.1.29-2.61,2.47,3.31ZM182.05,94.35c-3.35-5.68-2.9-3.64-1.54-8.15,4.06,4.76,2.84,4.9,1.54,8.15ZM180.01,85.46c-1.42,4.77-.45,4.19-3.11.21-.57-.85-.39-1.03.17-3.19,1.06,1.07,2.03,2.05,2.95,2.98ZM174.03,80.44c2.91,1.91,2.54,1.15,1.92,3.53-.15.04-2.13-3.35-1.92-3.53ZM172.86,82.82c.17-1.88.06-1.71.23-1.72,1.11,2.22,1.23,1.85-.23,1.72ZM173.03,87c-.29-4.22-.65-3.39,1-3.38.52,0,.39.02,2.27,3.27.3.51.62.4-3.27.11ZM175.08,92.35c-.63-.11-1.69-3.69-1.86-4.61,3.74.23,3.67.11,3.91.53,2.81,4.85,4.26,5.21-2.05,4.08ZM178.66,97.52c-.16-.21-2.86-3.78-3.16-4.28,5.86.19,4.06-.9,7.19,4.42-.11.23-3.73.27-4.04-.14ZM182.58,101.98c-3.8-4.13-3.81-3.46.23-3.52.38,0,.29.06,2.2,4.02-1.52-.15-2.08-.12-2.43-.49ZM183.62,103.07c2.15.15,1.4-.49,2.85,3.26-.17.09.08.2-2.85-3.26ZM176.48,122.16c-.79-1.3-.85-3.64,2.53,1.95-.49.31-2.21-1.42-2.53-1.95ZM184.65,149.01c.17.21.14.14-.2,2.56-5.18-3.84-4.19-2.23-3.92-6.42.22.04,2.02,1.42,4.11,3.86ZM179.69,148.06c-6.58-3.72-5.63-2.83-5.84-6.68,7.43,3.22,5.96,3.13,5.84,6.68ZM167.61,139.24c5.52,1.83,5.48,1.78,5.5,1.98.23,3.03.23,3.07.06,2.98-5.86-3.32-5.6-3.11-5.64-3.4-.19-1.74-.17-1.65.08-1.56ZM162.58,139.03c.11-.07-.11-.18,1.64,1.13-.96.28-.58.49-1.64-1.13ZM166.48,138.94c.25.05.22.38.32,1.66-4.1-2.74-4.35-2.57-.32-1.66ZM166.04,144.19c-2.21-3.22-4.26-5.57,3.16-.72-2.9,1.04-2.94,1.03-3.16.72ZM169.91,147.97c-4.18-3.41-3.74-2.86-.06-3.93.27-.08,5.42,2.87,5.44,3.02-2.62.35-4.06,1.98-5.38.91ZM171.76,148.88c5.34-1.7,3.49-2.24,9.8,1.95-.29.17-3.97,1.09-4.18,1.15-.42.1-6.53-2.81-5.62-3.09ZM178.26,152.59c.03-.17,3.93-1.3,4.34-.96,4.82,4.02,7.32,5.66-4.34.96ZM185.42,149.89c1.89,2.44,3.56,4.9,5,7.53-6.29-6.14-5.47-4.56-5-7.53ZM186.27,156c1.42-.3.88-.49,3.52,2.13-.17.11.06.09-3.52-2.13ZM219.64,176.32c.78,1.74-1.24,1.96-2.9,2.45.11-.83,1.99-4.45,2.9-2.45ZM216.36,206.23c-1.97,1.09-8.04-11.05-7.72-11.24,2.26,3.97,4.73,7.78,7.72,11.24ZM208.05,171.07c.06-.31,3.84-9.65,4.2-9.73,3.72-.89,7.45-3.49-4.2,9.73ZM212.35,160.57c2.15-6.22,1.52-5.19,5.2-6.57-.42,6.61-1.76,5.83-5.2,6.57ZM217.61,152.98c0,.31.13.3-3,1.35.96-3.14,1.64-6.28,2.04-9.51.2.19.99,4.57.96,8.15ZM215.9,142.63c-1.24,6.93-.6,6.23-2.21,3.71-.33-.52,2.02-3.77,2.21-3.71ZM213.12,146.63c1.71,3.23,2.16,1.77-.84,10.7-3.15-3.96-3.83-2.95.84-10.7ZM207.39,160.99c.46-2.92,1.38-5.81,1.87-6.7,3.28,4.73,3.15,2.58.55,9.75-2.57-2.85-2.47-2.65-2.42-3.05ZM207.32,162.22c2.69,3.31,2.74,1.21-.8,10.04-.15-.05.41-9.92.8-10.04ZM204.65,140.88c.45,1.4-.64,2.91-1.53,4.07.37-2.82.32-3.43,1.53-4.07ZM204.48,121.41c2.57.43,2.36.39,2.47.56-3.44,4.72-2.11,4.05-5.3,3.69-.03-.17,2.54-4.3,2.83-4.25ZM209.31,115.97c-1.7,6.37-2.2,5.2-4.54,4.78.05-.17,2.55-4.78,2.86-4.79.54-.01,1.08,0,1.67.01ZM209.54,115.05c-.04.26-.39.2-1.7.19,3.17-7.17,3-7.99,1.7-.19ZM207.85,110.26c1.67-1.22,1.47-1.13,1.58-1.04-1.26,2.57-.91,2.42-1.58,1.04ZM207.22,110.63c1.03,1.93,1.33.9-1.89,7.06-2.12-4.86-2.58-3.09,1.89-7.06ZM203.06,114.42c.06,0,.13.01.19.01,1.95,4.89,2.25,3.16-.93,8.22-2.05-5.32-2.5-3.6.74-8.23ZM200.35,119.64c1.24,3.04,1.72,3.51.89,4.67-3.03,4.21-2.02,4.91-3.47,1.81-.1-.21,2.11-7.64,2.58-6.48ZM197.52,127.2c1.09,2.29,1.21,1.07-1.05,5.42-.11-.02.82-5.4,1.05-5.42ZM197.48,132.56c4.33-7.46,2.9-6.32,5.93-5.97.08.2-5.66,6.17-5.93,5.97ZM204.82,102.62c3.26-4.28,3.48-2.45,2.93-1.67-.82,1.16-2.77,1.83-2.93,1.67ZM208.17,88.83c-.24.08-.13.1-2.11-.97,3.34-2,3.21-1.98,3.45-1.86,3.72,1.82,4.02,1.14-1.33,2.83ZM217.46,84.56c-4.72,3.54-4.03,2.34-7.36.99.16-.23,3.47-2.13,3.67-2.24.29-.17,1.7.44,3.7,1.24ZM218.3,83.87c-.27.26-3.24-.98-3.59-1.13,4.19-2.93,2.57-2.6,5.99-1.42-.05.21-2.27,2.41-2.41,2.54ZM221.11,80.66c-.77-.22-1.54-.45-2.38-.7,8.66-7.18,2.83.83,2.38.7ZM225.28,74.55c-1.38,2.55-.91,2.29-2.32,1.9,2.5-2.19,2.2-2,2.32-1.9ZM223.49,74.7c.08.17.4-.18-3.11,2.6.33-2.57-.3-1.84,3.11-2.6ZM216.28,76.84c.4-.15,3.18-1.21,3.6-1.26-.41,3.17.43,1.84-4.11,5.13-.18-.09.14-3.73.51-3.87ZM215.29,77.24c-.71,6.9.11,2.19-4.28,6.44-.03-.05-.06-.09-.09-.14.43-4.16-.39-3.3,4.37-6.31ZM210.51,80.56c-.43,4.29.3,3.17-3.5,5.39.41-3.07-.19-2.15,3.5-5.39ZM206.52,84.38c-.24,1.67.42,2.16-3.86,4.57-.09-.09,3.64-4.71,3.86-4.57ZM202.39,90.51c3.74-2.68,2.71-2.41,4.53-1.37-4.77,1.51-4.43,1.54-4.53,1.37ZM212.92,70.13c.03-2.45,4.14-2.93,2.8-.96-.49.71-1.91,1.21-2.8.96ZM217.33,22.54c2.81-3.94,2.3-1.48,1.69,2.55-1.73-2.39-1.79-2.4-1.69-2.55ZM216.81,23.24c2.52,3.44,2.26,1.7,1.38,8.75-4.33-5.93-4.33-3.99-1.38-8.75ZM212.15,32.1c.71-1.9.82-2.04,2.01-4.47,4.74,6.67,4.22,4.22,2.93,11.07-.17-.15-5.1-6.16-4.94-6.6ZM211.64,33.5c.19-.54-.24-.79,4.99,5.81.35.45.33.39-1.45,6.41-5.77-6.63-5.46-6.77-3.54-12.22ZM210.18,51.27c-1.6-15.79-.32-11.46,4.54-4.96.31.42-2.61,7.42-2.75,7.65-1.96-2.79-1.77-2.46-1.79-2.69ZM210.39,53.08c1.81,2.06,1.69.77-.29,5.68.09-1.71.19-3.72.29-5.68ZM211.9,56.62c3.32-8.09,2.1-6.72,5.53-7.72,1.46-.43-5.78,8.33-5.53,7.72ZM218.79,47.04c-.46,1.05-.83.96-3.65,1.81-.02-.2,1.77-5.74,2.12-5.85,4.99-1.61,4.39-2.48,1.53,4.04ZM221.44,40.79c-.14.39-3.85,1.34-4.02,1.37,1.56-6.63.34-5.27,5.31-7.09-.01.69-.32,2.97-1.29,5.72ZM222.61,34.36c-3.84,1.52-3.84,1.34-3.67,1.4.9-6.84-.07-5.29,3.94-6.89.07.67.33,5.26-.27,5.49ZM219.74,29.35c.88-7.1.22-5.81,2.21-6.78,1.04,6.55,1.6,5.25-2.21,6.78ZM220.59,22.42c.49-3.49.39-3.05.56-3.06.7,3.08.89,2.4-.56,3.06ZM219.76,20.12c-.4-.36-.38-.47.2-.93-.07.33-.14.62-.2.93Z"/>
</svg>